<svg width="97" height="102" viewBox="0 0 97 102" fill="none" xmlns="http://www.w3.org/2000/svg">
<g clip-path="url(#clip0_364_1359)">
<path d="M-6.27893 23.0928C-6.31416 20.7787 -4.58764 18.8169 -2.29516 18.554C13.8539 16.7383 25.9958 6.54332 43.6983 13.9018C77.1493 27.8179 69.5261 97.8722 36.2972 122.406C24.9078 130.819 14.9284 123.754 -0.546185 122.806C-2.88226 122.661 -4.70118 120.732 -4.74405 118.394L-6.27893 23.0928Z" fill="#D44163"/>
<path d="M-6.23892 25.7602C-6.26743 23.5795 -7.43788 21.946 -5.29462 21.7054C9.78694 19.9905 27.3737 11.4418 40.4082 17.1056C71.4706 30.6014 64.5281 96.2379 33.5152 119.355C22.8907 127.281 11.8683 120.198 -2.58713 119.307C-4.75856 119.171 -4.75447 117.767 -4.79063 115.563L-6.23892 25.7602Z" fill="#FEFFDE"/>
<path d="M-1.51897 70.2402C-1.04104 58.3067 4.87761 52.2079 11.6183 53.6692C18.7582 55.2201 21.3036 77.7912 9.55012 81.9737C0.526567 85.1833 -1.74984 76.1756 -1.5112 70.2481L-1.51897 70.2402Z" fill="#EAEBC3"/>
<path d="M6.78561 63.9579C7.19584 63.679 7.57926 63.7842 7.7714 64.2486C8.34056 65.5711 8.37001 67.642 7.74765 69.8093C7.11738 71.9844 5.97322 73.7159 4.78988 74.5215C4.37966 74.8004 3.99623 74.6952 3.80409 74.2308C3.23493 72.9083 3.20548 70.8374 3.83575 68.6623C4.46602 66.4872 5.61018 64.7558 6.79352 63.9501L6.78561 63.9579Z" fill="#9E8A78"/>
</g>
<defs>
<clipPath id="clip0_364_1359">
<rect width="111.305" height="102.576" fill="white" transform="translate(-55 69.0327) rotate(-44.5129)"/>
</clipPath>
</defs>
</svg>
