<svg width="180" height="241" viewBox="0 0 180 241" fill="none" xmlns="http://www.w3.org/2000/svg">
<g style="mix-blend-mode:multiply" opacity="0.05">
<path d="M89.1123 240.62C123.473 240.62 151.328 238.725 151.328 236.387C151.328 234.049 123.473 232.154 89.1123 232.154C54.7514 232.154 26.8965 234.049 26.8965 236.387C26.8965 238.725 54.7514 240.62 89.1123 240.62Z" fill="black"/>
</g>
<path d="M132.533 168.908C138.561 177.348 149.087 181.154 158.675 178.476C167.012 176.147 177.089 165.01 179.12 156.341C179.704 152.909 176.449 155.964 175.829 157.558C178.592 149.756 175.265 150.871 173.227 156.003C174.047 147.754 171.626 150.182 169.9 156.079C168.361 154.3 166.75 153.017 166.051 153.444C165.464 153.801 166.291 155.432 166.297 157.401C166.31 161.263 159.557 170.07 156.414 170.473C150.183 172.944 140.539 164.013 140.539 164.013C140.539 164.013 136.159 165.863 132.53 168.912L132.533 168.908Z" fill="url(#paint0_linear_114_3556)"/>
<path d="M37.5276 1.02313C37.5276 1.02313 60.539 -3.30812 74.7238 8.46501C88.9054 20.2381 96.2849 34.7413 88.889 43.6499C81.4931 52.5584 65.8776 47.9778 51.696 36.2047C37.5112 24.4316 37.5276 1.01985 37.5276 1.01985V1.02313Z" fill="#8BC53F"/>
<mask id="mask0_114_3556" style="mask-type:luminance" maskUnits="userSpaceOnUse" x="37" y="0" width="55" height="49">
<path d="M37.5276 1.02313C37.5276 1.02313 60.539 -3.30812 74.7238 8.46501C88.9054 20.2381 96.2849 34.7413 88.889 43.6499C81.4931 52.5584 65.8776 47.9778 51.696 36.2047C37.5112 24.4316 37.5276 1.01985 37.5276 1.01985V1.02313Z" fill="white"/>
</mask>
<g mask="url(#mask0_114_3556)">
<path d="M47.7454 10.4534L49.4943 -4.23999" stroke="#006838" stroke-width="1.42" stroke-linecap="round" stroke-linejoin="round"/>
<path d="M60.6472 20.8452L67.3738 0.150391" stroke="#006838" stroke-width="1.42" stroke-linecap="round" stroke-linejoin="round"/>
<path d="M71.4326 32.6446L84.0884 14.3418" stroke="#006838" stroke-width="1.42" stroke-linecap="round" stroke-linejoin="round"/>
</g>
<mask id="mask1_114_3556" style="mask-type:luminance" maskUnits="userSpaceOnUse" x="37" y="1" width="52" height="48">
<path d="M88.889 43.6532C81.4931 52.5618 65.8776 47.9812 51.696 36.208C37.5112 24.4349 37.5276 1.02319 37.5276 1.02319L88.889 43.6532Z" fill="white"/>
</mask>
<g mask="url(#mask1_114_3556)">
<path d="M88.889 43.6532C81.4931 52.5618 65.8776 47.9812 51.696 36.208C37.5112 24.4349 37.5276 1.02319 37.5276 1.02319L88.889 43.6532Z" fill="#37B34A"/>
<path d="M79.544 34.3115L53.3005 44.1881" stroke="#006838" stroke-width="1.42" stroke-linecap="round" stroke-linejoin="round"/>
<path d="M68.4205 24.4448L40.3921 29.9901" stroke="#006838" stroke-width="1.42" stroke-linecap="round" stroke-linejoin="round"/>
<path d="M56.9853 14.9587L28.4253 20.3794" stroke="#006838" stroke-width="1.42" stroke-linecap="round" stroke-linejoin="round"/>
</g>
<path d="M82.9401 77.148C81.0501 67.0549 81.3454 55.308 85.8801 45.9236C87.8489 41.4218 90.8807 37.7533 94.4803 34.4885C97.0987 32.4147 106.69 27.8046 104.977 35.8994C104.052 40.2701 94.5361 43.2232 91.6781 46.9047C85.0631 55.0915 82.7957 66.8547 82.9368 77.1447L82.9401 77.148Z" fill="#603813"/>
<path d="M84.2362 61.8837C39.4143 24.8548 -18.4013 57.9856 6.28356 129.445C16.6228 159.37 30.3778 178.129 43.5454 187.871C59.2561 199.493 70.1203 193.744 81.3422 187.871C82.6251 187.198 85.8506 187.198 87.1336 187.871C98.3587 193.744 109.22 199.493 124.93 187.871C138.098 178.129 151.853 159.373 162.192 129.445C186.88 57.9889 129.061 24.8581 84.2395 61.8837H84.2362Z" fill="#ED1C24"/>
<mask id="mask2_114_3556" style="mask-type:luminance" maskUnits="userSpaceOnUse" x="0" y="46" width="169" height="149">
<path d="M84.2362 61.8837C39.4143 24.8548 -18.4013 57.9856 6.28356 129.445C16.6228 159.37 30.3778 178.129 43.5454 187.871C59.2561 199.493 70.1203 193.744 81.3422 187.871C82.6251 187.198 85.8506 187.198 87.1336 187.871C98.3587 193.744 109.22 199.493 124.93 187.871C138.098 178.129 151.853 159.373 162.192 129.445C186.88 57.9889 129.061 24.8581 84.2395 61.8837H84.2362Z" fill="white"/>
</mask>
<g mask="url(#mask2_114_3556)">
<g style="mix-blend-mode:multiply" opacity="0.5">
<path d="M158.491 151.229C158.872 150.071 159.252 148.909 159.633 147.751C157.9 148.765 157.352 147.574 156.417 146.382C157.644 146.684 158.872 146.989 160.099 147.291V138.36C159.931 138.274 159.771 138.196 159.574 138.087C161.008 144.42 158.271 139.249 159.045 136.375C155.456 136.099 154.432 136.591 151.367 138.13C151.39 138.288 154.675 142.504 151.768 139.958C152.742 141.067 156.926 147.754 150.731 145.923C150.836 146.789 149.3 148.102 150.314 148.459C150.983 148.358 151.594 148.112 152.148 147.718C152.158 148.725 151.778 149.532 151.006 150.149C151.804 150.133 152.355 150.471 152.657 151.157C152.148 151.111 151.64 151.068 151.131 151.025C151.062 151.436 150.993 151.846 150.924 152.256C149.34 151.754 148.559 150.812 148.585 149.427C149.773 149.181 148.874 150.989 150.209 150.638C149.733 148.899 149.258 147.157 148.782 145.418C152.437 146.008 148.614 144.296 150.127 143.065C150.826 144.853 150.862 144.417 151.315 142.671C152.224 143.774 152.184 144.821 151.193 145.808C156.22 142.474 148.87 141.169 146.242 141.552C146.55 143.574 144.864 143.459 144.654 141.621C142.15 143.387 139.47 147.16 138.275 143.528C138.534 144.492 138.262 148.335 136.408 147.324C136.871 146.061 137.333 144.801 137.799 143.538C134.994 144.243 136.946 144.414 133.563 146.212C134.774 146.491 135.174 147.232 135.352 148.115C132.356 144.942 133.475 146.212 135.388 148.286C135.67 149.952 135.315 152.056 137.99 152.617C136.139 155.035 135.181 152.84 133.475 150.55C133.954 149.815 134.597 149.926 135.404 150.881C133.872 149.237 134.653 148.63 132.077 148.187C133.311 151.002 129.308 149.844 128.412 149.109C129.173 149.214 129.481 149.03 129.34 148.561H127.168C127.572 147.478 128.179 146.543 128.993 145.749C128.353 145.526 127.913 145.47 127.575 145.513C127.69 145.172 127.762 144.637 127.762 143.803C127.454 144.135 127.109 143.899 126.728 143.095C130.312 138.898 126.955 144.04 127.988 144.709C127.634 144.479 132.746 141.877 128.471 141.526C130.758 139.948 130.564 138.865 127.887 138.278C127.224 139.223 128.202 140.325 126.423 142.1C125.265 144.578 126.4 145.332 124.166 146.845C124.517 146.934 125.065 146.983 125.567 147.111C125.669 145.815 126.158 145.969 126.65 146.048C126.371 146.366 126.095 146.763 125.6 147.117C126.285 147.301 126.87 147.639 126.683 148.473C126.6 148.834 121.295 158.484 126.919 154.228C127.263 154.674 123.69 162.408 123.086 158.539C124.668 158.825 125.386 158.188 125.245 156.627C123.306 157.703 122.355 157.765 122.394 156.81C122.41 156.84 122.414 156.807 122.394 156.712C122.368 156.791 122.338 156.859 122.312 156.935C122.361 156.062 120.707 154.602 119.966 154.586C119.736 156.259 120.271 157.243 121.577 157.539C121.862 157.493 122.046 157.398 122.161 157.273C121.321 158.894 119.605 158.746 119.851 161.594C118.978 161.916 118.456 161.417 118.286 160.095C118.289 160.095 118.473 157.483 119.004 154.881C117.321 155.934 118.082 157.509 118.118 159.117C118.099 158.838 115.887 157.699 115.398 157.463C119.871 153.903 115.671 155.819 115.392 155.409C114.968 154.671 115.011 153.919 115.52 153.152C116.694 153.673 117.866 154.192 119.04 154.714C119.27 153.618 119.565 152.538 119.933 151.665C120.803 152.909 121.331 154.507 123.254 154.162C120.684 152.233 123.119 153.637 123.628 151.442C123.772 150.812 123.815 147.219 123.382 149.765C123.07 151.603 121.551 151.245 120.025 151.449C120.32 150.799 120.661 150.281 121.055 149.995C119.851 149.998 119.529 149.48 120.09 148.437C121.091 149.782 121.99 150.028 122.784 149.178C120.78 147.715 120.839 145.848 121.715 144.355C122.053 143.774 120.993 146.894 122.538 147.196C121.311 144.752 124.428 143.718 123.155 141.333C121.931 143.196 121.702 144.506 119.339 144.342C117.708 142.967 117.593 145.487 116.95 147.039C117.443 146.825 119.191 144.364 119.329 144.351C122.666 148.253 117.134 146.205 116.685 149.172C118.722 148.601 118.299 150.048 119.293 151.235C117.597 152.869 116.301 152.6 115.408 150.432C115.001 152.663 113.118 151.193 113.935 154.382C112.777 154.317 110.729 155.842 109.161 156.627C109.561 156.748 109.722 157.65 109.682 158.658C108.997 158.562 108.314 158.467 107.628 158.372C108.002 157.617 108.317 157.152 108.583 156.886C107.254 157.401 106.5 157.004 107.428 153.785C105.118 155.494 105.351 162.743 107.632 163.543C106.641 164.442 105.807 163.95 104.465 164.226C104.235 162.1 105.814 157.375 105.007 155.645C103.756 152.965 100.534 159.904 99.5531 155.189C97.5352 156.508 100.643 159.34 102.122 157.506C103.08 159.655 100.498 159.114 100.748 161.87C98.677 161.279 99.0806 153.289 94.6608 154.861C95.7502 157.247 96.4163 156.548 97.7452 157.434C97.8633 159.337 98.8608 158.904 98.2177 160.935C98.3292 160.042 98.0503 159.576 97.3744 159.53C96.1341 162.651 95.8191 164.83 92.4295 163.711C95.2252 161.778 93.8208 159.261 94.5886 158.421C88.7185 158.93 92.5313 156.646 89.3255 153.454C87.8391 151.974 87.2583 153.283 84.7055 151.905C85.6735 150.333 85.7423 150.687 86.415 149.135C85.0631 150.018 83.9147 151.114 82.973 152.423C85.2567 151.751 89.0728 155.17 90.1294 157.883C88.7513 156.859 89.5256 165.115 85.7391 161.161C86.9761 161.899 89.1549 159.55 85.4864 158.638C88.0786 162.044 80.9649 162.68 83.603 160.807C82.4283 160.164 81.3717 161.02 80.2889 161.584C80.7778 158.188 76.0463 162.7 81.142 158.284C80.0461 158.914 79.0453 158.789 78.1397 157.909C77.513 161.722 78.4809 158.392 76.4302 162.152C76.4433 162.129 76.0266 165.04 76.0036 164.623C76.4794 162.379 75.3736 161.65 72.6863 162.438C73.523 166.152 68.9489 164.439 72.4894 163.576C70.1728 161.66 72.7388 163.481 72.2597 158.697C72.975 159.717 73.7002 160.735 74.4286 161.745C75.9905 160.252 76.7058 160.003 77.9789 157.936C75.8133 158.165 74.9339 158.228 75.5705 160.62C73.29 161.384 73.8216 158.49 75.472 157.476C74.6944 156.147 71.4427 158.523 70.4452 158.431C70.4452 161.348 70.2483 161.493 67.9514 162.894C65.602 161.627 67.1639 158.395 68.2566 160.508C68.1647 158.996 67.9284 158.454 66.8949 158.576C67.8497 158.215 69.113 157.614 69.6019 156.978C69.5822 157.05 69.5592 157.115 69.5395 157.194C70.3992 157.168 71.2589 157.145 72.1186 157.122C71.61 156.279 71.1014 155.439 70.5928 154.595C73.6674 153.936 75.5639 153.795 78.5958 154.254C77.175 158.412 79.8263 157.063 79.4227 156.167C81.7786 156.732 82.2052 158.69 83.6949 159.393C85.4602 156.216 81.5522 157.125 79.9706 155.422C77.6377 152.906 78.9174 151.934 76.7845 148.712C75.9183 155.934 77.7525 149.172 77.5228 152.466C77.49 152.919 73.7002 151.97 72.7814 152.856C72.1941 152.249 72.8831 151.409 73.838 150.635C73.2867 150.55 72.8602 150.021 72.578 148.998C71.9283 154.586 68.2074 149.194 66.698 152.561C68.9653 152.44 70.6355 152.203 68.2894 153.604C68.6438 154.91 69.6019 154.71 71.167 153.007C70.5436 154.549 70.1761 155.196 69.7856 156.384C69.743 156.134 69.5494 155.888 69.09 155.662C69.1458 155.688 67.2525 157.079 66.99 157.152C66.7341 157.224 65.0803 156.141 64.26 155.888C65.1558 158.982 65.9695 162.552 64.995 165.177C67.6692 164.318 66.0253 168.971 65.812 169.82C64.8999 169.171 64.2567 165.942 64.7949 165.25C62.9705 165.437 62.662 166.214 63.8761 167.586C62.0452 166.844 61.5005 167.294 62.2486 168.934C59.8074 169.217 63 165.191 63.1345 165.049C59.6433 163.973 58.9575 161.637 60.7885 158.897C61.4841 159.691 61.6055 160.571 61.1395 161.539C60.1092 162.598 60.3553 163.36 61.8811 163.822C62.7605 160.63 62.0911 162.214 64.5947 160.055C63.5611 160.216 58.5178 159.307 63.6464 157.955C63.2133 156.384 59.9058 156.718 60.7524 158.845C58.5572 156.072 61.9861 155.645 63.6628 156.082C62.9902 153.582 64.1911 153.542 65.5299 155.284C67.3477 153.109 66.4453 150.934 66.0483 148.286C65.9958 148.591 65.1886 152.532 65.3592 152.404C64.0795 153.355 60.7753 152.164 63.0984 154.241C61.0641 155.025 61.2872 151.826 61.2872 150.983C58.7278 153.88 61.4348 158.044 56.7919 155.117C58.0945 153.224 57.2513 153.972 59.3906 152.899C58.065 152.686 56.7394 152.476 55.4138 152.262C56.2603 150.015 57.7795 152.725 58.2684 150.491C57.3956 149.664 56.4113 149.103 55.312 148.804C56.2374 147.875 58.1831 147.285 59.5317 147.226C58.5638 146.619 58.1142 146.087 58.1831 145.628C57.1988 147.186 55.9945 147.416 54.3375 146.98C55.6566 148.476 55.3941 148.922 53.5434 148.322C51.7322 147.675 51.3713 148.233 52.4639 149.998C51.2761 150.881 50.9381 151.088 52.9463 151.938C53.107 149.851 53.13 149.254 55.207 148.916C51.4795 151.436 59.0986 147.905 53.6747 153.437C53.002 153.125 52.3294 152.814 51.66 152.502C51.5386 153.303 51.112 153.877 50.3869 154.234C50.3541 153.69 49.8291 153.562 48.8119 153.851C50.0916 153.375 50.587 152.44 50.2917 151.042C47.9489 153.778 48.4838 151.587 45.7341 151.35C46.1541 152.968 47.9686 153.326 47.9325 154.166C45.2911 154.047 43.4241 152.407 43.0139 156.003C45.3075 155.284 46.2656 158.628 44.5725 159.124C44.5725 156.269 43.2141 157.44 43.5159 160.18C46.9711 157.079 41.9311 163.675 41.8852 163.747C41.8852 161.217 43.4897 156.318 41.2716 155.442V154.51C43.6275 154.989 43.2731 155.248 43.1583 153.063C42.1247 153.769 40.3824 153.572 40.7564 155.396C35.8739 152.167 40.1297 157.65 35.8313 157.165C36.7074 155.787 37.6983 154.212 38.6695 153.408C39.4144 152.787 42.5349 154.146 42.3905 151.455C40.4349 151.121 33.938 151.239 37.4555 148.486C37.065 150.484 43.6144 150.927 44.5102 149.526C42.0164 148.63 42.3544 148.44 40.1724 148.847C40.192 148.673 40.1724 148.407 40.1395 148.108C39.2799 148.197 38.4202 148.289 37.5605 148.377C38.5744 146.022 39.4308 145.92 40.1363 148.056C40.0116 146.898 39.6506 145.136 39.8672 144.85C37.7114 145.467 37.4686 149.316 35.0077 147.81C34.1808 150.481 34.8239 151.393 36.9436 150.553C38.1478 151.862 38.6564 152.082 36.2874 153.598C36.8649 151.14 33.1472 149.66 32.0381 150.333C31.6641 149.109 30.7092 148.076 29.5477 147.055C29.8988 147.075 30.2925 146.999 30.742 146.773C29.6953 145.29 28.6716 144.305 27.3197 142.99C27.1195 142.799 27.172 144.309 27.743 145.546C26.4863 144.512 25.2033 143.413 24.2517 142.081C23.5955 143.669 21.0952 143.925 20.7999 142.156C24.6094 142.484 22.1452 140.04 20.0845 139.252C20.6128 140.617 22.1681 143.131 19.3463 141.06C20.5505 142.94 19.8024 143.738 17.1052 143.449C17.4661 141.316 14.3292 143.301 13.5647 140.817C12.8789 140.906 11.4909 143.259 11.655 144.223C8.08501 141.533 11.2678 141.654 11.6353 138.265C11.6747 138.668 12.4294 136.161 11.9044 137.28C12.2883 136.299 12.2686 135.302 11.8486 134.284C13.3941 134.744 14.0963 134.403 13.9486 133.261C9.86017 132.162 13.8272 130.062 14.8444 127.407C13.5417 128.175 12.2391 128.946 10.9397 129.714C12.8166 132.69 12.0914 133.576 8.7708 132.372C11.2547 131.233 8.59032 125.97 7.58297 129.776C5.56501 127.2 3.94079 128.765 1.75548 128.729V132.923C1.77845 132.906 1.79486 132.897 1.81783 132.877C1.98517 132.565 2.15579 132.253 2.41173 131.778C1.14189 134.12 2.33954 134.859 4.70532 134.422C4.94485 133.202 2.06719 132.388 5.43048 130.442C6.67079 129.727 8.12767 130.918 7.44517 132.221C11.0184 132.778 6.93001 136.004 7.61907 136.138C8.95782 136.404 8.29501 135.794 9.86673 136.624C9.22689 135.121 9.18751 133.369 11.1136 133.533C10.5656 135.856 11.8814 137.795 10.418 139.548C9.13829 137.211 6.26064 138.16 9.40407 139.849C4.96454 141.228 7.38938 139.863 6.34595 137.231C6.65767 137.681 7.10392 137.91 7.70439 137.897C8.08173 136.686 7.35001 136.096 5.50923 136.122C5.17783 138.534 5.59783 139.449 4.47236 141.585C5.54533 137.392 1.31251 139.177 2.20501 134.993C2.04095 135.439 1.89329 135.732 1.7522 135.948V144.952C1.99829 144.781 2.24767 144.611 2.49376 144.443C2.66111 145.936 3.79969 144.807 4.61016 144.889C3.82594 145.933 2.8711 146.415 1.7522 146.359V152.699C2.11642 152.961 2.66767 153.119 3.41579 153.165C3.21892 153.503 2.52985 153.388 1.7522 153.129V170.552C2.6611 170.529 3.26157 171.012 3.52735 172.048C2.68079 171.363 2.09017 171.244 1.7522 171.681V182.699C3.56673 183.638 5.33533 184.419 7.66173 185.026C7.58954 185.465 6.81517 185.213 6.44767 185.255C8.18017 186.095 9.90939 186.935 11.6386 187.779C11.5238 186.85 11.8027 186.417 12.4753 186.479C11.9109 190.167 22.4897 192.674 24.2681 191.523C24.0056 194.735 45.2484 199.01 48.6642 199.555C52.2113 200.123 53.3269 200.037 57.0511 200.969C59.243 201.517 68.437 200.244 63.2986 201.859C65.7563 202.026 69.3558 203.457 69.556 200.622C71.3508 203.476 73.8347 202.292 76.5385 202.305C78.0642 202.315 87.0319 202.899 81.6113 201.57C83.9114 200.018 84.8203 203.883 86.0311 201.317C87.0975 203.706 92.8659 202.804 93.473 200.523C93.1941 204.064 103.061 200.815 105.509 200.585C107.307 200.418 114.804 200.297 113.794 198.607C115.411 199.447 121.534 198.249 121.688 197.508C119.408 197.321 118.893 196.517 120.14 195.096C122.574 196.851 122.115 197.593 125.367 197.025C127.959 196.572 129.823 196.379 128.159 193.629C129.147 192.812 129.833 193.478 130.22 195.624C132.29 194.994 134.348 194.331 136.398 193.636C140.237 192.267 143.971 189.852 147.997 189.406C147.24 188.451 145.277 187.969 146.432 186.401C147.053 187.395 147.673 188.392 148.293 189.387C149.241 188.481 152.913 187.198 151.705 186.259C152.198 185.879 159.16 185.918 153.569 184.058C155.974 183.224 156.68 182.903 156.089 185.587C157.68 184.625 159.416 184.064 160.082 182.67V173.597C159.968 173.738 159.813 173.889 159.59 174.047C159.042 173.082 157.897 171.671 157.444 173.574V171.454C157.831 171.556 159.472 171.92 160.086 172.57V149.418C159.6 150.356 158.983 151.35 158.478 151.245L158.491 151.229ZM41.3241 166.71C40.8713 167.592 40.4152 168.475 39.9624 169.354C38.4169 168.278 38.0756 167.3 38.9452 166.424C39.2799 166.562 41.2486 166.657 41.3241 166.71ZM40.0641 173.699C41.0911 173.308 41.4914 174.034 41.2617 175.868C39.4144 176.458 38.4891 176.183 38.4858 175.044C39.9689 175.303 40.4939 174.854 40.0641 173.699ZM39.9689 155.258C39.9689 156.059 39.2109 161.043 37.403 158.27C38.2594 157.266 39.1158 156.262 39.9689 155.258ZM36.2217 159.455C38.1085 163.235 38.2463 163.757 37.9936 159.616C39.4406 160.21 39.6769 161.197 38.7122 162.575C43.2206 162.923 39.4603 168.039 39.0042 163.527C37.9509 163.803 36.1233 164.961 35.4703 164.154C37.8361 163.557 38.0888 162.9 36.2217 162.192C36.143 161.296 36.2217 160.354 36.2217 159.455ZM34.3842 167.14C33.0324 169.45 33.4688 169.765 35.6967 168.081C36.1528 168.757 28.8389 172.009 34.3842 167.14ZM30.2925 162.979C30.9849 161.522 31.9528 161.922 33.2063 164.19C33.0947 164.662 32.9077 165.099 32.6353 165.506C32.0709 165.269 31.1128 163.55 30.2925 162.979ZM35.3424 153.122C36.0609 152.988 37.2553 154.979 36.8649 155.311C35.9953 155.826 35.1225 156.341 34.253 156.859C33.9216 155.291 34.2825 154.044 35.3424 153.122ZM34.988 157.467C35.3817 158.097 35.7755 158.73 36.1692 159.36C35.6967 159.54 34.8863 159.74 34.102 159.757C34.1841 158.937 33.5606 157.371 34.9847 157.467H34.988ZM32.2908 156.974C32.8716 157.903 33.4491 158.832 34.0299 159.76C32.6845 159.767 31.4639 159.196 32.2908 156.974ZM31.3195 158.756C31.5361 158.818 31.7494 158.884 31.966 158.946C32.1825 160.292 31.7034 161.322 30.5222 162.031C30.0759 162.546 29.6297 163.061 29.1834 163.576C28.6092 162.844 31.057 159.806 31.3195 158.756ZM28.2089 156.646C28.6158 156.147 29.1244 155.885 29.7413 155.859C29.3705 157.204 28.9964 158.553 28.6256 159.898C25.6069 157.345 25.6135 155.419 28.8356 153.427C27.0835 153.221 26.6142 154.126 26.0892 152.171C28.5338 151.531 29.7806 152.308 29.8299 154.504C28.012 154.444 27.7922 154.901 28.2089 156.643V156.646ZM27.6117 147.478C28.6749 149.014 28.747 149.536 27.8283 149.044C27.008 150.005 26.1844 150.97 25.3641 151.931C25.1147 149.861 25.8628 148.377 27.6117 147.478ZM25.2295 145.083C24.3469 146.392 23.287 146.701 21.8925 145.782C22.9327 144.804 23.7628 143.15 25.2295 145.083ZM23.6119 164.416C22.9589 164.357 22.3059 164.298 21.653 164.239C25.0327 158.746 23.1722 163.793 23.6119 164.416ZM20.1961 162.149C19.9139 161.84 19.6317 161.529 19.3528 161.22C18.2799 162.067 18.6605 162.736 20.4947 163.228C16.4391 164.639 19.8352 156.968 16.9838 163.524C16.7836 162.68 16.9149 161.292 16.9838 160.426C19.028 160.912 21.0558 160.869 23.0705 160.298C22.2305 159.816 21.0328 157.362 22.7194 157.194C22.3847 159.055 23.0442 159.383 24.6947 158.175C24.4224 160.849 21.9909 160.994 20.1961 162.149ZM10.4213 156.594C10.7592 157.621 16.0913 159.501 14.0503 156.417C15.3202 156.226 15.96 156.617 15.9699 157.588C14.6016 158.139 9.91923 159.987 10.4213 156.597V156.594ZM12.7017 165.351C12.1833 165.962 10.6083 167.881 9.98158 165.351C10.8872 165.351 11.7961 165.338 12.7017 165.351ZM16.0814 165.463C16.2422 164.147 15.6713 163.675 14.362 164.045C14.8674 161.555 16.6163 165.463 16.7442 165.739C15.7434 165.955 14.7427 166.172 13.7386 166.385C13.3416 165.168 14.1192 164.859 16.0781 165.463H16.0814ZM16.6228 159.458C15.727 158.969 16.9641 156.856 17.2299 156.105C17.7024 157.942 19.0345 157.552 20.4455 157.542C20.685 159.101 16.9608 157.591 16.6195 159.458H16.6228ZM22.3092 152.974C24.0614 154.366 18.9 155.216 22.762 155.432C21.5775 156.341 18.4406 157.913 17.6039 155.403C20.0058 156.364 21.128 154.661 22.3092 152.974ZM20.3503 150.084C18.6999 146.238 26.8374 147.37 20.3503 150.084V150.084ZM20.0681 144.84C19.0345 145.775 18.4275 145.789 18.2405 144.873C19.927 145.027 20.8327 144.417 20.9639 143.039C22.9064 145.877 18.9525 147.019 18.3619 149.549C15.7894 147.232 20.9967 146.166 20.0681 144.844V144.84ZM17.3349 151.573C17.6958 151.317 18.06 151.058 18.421 150.802C20.0878 148.883 19.6022 153.995 19.6514 153.821C18.0535 153.795 16.1208 150.943 16.6261 149.756C16.6556 150.448 16.8919 151.055 17.3349 151.573ZM13.591 143.242C14.0503 143.99 14.8739 143.879 16.065 142.904C14.3981 145.231 14.6869 145.067 17.0527 143.521C16.6392 144.673 16.3013 145.575 16.0092 146.274C15.1167 144.049 14.1816 143.889 13.2005 145.815C14.1586 146.652 15.0741 146.845 15.9436 146.435C14.6705 149.418 14.3325 148.122 12.646 144.788C13.6631 144.279 13.9781 143.764 13.5877 143.246L13.591 143.242ZM14.1159 152.525C14.4834 154.618 12.413 154.595 11.317 153.696C12.2489 153.306 13.1808 152.915 14.1159 152.525ZM10.5033 144.013C10.8249 146.182 13.2891 146.468 9.85689 147.692C9.88642 147.042 9.58455 144.076 10.5033 144.013ZM10.6739 153.696C11.7436 154.248 9.36798 155.593 8.76423 156.003C9.25313 155.15 9.74532 154.294 10.2342 153.44C7.20892 154.927 8.87579 152.469 9.35157 150.251C10.3425 150.392 9.16126 152.915 10.6739 153.696ZM6.94314 158.71C5.15486 161.342 9.31876 159.967 8.67235 161.804C7.7372 161.604 6.79876 161.404 5.8636 161.207C5.42063 159.593 5.78158 158.759 6.94642 158.713L6.94314 158.71ZM4.25908 154.805C3.16642 152.19 3.74719 151.478 5.99485 152.669C5.95876 152.315 4.33126 154.628 4.25908 154.805ZM8.57392 147.157C7.11704 146.858 9.34173 146.451 7.48454 146.192C7.85204 144.361 7.92095 144.387 6.11627 143.902C6.07689 142.599 7.06782 142.383 9.08579 143.249C8.91517 144.552 8.74454 145.854 8.57392 147.16V147.157ZM8.03579 142.146C7.19579 142.278 6.35908 142.409 5.51908 142.543C5.72251 140.43 6.56251 140.299 8.03579 142.146ZM1.94252 141.772C2.26736 141.28 2.58892 140.788 2.91376 140.296C3.58314 141.392 4.3411 142.34 4.46907 143.055C3.62579 142.629 2.7858 142.199 1.94252 141.772ZM2.54954 144.397C2.35594 143.301 3.00563 142.885 4.47892 143.134C4.5511 143.764 4.09173 144.207 2.54954 144.397ZM3.11064 152.289C2.64798 149.644 3.68157 147.154 5.95876 146.3C6.01126 146.445 4.65611 148.817 5.23032 151.032C4.40673 151.649 3.12376 150.51 3.11064 152.289ZM6.97267 172.58C7.41235 175.113 6.99891 176.035 5.72907 175.343C6.74954 173.981 6.38533 173.351 4.6397 173.453C4.12127 173.279 3.59955 173.105 3.08111 172.931C4.38048 172.816 5.67658 172.698 6.97595 172.583L6.97267 172.58ZM3.24189 183.221C2.83173 182.014 3.23861 181.292 4.46251 181.062C2.93017 182.978 3.00564 183.513 4.69876 182.667C4.45267 183.792 3.96704 183.976 3.24189 183.221ZM4.49204 181.003C3.91454 180.484 3.34033 179.966 2.76283 179.448C5.03673 179.113 5.61095 179.631 4.49204 181.003ZM5.07611 178.411C4.99736 177.006 8.61002 176.636 8.41314 179.943C6.2672 180.005 11.0152 177.837 5.07611 178.411ZM6.59533 176.334C8.26548 174.975 8.32454 174.87 7.92423 172.757C10.1227 172.478 9.77158 177.079 6.59533 176.334ZM11.1103 185.833C10.4639 185.15 10.3524 184.353 10.7789 183.438H9.1547C11.3203 181.452 10.9036 185.311 12.9839 184.173C12.3605 184.724 11.7338 185.278 11.1103 185.833ZM12.0127 183.27C11.9503 179.661 12.915 181.954 13.4466 178.831C15.668 179.29 12.3769 182.808 12.0127 183.27ZM11.7403 169.309C10.1227 169.771 9.5386 169.637 7.90126 169.886C8.66907 169.64 13.8633 167.346 14.2341 168.551C13.4039 168.803 12.5705 169.056 11.7403 169.309ZM17.1478 169.489C17.9747 170.034 18.8016 170.578 19.6285 171.123C17.1249 172.426 16.298 171.881 17.1478 169.489ZM17.1117 177.774C16.9509 176.964 16.9706 173.794 18.8738 174.486C17.3316 177.512 20.6227 174.88 17.1117 177.774ZM18.1749 173.066C18.7983 171.32 21.8827 173.003 22.2141 174.05C20.8688 173.722 19.5202 173.394 18.1749 173.066ZM23.6152 174.372C22.2075 173.341 22.9556 171.605 22.7719 169.991C22.5914 168.413 22.2206 170.637 21.443 169.847C21.8761 169.482 22.3092 169.122 22.7424 168.757C23.3199 169.804 24.8194 173.669 23.6152 174.372ZM24.2058 169.217C23.9105 168.688 23.6152 168.16 23.3231 167.632C26.7947 167.569 23.8842 161.863 29.8266 164.839C28.6519 166.188 27.9956 166.198 27.8447 164.902C27.697 166.037 25.1278 168.416 24.2058 169.217ZM30.555 180.462C30.1842 180.514 26.1549 177.732 26.3452 176.534C28.5469 177.646 29.5805 178.224 30.555 180.462ZM25.5117 168.934C26.5781 169.266 27.6413 169.597 28.7077 169.929V171.507C28.8816 169.131 25.643 170.887 25.5117 168.934ZM24.6389 170.949C25.7644 171.34 26.8899 171.733 28.0153 172.124C27.6872 172.79 26.7717 172.429 26.1483 171.976C25.7808 172.377 25.8924 172.751 26.4863 173.092C25.4395 173.938 24.8227 173.226 24.6389 170.949ZM25.0163 190.61C25.1114 189.711 25.0163 188.743 25.0163 187.838C26.9456 189.646 24.3403 186.581 27.3591 187.067C26.5781 188.248 25.7972 189.429 25.0163 190.61ZM30.6764 187.887C28.5239 189.79 29.3738 188.707 30.6764 187.887V187.887ZM30.03 190.669C30.0858 189.702 30.3122 188.766 30.7059 187.871C31.2802 187.513 31.9331 187.208 32.4549 187.234C31.6477 188.379 30.8372 189.524 30.03 190.669ZM30.8503 172.869C29.9184 172.501 29.8594 171.773 30.6764 170.683C31.6017 170.706 31.6674 171.307 30.87 172.488C33.5639 169.932 34.1053 170.48 30.8503 172.869ZM36.9666 172.321C36.6089 172.501 36.2513 172.682 35.8936 172.862C38.0494 175.261 36.061 174.595 33.9839 173.6C36.4317 173.138 36.2677 172.541 33.4884 171.815C34.148 171.707 37.9838 171.632 36.9633 172.324L36.9666 172.321ZM39.7556 169.755C39.2175 172.252 39.7228 173.154 37.9214 174.306C38.8992 172.915 38.7286 172.065 37.4095 171.76C38.1905 171.09 38.9747 170.424 39.7556 169.755ZM38.3874 192.612C37.4555 191.293 37.4785 190.414 38.453 189.977C39.2044 191.286 40.3069 192.477 38.3874 192.612ZM38.5219 179.822C39.6703 181.144 40.6514 182.447 42.5906 181.718C40.5825 183.3 39.1781 182.821 38.5219 179.822ZM41.6686 192.687C41.1075 193.337 40.7334 194.085 40.5431 194.925C40.822 193.045 42.2789 190.607 44.333 192.596C43.4372 192.425 42.548 192.454 41.6686 192.684V192.687ZM43.7555 166.943C43.3781 166.697 43.0008 166.451 42.6234 166.204C43.4208 167.405 43.1616 168.177 41.8524 168.511C42.338 163.858 43.4799 167.071 43.1025 162.467C45.3994 162.415 44.2181 166.185 43.7555 166.939V166.943ZM143.653 146.018C143.286 146.569 141.957 148.443 141.465 147.331C141.691 146.993 141.33 146.547 140.917 146.241C141.097 145.447 141.635 144.702 142.78 143.472C143.381 144.686 143.555 145.424 143.653 146.022V146.018ZM141.438 150.057C141.199 149.053 141.015 148.318 140.913 147.698C141.195 148.797 141.491 150.018 141.438 150.057ZM136.523 148.676C137.169 147.757 137.99 147.334 138.981 147.403C141.783 148.377 138.817 149.483 137.041 149.907C136.976 149.834 136.897 149.752 136.835 149.683C137.199 149.572 137.675 149.434 138.308 149.263C137.714 149.067 137.12 148.873 136.523 148.676ZM136.723 149.716C136.789 149.788 136.858 149.861 136.923 149.929C135.916 150.159 135.375 150.143 136.723 149.716ZM136.877 159.379C137.13 158.973 137.379 158.562 137.632 158.156C137.54 161.092 135.699 160.315 133.468 159.593C134.603 159.524 135.742 159.452 136.877 159.383V159.379ZM135.312 153.621C136.257 156.774 136.546 154.881 135.519 158.274C134.098 158.182 135.65 155.652 133.078 155.042C133.586 154.274 134.331 153.801 135.315 153.621H135.312ZM133.196 157.053C131.25 159.314 131.01 160.272 127.965 160.662C128.136 159.688 132.008 156.554 133.196 157.053ZM132.93 163.566C132.792 164.734 132.658 165.903 132.52 167.071C131.381 166.096 130.791 163.278 132.93 163.566ZM131.063 182.722C132.165 181.567 132.123 184.967 132.103 184.707C131.335 183.385 129.892 186.25 130.121 183.428C130.951 184.74 130.564 183.244 131.063 182.722ZM132.215 153.952C132.192 154.32 131.965 154.91 131.375 155.882C130.289 153.296 131.762 154.317 132.215 153.952ZM126.568 152.817C127.677 152.417 128.067 151.793 127.739 150.953C128.29 148.587 129.235 152.876 128.855 153.431C128.756 153.575 126.784 152.942 126.568 152.817ZM125.977 171.691C124.704 170.782 124.225 171.202 124.54 172.951C123.565 171.884 122.594 170.818 121.623 169.752C122.693 169.348 125.396 170.795 125.977 171.691ZM126.305 187.126C126.098 186.883 125.478 186.502 124.208 185.885C124.993 184.169 125.793 185.705 126.305 187.126ZM123.273 161.043C121.767 160.249 120.829 159.875 120.491 160.502C121.79 158.1 123.703 160.354 123.273 161.043ZM122.233 168.291C120.619 168.403 118.991 168.518 116.947 168.659C118.798 167.337 121.465 167.3 122.233 168.291ZM113.462 165.791C114.913 166.145 115.779 163.822 117.462 165.033C115.425 166.805 115.07 166.884 113.462 165.791ZM118.115 159.143C118.22 160.646 115.064 162.021 113.945 160.997C113.512 164.859 107.399 168.268 107.641 163.527C108.616 164.111 109.59 164.698 110.565 165.282C112.681 163.704 112.76 162.152 110.798 160.623C112.911 160.016 111.897 162.037 113.905 160.941C113.79 160.61 113.676 160.279 113.561 159.947C115.073 159.632 116.593 159.363 118.118 159.14L118.115 159.143ZM110.926 156.59C111.881 155.248 113.085 154.966 114.535 155.747C112.855 157.001 113.062 157.631 115.149 157.64C112.586 158.467 111.763 159.714 112.77 156.289C108.672 158.192 109.85 157.145 110.926 156.59ZM107.041 159.563C108.012 159.852 108.872 159.731 109.63 159.225C109.4 161.21 108.435 163.051 107.041 159.563ZM103.543 162.136C102.496 163.363 102.772 164.091 104.37 164.321C103.819 165.154 103.336 166.027 102.926 166.936C101.876 166.667 101.889 165.85 102.969 164.482C101.962 165.371 100.954 166.264 99.9469 167.153C98.828 166.227 102.657 162.598 103.543 162.136ZM97.3448 176.084C97.5877 175.572 97.8305 175.061 98.07 174.549C99.7533 176.511 101.017 177.269 98.9264 178.752C99.4383 176.957 98.8936 176.462 97.3448 176.084ZM97.7911 168.636C97.7124 168.383 103.927 167.72 102.178 171.366C101.177 169.437 99.8025 169.377 97.7911 168.636ZM100.721 164.351C100.301 164.029 99.8845 163.707 99.4645 163.383C97.4991 164.718 95.7961 167.451 94.3228 167.218C95.3499 165.66 99.4514 160.223 100.721 164.351ZM94.267 165.84C93.7125 166.746 92.797 166.644 91.5239 165.535C91.5042 163.363 92.4197 163.465 94.267 165.84ZM92.0883 166.5C93.4631 167.494 94.5 168.734 95.2022 170.221C92.6297 171.392 93.3614 165.187 90.8972 170.382C89.7225 168.902 90.1196 167.606 92.0883 166.5ZM92.3344 174.267C91.5764 175.369 88.8694 171.632 91.9505 171.277C89.9817 174.332 93.2925 171.438 92.9217 173.374H91.2614C91.6191 173.673 91.9767 173.968 92.3377 174.267H92.3344ZM95.1038 175.005C94.9167 174.247 94.4836 174.267 93.8044 175.061C92.948 174.267 93.4795 173.545 95.4024 172.905C96.2785 176.288 95.6681 177.056 92.7117 176.416C93.5091 175.947 94.3064 175.474 95.1038 175.005ZM83.8589 170.152C82.9238 169.463 81.9853 168.774 81.0502 168.088C83.3405 165.784 84.2789 166.474 83.8589 170.152ZM79.6097 171.622C77.7361 172.511 76.9945 172.012 77.3883 170.126C78.015 170.28 82.1559 171.33 79.6097 171.622ZM79.6819 177.01C78.9994 178.165 78.3234 179.31 77.5819 180.567C77.3883 178.401 78.4153 176.721 79.6819 177.01ZM79.1569 174.267C77.8313 174.047 75.3309 174.207 75.6 174.257C73.395 174.893 80.056 169.597 80.22 173.364C79.0027 173.151 78.6581 173.456 79.1602 174.27L79.1569 174.267ZM73.3622 178.722C72.7913 178.348 72.3384 178.168 71.9808 178.142C72.45 177.991 72.7355 177.633 72.847 177.072C73.1555 177.886 73.3589 178.65 73.3622 178.722ZM73.8708 174.02C73.8774 175.474 74.4483 175.805 75.5836 175.021C74.9011 176.019 74.1989 177.321 73.1981 175.953C72.9028 174.867 73.126 174.221 73.8741 174.02H73.8708ZM74.4089 182.614C75.0159 182.939 75.623 183.264 76.23 183.589C74.8486 183.461 73.4672 183.336 72.0858 183.211C72.217 181.856 72.9914 181.659 74.4122 182.617L74.4089 182.614ZM78.3924 161.552C78.8616 162.064 79.3275 162.572 79.7967 163.084C74.9995 162.595 79.4588 162.848 78.12 163.931C75.9511 163.235 78.5991 161.988 78.3924 161.548V161.552ZM78.8222 166.802C79.2455 166.595 79.6688 166.385 80.0953 166.178C80.6695 167.195 75.623 166.841 74.3039 167.779C75.0258 165.322 77.2308 164.521 78.8255 166.802H78.8222ZM73.9003 171.881C73.7428 171.52 73.5853 171.159 73.4278 170.798C74.4352 170.683 75.5344 170.798 76.5483 170.798C75.751 171.395 74.13 171.878 73.4442 172.56C72.7748 173.223 69.0047 169.207 73.9003 171.881ZM72.8175 176.98C72.0858 176.613 71.3508 176.248 70.6191 175.881C71.3672 174.001 72.2564 175.536 72.8175 176.98ZM70.875 166.109C71.5542 165.748 69.218 169.584 68.67 170.03C68.3025 167.038 70.4189 167.743 67.6889 163.639C72.637 162.667 68.6077 167.304 70.875 166.109ZM69.8841 176.783C69.6511 179.034 69.3263 176.898 68.6766 178.293C67.2788 175.845 66.7899 179.379 66.2124 176.409C67.4363 176.534 68.6602 176.659 69.8808 176.783H69.8841ZM65.8284 169.801C65.5692 171.1 65.2149 172.373 64.762 173.62C65.1624 172.114 63.292 170.404 65.8284 169.801ZM60.3783 166.244C58.2488 166.431 56.1225 166.615 53.9963 166.802C55.3744 164.383 57.668 166.946 56.7099 164.508C57.1364 164.662 60.48 165.489 60.3783 166.244ZM57.7467 172.744C55.3974 173.033 56.1356 170.093 56.4835 169.348C57.1331 170.723 62.7605 175.297 58.2684 175.08C59.0199 174.145 60.188 172.445 57.75 172.744H57.7467ZM59.7056 168.449C58.4325 168.058 57.7959 168.59 57.7992 170.047C54.8527 165.742 59.4005 168.275 59.7056 168.449ZM53.6189 165.286C53.1005 164.839 52.5788 164.393 52.0603 163.947C52.9069 163.376 57.4613 161.453 57.0839 164.157C53.3236 163.589 56.513 164.469 53.6189 165.286ZM56.4605 153.372C55.3514 154.802 55.6238 156.233 57.2808 157.657C56.07 157.772 50.633 153.611 56.4605 153.372ZM53.7961 159.809C53.0119 161.073 52.2277 162.336 51.4402 163.599C51.3516 163.084 52.1719 158.152 53.7961 159.809ZM50.4099 154.231C52.3753 153.368 53.2941 153.709 53.1727 155.258C49.7208 154.927 52.3688 158.323 49.2745 159.383C48.9005 157.319 51.7716 156.741 48.8972 154.966C50.2983 155.662 50.8036 155.419 50.4099 154.231ZM50.0194 156.541C49.4944 156.892 48.9661 157.243 48.4411 157.594C47.6142 154.517 46.5347 157.86 45.6717 154.664C47.122 155.291 48.5724 155.914 50.0227 156.541H50.0194ZM48.4674 163.34C47.9161 161.565 47.2106 161.581 46.3477 163.386C48.4674 158.179 49.5764 161.68 48.4674 163.34ZM45.7209 164.751C46.6364 164.6 47.5486 164.449 48.4641 164.298C48.5461 164.531 48.6281 164.767 48.7069 165C47.2533 166.739 46.2558 166.654 45.7209 164.751ZM46.7513 175.769C47.086 175.32 47.4174 174.87 47.752 174.421C48.2967 175.507 48.8381 176.593 49.3828 177.679C48.5067 177.042 47.6274 176.403 46.7513 175.766V175.769ZM50.5673 172.426C49.1302 170.956 46.4166 173.151 49.012 169.348C47.4797 165.883 50.4722 172.754 50.3902 170.644C49.5141 168.895 50.0949 168.091 52.1292 168.229C49.3008 172.386 53.9503 167.665 50.5673 172.422V172.426ZM52.0931 170.332C52.2867 168.738 54.7214 169.551 52.5 167.54H54.8166C55.0397 169.906 54.1308 170.838 52.0899 170.332H52.0931ZM55.0036 192.802C55.0627 194.013 55.1185 195.139 55.171 196.241C53.97 195.719 53.8716 194.115 55.0036 192.802ZM56.9658 176.084C56.3817 176.304 55.7747 176.38 55.1447 176.311C56.6409 174.604 56.0963 175.162 55.5942 173.246C57.1134 173.607 57.5728 174.555 56.9658 176.084ZM60.7327 196.71C59.1117 194.033 59.6105 194.43 57.4186 195.253V193.688C59.7188 193.58 60.165 195.339 62.0386 196.208C61.6022 196.376 61.1691 196.543 60.7327 196.71ZM60.841 182.834C61.3955 183.7 61.7761 184.639 61.9828 185.649C60.7983 185.652 59.7844 181.137 59.7253 180.721C60.7425 182.033 62.0747 181.21 62.4028 182.437C61.8811 182.568 61.3627 182.703 60.841 182.834ZM66.1664 176.344C65.0574 175.924 63.945 175.504 62.5735 174.988C64.3224 174.408 66.1139 175.248 66.1664 176.344ZM63.2986 177.433C63.5545 176.944 63.8072 176.455 64.0631 175.966C66.4584 179.316 63.5053 178.296 63.2986 177.433ZM64.2764 182.844C65.2017 181.617 64.2042 179.861 65.0147 179.513C65.1722 179.861 66.196 184.228 64.2764 182.844ZM67.3936 187.605C67.0031 185.498 65.3002 186.545 65.4281 184.383C66.2977 185.83 67.538 186.286 69.1524 185.751C68.565 186.368 67.981 186.988 67.3936 187.605ZM67.5084 183.684C67.3542 182.184 67.2263 180.944 67.072 179.454C69.8677 180.514 69.907 181.206 67.5084 183.684ZM71.1867 180.425C70.4977 180.294 69.8053 180.163 69.1163 180.032C71.8331 178.745 70.3205 179.549 69.8119 177.899C70.4977 178.135 71.0719 178.24 71.528 178.217C71.1113 178.467 70.9931 179.192 71.1867 180.422V180.425ZM71.6231 196.303C72.6239 192.747 71.8889 193.262 74.3466 192.96C74.468 193.915 72.1514 195.752 71.6231 196.303ZM76.7091 194.551C76.6795 193.777 77.4572 194.338 77.887 193.987C78.0544 194.167 78.248 194.354 78.4908 194.551H76.7091ZM77.9297 191.966C77.2997 192.366 77.1553 192.865 77.4867 193.459C76.3547 192.894 75.2194 192.33 74.0874 191.765C76.5614 191.765 78.7008 191.756 81.0994 192.379C80.3513 194.131 79.298 193.993 77.933 191.962L77.9297 191.966ZM80.8008 198.899C80.3414 198.351 79.8853 197.806 79.4259 197.258C82.1658 197.212 80.7056 199.142 83.6424 198.879C82.6941 199.713 81.7458 199.719 80.7975 198.896L80.8008 198.899ZM85.2075 186.348C83.7375 187.195 83.5078 187.982 81.4603 187.565C82.5727 187.001 86.6184 185.767 85.9458 184.314C86.8875 185.4 86.6414 186.079 85.2075 186.348ZM85.7128 196.723C85.7752 195.444 85.8408 194.167 85.9031 192.888C86.3231 194.197 86.7399 195.506 87.1599 196.815C86.6775 196.786 86.1952 196.756 85.7128 196.723ZM89.1877 189.196C88.6102 188.028 88.0294 186.857 87.4519 185.689C89.6667 184.517 89.3189 188.612 89.1877 189.196ZM86.123 168.219C87.6619 166.398 85.6702 165.574 84.6661 164.406C88.3477 162.91 85.2699 169.975 89.5027 166.021C90.2869 166.598 89.9325 167.232 88.4396 167.924C88.9285 167.793 89.4174 167.658 89.9063 167.527C89.2303 168.058 87.9605 168.613 86.1197 168.222L86.123 168.219ZM90.1589 184.389C90.51 186.765 91.4025 186.847 92.8397 184.629C92.6034 185.479 92.3672 186.325 92.131 187.175C89.437 187.113 88.7775 186.184 90.1589 184.389ZM92.4886 198.915C92.4459 199.45 91.0809 200.927 92.0391 196.041C93.24 196.212 93.3877 197.17 92.4886 198.915ZM95.258 183.694C94.5 183.054 93.742 182.414 92.9841 181.774C93.8799 181.594 95.3991 181.649 96.3047 181.774C95.9569 182.414 95.6091 183.054 95.258 183.694ZM97.7123 168.659C96.2555 169.069 96.2817 169.774 97.7714 170.779C97.1775 170.431 92.5608 168.209 97.7123 168.659ZM97.0495 189.219C99.5531 189.554 99.4317 189.472 97.0397 187.392C101.64 188.054 99.3005 190.118 97.0495 189.219ZM100.114 184.707C97.2267 184.471 96.2424 183.697 97.1545 182.381C99.901 182.506 100.889 183.283 100.114 184.707ZM99.0478 172.567C100.633 172.583 101.791 173.495 102.191 171.487C103.455 171.681 103.727 172.79 103.005 174.808C102.529 174.457 102.05 174.102 101.574 173.751C100.009 174.824 99.1692 174.431 99.0478 172.567ZM103.599 179.792C103.546 180.908 103.494 182.017 103.445 183.123C102.414 180.908 102.562 179.897 103.599 179.792ZM105.627 192.363C105.463 192.54 102.903 193.646 103.415 194.246C101.273 191.726 103.691 193.504 104.596 192.835C104.856 192.12 104.885 191.388 104.695 190.647C105.256 190.578 106.234 191.713 105.63 192.366L105.627 192.363ZM104.331 166.546C105.203 164.193 110.522 166.021 107.861 167.967C107.297 166.227 106.119 165.755 104.331 166.546ZM107.028 173.617C106.099 171.3 111.051 173.942 106.647 171.028C108.032 168.977 109.046 171.635 108.695 173.052C109.778 173.463 109.223 173.653 107.028 173.617ZM109.584 167.504H111.041C110.841 168.56 110.637 169.617 110.437 170.674C109.108 171.074 108.826 170.017 109.584 167.504ZM112.442 169.699C113.915 171.405 113.341 172.173 110.716 172.009C111.29 171.238 111.864 170.47 112.442 169.699ZM112.888 186.552C111.549 186.896 110.972 186.634 111.156 185.771C112.304 185.564 113.626 186.722 113.341 184.481C114.407 185.177 114.256 185.866 112.888 186.555V186.552ZM113.325 173.239C113.646 172.245 113.968 171.258 114.286 170.267C114.535 172.502 114.215 173.493 113.325 173.239ZM114.739 174.24C116.068 172.606 116.301 172.226 117.193 172.16C116.599 173.404 116.248 174.322 114.739 174.24ZM118.771 177.61C117.836 176.731 116.901 175.851 115.969 174.972C116.98 174.952 119.654 176.422 118.771 177.61ZM117.925 173.466C117.764 173.026 117.603 172.59 117.443 172.15C117.744 172.147 118.102 172.16 118.594 172.173C121.646 172.265 115.851 173.381 120.222 174.962C118.565 175.661 117.8 175.162 117.925 173.463V173.466ZM121.629 172.718C124.668 173.039 125.616 173.935 124.474 175.402C121.544 174.883 120.596 173.988 121.629 172.718ZM121.938 178.211C122.604 177.636 124.924 180.363 125.278 180.694C121.383 180.471 123.608 180.947 121.938 178.211ZM122.968 188.52C123.677 187.49 126.295 187.769 126.387 187.309C126.61 187.953 126.768 188.543 126.83 188.747C125.541 188.671 124.254 188.596 122.965 188.52H122.968ZM128.819 174.037C128.11 175.773 125.731 170.582 127.972 170.539C127.089 172.39 127.431 173.049 129.002 172.514C128.94 173.023 128.881 173.528 128.819 174.037ZM129.029 165.197C126.994 165.634 127.588 164.856 126.66 166.943C126.446 165.263 126.679 162.162 125.295 165.588C122.643 160.744 124.576 164.918 126.125 162.06C127.043 164.229 127.313 165.263 129.836 164.564C129.655 164.082 129.472 163.602 129.291 163.12C130.42 162.651 131.125 164.744 129.029 165.194V165.197ZM133.376 189.078C132.832 187.539 130.128 187.608 130.079 186.958C129.964 185.488 134.505 186.473 133.376 189.078ZM130.735 181.321C131.096 179.484 133.803 181.334 134.236 182.132C133.068 181.863 131.903 181.59 130.735 181.321ZM136.516 185.784C136.845 186.177 137.173 186.571 137.501 186.965C135.778 186.233 135.919 184.557 137.57 183.648C138.426 185.255 138.538 185.433 136.516 185.78V185.784ZM136.799 168.964C136.72 168.931 132.218 167.543 133.494 166.854C134.37 167.015 135.122 167.445 135.749 168.14C136.379 166.713 136.464 164.787 138.626 165.063C137.035 165.896 136.425 167.199 136.795 168.964H136.799ZM138.082 152.558C137.993 151.99 137.904 151.422 137.816 150.852C139.03 152.134 140.063 153.194 140.195 153.237C141.173 152.371 143.181 150.359 144.802 150.504C143.492 151.094 142.41 153.299 140.716 154.152C141.199 154.405 144.765 155.901 144.063 157.04C142.278 156.161 140.897 154.858 139.03 155.685C139.384 154.855 139.752 154.034 140.132 153.217C139.45 152.997 138.764 152.778 138.082 152.558ZM144.989 152.351C145.044 153.496 144.989 154.658 144.989 155.803C143.991 155.77 143.978 152.315 144.989 152.351ZM139.161 159.258C140.034 158.615 140.907 157.975 141.776 157.332C141.908 159.75 145.021 158.402 144.017 161.982C145.372 160.387 146.285 160.63 146.751 162.717C146.265 162.664 142.879 162.694 142.364 162.195C142.245 162.083 144.214 159.311 141.612 159.202C139.279 159.104 140.779 160.305 139.161 161.703V159.258ZM141.517 170.283C140.871 171.454 140.346 172.406 139.837 173.325C138.823 172.058 139.325 170.824 141.517 170.283ZM143.013 176.524C144.116 175.7 146.183 176.298 145.192 177.449C141.845 174.572 145.356 179.415 141.064 175.93C141.714 176.127 142.364 176.327 143.01 176.524H143.013ZM143.86 188.333C142.725 187.657 142.636 186.85 143.597 185.915C143.056 185.951 142.695 185.797 142.455 185.534C142.925 185.374 143.391 185.216 143.86 185.055C143.801 186.141 143.86 187.247 143.86 188.333ZM142.416 185.498C141.278 184.123 143.351 179.825 143.873 179.828C143.765 181.571 143.168 183.963 142.416 185.498ZM144.306 184.858C144.365 184.054 144.811 184.071 145.648 184.908C147.207 182.906 145.51 181.544 144.47 179.979C147.505 180.954 147 182.47 147.154 185.577C146.206 185.337 145.258 185.098 144.306 184.858ZM147.056 168.446C146.6 168.652 146.14 168.856 145.684 169.062C145.035 166.533 149.773 167.274 147.056 168.446ZM146.865 151.029C146.088 150.313 145.438 150.228 144.838 150.484C144.106 148.171 142.984 148.02 141.468 150.031C142.8 147.531 143.446 146.402 143.67 146.018C143.824 146.947 143.794 147.521 144.913 148.978C145.008 146.789 144.542 146.638 147.19 147.452C145.153 145.582 145.169 144.407 147.243 143.931C148.729 147.931 147.312 147.006 146.862 151.022L146.865 151.029ZM147.942 153.539C149.363 153.293 149.779 158.802 149.326 159.635C149.221 159.586 148.001 156.41 147.952 155.619C147.948 154.924 147.945 154.231 147.942 153.539ZM150.285 174.368C149.595 175.91 149.221 171.5 150.048 173.223C151.056 172.084 150.888 171.724 149.546 172.144C148.792 172.57 148.404 172.504 148.385 171.947C149.809 171.681 150.458 171.523 150.672 171.412C151.079 172.084 151.029 172.708 150.285 174.368ZM149.523 169.948C149.947 170.487 150.278 170.861 150.521 171.195C149.927 171.018 148.49 170.815 149.523 169.948ZM149.632 165.896C149.185 165.358 148.736 164.817 148.29 164.278C149.313 163.816 150.334 163.353 151.358 162.89C150.783 163.891 150.209 164.892 149.635 165.893L149.632 165.896ZM157.999 155.288C158.097 157.867 155.692 156.377 154.826 157.962C155.21 156.525 156.161 155.901 157.68 156.082C156.306 155.714 156.414 155.449 157.999 155.288ZM157.018 149.677C157.234 152.676 158.038 153.723 154.826 154.851C154.901 154.021 156.676 150.852 157.018 149.677ZM158.183 141.9C159.459 143.059 155.685 143.794 158.616 145.388C154.265 146.094 157.139 142.786 158.183 141.9ZM154.714 137.428C155.892 137.287 157.185 137.428 158.37 137.428C157.001 137.612 156.463 138.169 156.745 139.105C158.176 139.41 158.205 138.383 158.534 140.299C156.647 140.706 155.932 139.239 156.256 141.854C153.408 142.084 154.058 139.518 156.174 138.34C155.689 138.038 155.2 137.733 154.714 137.431V137.428ZM155.177 152.115C155.374 153.778 154.681 154.152 153.103 153.24C152.887 151.714 153.579 151.34 155.177 152.115ZM153.72 176.96C151.725 175.543 151.781 174.65 153.894 174.28C154.721 175.651 154.665 176.544 153.72 176.96ZM152.677 157.519C154.56 158.172 154.508 159.819 155.787 161.014C154.977 161.64 153.018 158.008 152.677 157.519ZM155.781 166.959C156.01 165.712 156.24 164.462 156.47 163.215C158.133 164.662 157.904 165.909 155.781 166.959ZM156.378 162.533C155.512 161.785 157.254 159.16 158.402 160.121C157.726 160.925 157.05 161.729 156.378 162.533Z" fill="#BE1E2D"/>
</g>
</g>
<path d="M9.75521 96.1858C5.08271 83.3332 14.1652 67.9704 19.0149 71.0547C23.8646 74.1391 26.9522 53.418 33.1243 59.1504C39.2963 64.8827 45.9113 47.246 49.4354 53.861C52.9627 60.4727 59.5744 52.5386 62.6621 60.033C65.7497 67.5274 60.9001 73.2597 55.6074 67.5274C50.318 61.7951 46.3477 73.2597 41.941 68.8497C37.531 64.4397 33.564 76.7871 30.0366 72.3771C26.5093 67.9671 24.7472 86.4865 20.3372 83.3988C15.9272 80.3112 13.2826 105.885 9.75521 96.1858Z" fill="#ED3B26"/>
<g style="mix-blend-mode:multiply" opacity="0.4">
<path d="M59.6991 189.413C59.6991 189.413 51.0825 186.109 46.2788 180.288C41.4717 174.467 56.8378 179.586 58.928 177.83C61.0214 176.075 63.0164 166.247 73.6509 173.295C84.2822 180.343 87.2484 158.497 91.3434 166.949C95.4384 175.402 105.551 154.694 111.323 161.742C117.095 168.79 128.297 151.242 131.408 158.143C134.518 165.043 139.821 151.767 141.041 156.856C142.262 161.945 129.245 185.429 113.827 186.132C98.408 186.834 88.6791 180.051 81.3291 182.48C73.9791 184.908 74.258 189.091 59.6991 189.413Z" fill="#D91D23"/>
</g>
<path d="M66.3917 126.836C75.6896 117.538 75.6896 102.463 66.3917 93.1654C57.0938 83.8675 42.019 83.8675 32.7211 93.1654C23.4232 102.463 23.4232 117.538 32.7211 126.836C42.019 136.134 57.0938 136.134 66.3917 126.836Z" fill="white"/>
<path d="M135.753 126.838C145.05 117.54 145.05 102.465 135.753 93.1669C126.455 83.869 111.38 83.869 102.082 93.1669C92.784 102.465 92.784 117.54 102.082 126.838C111.38 136.135 126.455 136.135 135.753 126.838Z" fill="white"/>
<mask id="mask3_114_3556" style="mask-type:luminance" maskUnits="userSpaceOnUse" x="25" y="86" width="49" height="48">
<path d="M66.3917 126.836C75.6896 117.538 75.6896 102.463 66.3917 93.1654C57.0938 83.8675 42.019 83.8675 32.7211 93.1654C23.4232 102.463 23.4232 117.538 32.7211 126.836C42.019 136.134 57.0938 136.134 66.3917 126.836Z" fill="white"/>
</mask>
<g mask="url(#mask3_114_3556)">
<path d="M49.5566 129.284C60.2068 129.284 68.8405 120.65 68.8405 110C68.8405 99.3498 60.2068 90.7161 49.5566 90.7161C38.9064 90.7161 30.2727 99.3498 30.2727 110C30.2727 120.65 38.9064 129.284 49.5566 129.284Z" fill="#414042"/>
</g>
<mask id="mask4_114_3556" style="mask-type:luminance" maskUnits="userSpaceOnUse" x="95" y="86" width="48" height="48">
<path d="M135.753 126.838C145.05 117.54 145.05 102.465 135.753 93.1669C126.455 83.869 111.38 83.869 102.082 93.1669C92.784 102.465 92.784 117.54 102.082 126.838C111.38 136.135 126.455 136.135 135.753 126.838Z" fill="white"/>
</mask>
<g mask="url(#mask4_114_3556)">
<path d="M118.919 129.284C129.569 129.284 138.203 120.65 138.203 110C138.203 99.3498 129.569 90.7161 118.919 90.7161C108.269 90.7161 99.635 99.3498 99.635 110C99.635 120.65 108.269 129.284 118.919 129.284Z" fill="#414042"/>
</g>
<path d="M91.7339 126.14C91.7339 130.186 88.3771 133.464 84.2395 133.464C80.1018 133.464 76.7451 130.186 76.7451 126.14" stroke="#414042" stroke-width="1.42" stroke-linecap="round" stroke-linejoin="round"/>
<path d="M104.823 195.096L104.166 234.573C104.121 236.21 105.436 237.562 107.074 237.562H121.331C123.162 237.562 123.844 235.16 122.289 234.199L115.707 230.123C113.531 228.778 112.209 226.402 112.209 223.846V194.358L104.819 195.096H104.823Z" fill="url(#paint1_linear_114_3556)"/>
<path d="M58.9738 195.975L58.3176 235.452C58.2716 237.089 59.5874 238.441 61.2248 238.441H75.4818C77.3127 238.441 77.9952 236.039 76.4399 235.078L69.8577 231.003C67.6823 229.657 66.3599 227.282 66.3599 224.726V195.237L58.9705 195.975H58.9738Z" fill="url(#paint2_linear_114_3556)"/>
<path d="M34.9519 181.144C34.3973 181.705 36.0642 200.448 36.0642 200.448C36.0642 200.448 92.9873 213.661 134.964 197.357C134.754 189.485 134.754 179.083 134.754 179.083C124.123 182.178 105.876 186.407 82.4906 186.581C61.8548 186.735 45.3239 183.671 34.9519 181.147V181.144Z" fill="url(#paint3_linear_114_3556)"/>
<path d="M36.0183 197.298C36.0183 197.298 41.2552 193.852 45.0352 197.124C48.8152 200.395 54.331 196.956 59.5449 199.699C64.7588 202.443 70.1138 196.559 76.1152 200.444C82.1166 204.329 83.0485 196.848 90.2114 200.008C97.3744 203.168 97.7616 195.303 104.652 198.269C111.543 201.235 112.248 192.625 118.305 195.385C124.363 198.144 127.995 193.833 127.995 193.833C130.171 191.339 134.656 194.223 134.656 194.223" stroke="white" stroke-width="0.71" stroke-miterlimit="10" stroke-linecap="round"/>
<path d="M23.6775 165.991C17.2627 174.139 16.5507 185.308 21.8039 193.767C26.3714 201.12 34.8043 205.383 43.6932 204.907C47.1516 204.507 43.3093 202.239 41.603 202.088C49.8652 202.557 47.8669 199.677 42.3708 199.155C50.5214 197.636 47.5125 195.988 41.37 195.982C42.6464 194.007 43.4274 192.1 42.8236 191.549C42.315 191.083 40.9829 192.336 39.0929 192.894C35.3883 193.987 30.1252 192.264 28.8586 189.364C24.7439 184.074 30.6207 172.317 30.6207 172.317C30.6207 172.317 27.6183 168.629 23.6743 165.998L23.6775 165.991Z" fill="#ED1C24"/>
<path opacity="0.5" d="M65.1755 143.213C65.1755 145.647 58.1831 147.623 49.5567 147.623C40.9303 147.623 33.938 145.647 33.938 143.213C33.938 140.778 40.9303 138.803 49.5567 138.803C58.1831 138.803 65.1755 140.778 65.1755 143.213Z" fill="#F081B2"/>
<path opacity="0.5" d="M134.541 143.213C134.541 145.647 127.549 147.623 118.922 147.623C110.296 147.623 103.303 145.647 103.303 143.213C103.303 140.778 110.296 138.803 118.922 138.803C127.549 138.803 134.541 140.778 134.541 143.213Z" fill="#F081B2"/>
<defs>
<linearGradient id="paint0_linear_114_3556" x1="132.533" y1="165.007" x2="179.192" y2="165.007" gradientUnits="userSpaceOnUse">
<stop stop-color="#BE1B1F"/>
<stop offset="0.17" stop-color="#D01B20"/>
<stop offset="0.41" stop-color="#E01B22"/>
<stop offset="0.66" stop-color="#E91B23"/>
<stop offset="1" stop-color="#ED1C24"/>
</linearGradient>
<linearGradient id="paint1_linear_114_3556" x1="115.254" y1="200.28" x2="112.094" y2="238.205" gradientUnits="userSpaceOnUse">
<stop stop-color="#BE1B1F"/>
<stop offset="0.17" stop-color="#D01B20"/>
<stop offset="0.41" stop-color="#E01B22"/>
<stop offset="0.66" stop-color="#E91B23"/>
<stop offset="1" stop-color="#ED1C24"/>
</linearGradient>
<linearGradient id="paint2_linear_114_3556" x1="69.4016" y1="201.16" x2="66.2418" y2="239.084" gradientUnits="userSpaceOnUse">
<stop stop-color="#BE1B1F"/>
<stop offset="0.17" stop-color="#D01B20"/>
<stop offset="0.41" stop-color="#E01B22"/>
<stop offset="0.66" stop-color="#E91B23"/>
<stop offset="1" stop-color="#ED1C24"/>
</linearGradient>
<linearGradient id="paint3_linear_114_3556" x1="34.837" y1="192.294" x2="134.964" y2="192.294" gradientUnits="userSpaceOnUse">
<stop stop-color="#F58B3E"/>
<stop offset="0.19" stop-color="#F58E3E"/>
<stop offset="0.34" stop-color="#F5973E"/>
<stop offset="0.47" stop-color="#F5A83E"/>
<stop offset="0.6" stop-color="#F5BE3E"/>
<stop offset="0.64" stop-color="#F5CA3E"/>
<stop offset="0.74" stop-color="#F5BE3E"/>
<stop offset="0.9" stop-color="#F5A03E"/>
<stop offset="1" stop-color="#F58B3E"/>
</linearGradient>
</defs>
</svg>
