<svg width="38" height="52" viewBox="0 0 38 52" fill="none" xmlns="http://www.w3.org/2000/svg">
<g clip-path="url(#clip0_364_1357)">
<path d="M0.0620003 2.93751V49.0625C0.0634537 49.5295 0.19141 49.9873 0.432095 50.3865C0.672779 50.7857 1.01707 51.1113 1.42793 51.3283C1.83878 51.5452 2.30063 51.6452 2.76376 51.6176C3.22689 51.59 3.67377 51.4357 4.05629 51.1714L37.1511 28.1089C38.5232 27.1531 38.5232 24.852 37.1511 23.8936L4.05629 0.83113C3.67456 0.564181 3.22747 0.407637 2.76357 0.378504C2.29966 0.349371 1.8367 0.448764 1.42498 0.665885C1.01325 0.883006 0.668514 1.20955 0.428219 1.61004C0.187927 2.01053 0.0612679 2.46964 0.0620003 2.93751Z" fill="#006838"/>
</g>
<defs>
<clipPath id="clip0_364_1357">
<rect width="51" height="38" fill="white" transform="matrix(0 1 -1 0 38 0.5)"/>
</clipPath>
</defs>
</svg>
