<svg width="16" height="16" viewBox="0 0 16 16" fill="none" xmlns="http://www.w3.org/2000/svg">
<path d="M13.2869 11.8518C13.2882 11.9776 13.2558 12.1421 13.222 12.2776C12.986 13.231 11.938 14.3007 10.4629 14.2034C9.126 14.1154 8.03711 13.4736 8.03711 12.5736C8.03711 11.6736 9.12333 10.9438 10.4629 10.9438C11.8024 10.9438 13.2784 10.9518 13.2869 11.8518Z" fill="#EA596E"/>
<path d="M10.463 11.0952C9.74344 11.0952 8.10122 11.2943 7.72433 11.2943C7.05855 11.2943 6.51855 11.7121 6.51855 12.2277C6.51855 12.4757 6.64567 12.6997 6.84922 12.8668C6.84922 12.8668 7.29633 13.3152 8.10167 13.1001C8.45411 13.0059 9.02744 12.3063 10.0368 12.1952C10.5394 12.1397 11.4812 12.5285 13.1363 12.5379C13.2074 12.385 13.2221 12.2788 13.2221 12.2788C13.2221 11.3779 11.8026 11.0952 10.463 11.0952Z" fill="#DD2E44"/>
<path d="M13.2224 12.2778C13.2224 12.2778 14.1931 12.0809 14.7967 11.2871C15.5002 10.3614 15.4078 9.37069 15.4078 9.37069C16.1207 8.03735 15.1856 6.78713 15.1856 6.78713C15.0927 5.37957 14.2224 4.79646 14.2224 4.79646C13.6576 3.4538 12.4078 3.09291 12.4078 3.09291C11.4264 1.94491 9.68555 1.9818 9.68555 1.9818C9.68555 1.9818 8.05444 1.38402 5.81533 2.05602C5.44511 2.16713 4.20422 2.42624 3.29666 2.9818C0.436219 4.73291 0.219775 7.46357 0.259775 7.90757C0.481553 10.3889 2.22244 10.8334 3.33355 11.0925C3.59266 11.796 4.54644 13.0925 6.25933 12.6111C8.37044 12.2409 9.25933 11.6111 9.778 11.6111C10.2967 11.6111 11.7411 12.1667 13.2224 12.2778Z" fill="#F4ABBA"/>
<path d="M7.88294 8.2879C8.91761 7.73012 9.4785 7.78212 9.97361 7.82701C10.1309 7.84123 10.2798 7.85234 10.4305 7.85146C11.3123 7.83146 12.0265 7.4599 12.3425 7.10034C12.3787 7.05567 12.3963 6.9987 12.3914 6.94137C12.3866 6.88405 12.3598 6.83082 12.3166 6.79285C12.2734 6.75487 12.2171 6.73508 12.1597 6.73764C12.1022 6.7402 12.0479 6.7649 12.0083 6.80657C11.7647 7.0839 11.1643 7.39012 10.4203 7.40701C10.2869 7.41101 10.1532 7.39768 10.0145 7.38479C9.48339 7.33545 8.82383 7.27501 7.67183 7.89679C7.37628 8.05634 6.97094 8.11546 6.53183 8.1599C5.55539 6.75057 6.14294 5.52301 6.31094 5.23057C6.32739 5.23146 6.34339 5.23679 6.36028 5.23679C6.53805 5.23679 6.71672 5.19323 6.8785 5.10168C6.92778 5.07167 6.96346 5.02368 6.978 4.96784C6.99253 4.912 6.98477 4.8527 6.95637 4.80247C6.92797 4.75225 6.88115 4.71504 6.8258 4.69872C6.77046 4.6824 6.71094 4.68824 6.65983 4.71501C6.52001 4.79198 6.3563 4.81336 6.2014 4.77489C6.0465 4.73641 5.91183 4.6409 5.82428 4.50746C5.79122 4.46085 5.7415 4.42877 5.68541 4.41787C5.62933 4.40696 5.5712 4.41808 5.5231 4.44891C5.475 4.47974 5.44062 4.52791 5.4271 4.58342C5.41358 4.63893 5.42196 4.69752 5.4505 4.74701C5.55583 4.9119 5.70428 5.0359 5.87183 5.11901C5.64028 5.58923 5.20072 6.82568 6.03716 8.20834C5.44872 8.26612 4.85939 8.34923 4.39805 8.64657C4.0738 8.85902 3.79097 9.12875 3.56339 9.44257C3.28383 9.39457 2.26028 9.14257 2.08161 8.00657C2.19272 7.92034 2.2825 7.80657 2.33805 7.66612C2.34879 7.63898 2.35408 7.60999 2.35362 7.58081C2.35315 7.55163 2.34694 7.52282 2.33535 7.49603C2.32375 7.46925 2.30699 7.44501 2.28603 7.4247C2.26506 7.4044 2.2403 7.38842 2.21316 7.37768C2.18602 7.36694 2.15704 7.36165 2.12785 7.36211C2.09867 7.36258 2.06986 7.36879 2.04308 7.38038C2.01629 7.39198 1.99205 7.40874 1.97175 7.4297C1.95144 7.45067 1.93546 7.47543 1.92472 7.50257C1.90791 7.54928 1.88117 7.5918 1.84633 7.62717C1.81149 7.66254 1.7694 7.68994 1.72294 7.70746C1.67587 7.7231 1.62598 7.72842 1.57666 7.72305C1.52735 7.71768 1.47977 7.70175 1.43716 7.67634C1.41166 7.66216 1.38361 7.65314 1.35462 7.6498C1.32563 7.64646 1.29626 7.64886 1.2682 7.65686C1.21152 7.67303 1.16359 7.71106 1.13494 7.76257C1.1063 7.81408 1.09929 7.87486 1.11546 7.93153C1.13163 7.98821 1.16965 8.03615 1.22116 8.06479C1.34739 8.13501 1.4825 8.17057 1.61672 8.17057C1.63316 8.17057 1.64872 8.16301 1.66516 8.16212C1.87672 9.23457 2.72428 9.70568 3.32383 9.84834C3.24533 10.0154 3.19559 10.1945 3.17672 10.3781C3.17154 10.4368 3.18989 10.4952 3.22773 10.5403C3.26557 10.5855 3.3198 10.6138 3.3785 10.619L3.3985 10.6199C3.45404 10.6199 3.50758 10.5991 3.54854 10.5616C3.58951 10.5241 3.61494 10.4726 3.61983 10.4172C3.66783 9.87812 4.18205 9.31501 4.63894 9.01946C5.06739 8.74346 5.6945 8.68523 6.30161 8.62879C6.8905 8.57501 7.44694 8.52346 7.88294 8.2879ZM13.6012 7.61945C13.5729 7.6712 13.5663 7.73207 13.5829 7.78866C13.5995 7.84526 13.6379 7.89294 13.6896 7.92123C13.7414 7.94952 13.8022 7.9561 13.8588 7.93951C13.9154 7.92292 13.9631 7.88454 13.9914 7.83279C13.9998 7.81768 14.8101 6.2999 13.2932 5.2799C13.2442 5.24701 13.1843 5.23491 13.1264 5.24624C13.0686 5.25758 13.0176 5.29143 12.9847 5.34034C12.9518 5.38926 12.9397 5.44924 12.9511 5.50708C12.9624 5.56493 12.9962 5.6159 13.0452 5.64879C14.2203 6.43901 13.6269 7.57146 13.6012 7.61945ZM4.38916 4.03101C4.42444 4.03113 4.45923 4.0228 4.49062 4.00671C4.52201 3.99063 4.5491 3.96726 4.56961 3.93857C5.21405 3.04212 6.1065 3.34879 6.14428 3.36301C6.19901 3.38108 6.25863 3.37717 6.31054 3.35211C6.36245 3.32705 6.40259 3.2828 6.42249 3.2287C6.44239 3.1746 6.44049 3.11488 6.41719 3.06216C6.39388 3.00943 6.35101 2.96783 6.29761 2.94612C5.87094 2.7879 4.88561 2.73812 4.20872 3.67946C4.18496 3.71265 4.1708 3.75176 4.16781 3.79247C4.16481 3.83319 4.17308 3.87394 4.19173 3.91026C4.21037 3.94658 4.23866 3.97707 4.27349 3.99837C4.30832 4.01967 4.34834 4.03096 4.38916 4.03101ZM10.1989 3.1919C11.1878 3.11146 11.6376 3.82834 11.6581 3.86212C11.6879 3.91298 11.7368 3.94989 11.7939 3.96473C11.8222 3.97208 11.8516 3.97378 11.8805 3.96975C11.9095 3.96572 11.9373 3.95603 11.9625 3.94123C11.9877 3.92644 12.0097 3.90683 12.0273 3.88352C12.0449 3.86021 12.0578 3.83367 12.0651 3.80539C12.0725 3.77712 12.0742 3.74768 12.0701 3.71875C12.0661 3.68982 12.0564 3.66197 12.0416 3.63679C12.0176 3.59634 11.4461 2.65101 10.1643 2.74879C10.1352 2.75106 10.1068 2.75905 10.0808 2.77229C10.0548 2.78552 10.0317 2.80375 10.0127 2.82594C9.97439 2.87074 9.95546 2.92892 9.96005 2.98768C9.96465 3.04644 9.9924 3.10096 10.0372 3.13926C10.082 3.17756 10.1402 3.1965 10.1989 3.1919ZM14.2656 9.68568C14.1563 9.67946 14.0358 9.76612 14.0261 9.88879C14.0252 9.89679 13.9545 10.6528 13.1772 10.9083C13.1263 10.9243 13.083 10.958 13.055 11.0034C13.027 11.0487 13.0162 11.1026 13.0247 11.1552C13.0332 11.2078 13.0603 11.2556 13.1011 11.2898C13.1419 11.3241 13.1937 11.3425 13.2469 11.3417C13.2705 11.3417 13.2939 11.3379 13.3163 11.3306C14.3705 10.9848 14.4656 9.96879 14.4692 9.92568C14.4738 9.86689 14.4551 9.80865 14.4169 9.76368C14.3788 9.7187 14.3244 9.69066 14.2656 9.68568Z" fill="#EA596E"/>
<path d="M3.26493 7.52628C3.25619 7.5548 3.25328 7.58478 3.25637 7.61444C3.25946 7.64411 3.26849 7.67284 3.28292 7.69895C3.29735 7.72504 3.31689 7.74797 3.34037 7.76636C3.36385 7.78475 3.39079 7.79823 3.41958 7.80599C3.44838 7.81375 3.47845 7.81563 3.50799 7.81152C3.53753 7.80742 3.56594 7.79741 3.59153 7.78209C3.61712 7.76678 3.63936 7.74646 3.65694 7.72237C3.67451 7.69827 3.68706 7.67089 3.69382 7.64184C3.73661 7.48785 3.83612 7.35577 3.97233 7.27216C4.10855 7.18855 4.27136 7.15962 4.42804 7.19117C4.45661 7.19716 4.48608 7.19745 4.51477 7.19205C4.54345 7.18664 4.57079 7.17564 4.59522 7.15967C4.61965 7.14369 4.6407 7.12307 4.65716 7.09896C4.67362 7.07486 4.68517 7.04774 4.69116 7.01917C4.69714 6.9906 4.69744 6.96114 4.69203 6.93245C4.68662 6.90377 4.67562 6.87643 4.65965 6.852C4.64368 6.82756 4.62305 6.80652 4.59894 6.79006C4.57484 6.7736 4.54773 6.76205 4.51916 6.75606C4.3342 6.71854 4.14255 6.73175 3.96449 6.79428C3.44627 5.90806 3.54716 5.03428 3.54849 5.02495C3.55608 4.96659 3.5403 4.90759 3.50459 4.8608C3.46888 4.81402 3.41612 4.78324 3.35782 4.77517C3.29961 4.76769 3.24079 4.78339 3.19406 4.8189C3.14733 4.8544 3.11643 4.90686 3.10804 4.96495C3.10227 5.00806 2.9836 5.99428 3.58049 7.01562C3.42812 7.15173 3.3185 7.32912 3.26493 7.52628ZM8.23338 6.42851C8.3221 6.34778 8.43808 6.3036 8.55802 6.30484C8.67797 6.30607 8.79301 6.35264 8.88005 6.43517C8.92247 6.47597 8.97931 6.49835 9.03816 6.49744C9.09702 6.49652 9.15313 6.47239 9.19427 6.43028C9.23534 6.38803 9.25795 6.33118 9.25712 6.27225C9.25628 6.21333 9.23208 6.15714 9.18982 6.11606C9.08943 6.02056 8.96814 5.94979 8.8356 5.9094C8.96716 5.45784 8.91516 5.2574 8.79293 4.88184C8.76874 4.80836 8.74548 4.73458 8.72316 4.66051L8.70982 4.61606C8.54804 4.07917 8.44093 3.72495 8.74849 3.22495C8.77937 3.17474 8.78904 3.11431 8.77537 3.05697C8.7617 2.99962 8.72581 2.95006 8.6756 2.91917C8.62539 2.88829 8.56496 2.87862 8.50762 2.89229C8.45027 2.90596 8.40071 2.94185 8.36982 2.99206C7.95738 3.66228 8.10893 4.16406 8.28449 4.74495L8.29782 4.7894C8.32404 4.87562 8.34804 4.95117 8.37027 5.01917C8.48004 5.3574 8.51338 5.47073 8.37916 5.87962C8.2113 5.91016 8.0556 5.98785 7.93027 6.10362C7.88872 6.14418 7.8647 6.19939 7.86335 6.25744C7.86199 6.31549 7.88341 6.37176 7.92302 6.41422C7.96263 6.45667 8.01729 6.48194 8.07529 6.48461C8.13329 6.48728 8.19003 6.46714 8.23338 6.42851ZM11.0623 5.10184C11.1943 5.10224 11.3247 5.07324 11.444 5.01695C11.4974 4.99184 11.5386 4.94658 11.5585 4.89111C11.5785 4.83564 11.5756 4.77451 11.5505 4.72117C11.5254 4.66784 11.4801 4.62666 11.4246 4.60669C11.3692 4.58673 11.308 4.58962 11.2547 4.61473C11.1455 4.66464 11.0214 4.67145 10.9073 4.63379C10.7933 4.59613 10.6976 4.51678 10.6396 4.41162C10.6264 4.38492 10.608 4.36114 10.5854 4.34171C10.5628 4.32228 10.5365 4.30758 10.5082 4.2985C10.4798 4.28942 10.4499 4.28613 10.4202 4.28884C10.3905 4.29155 10.3617 4.30019 10.3355 4.31426C10.3092 4.32833 10.286 4.34754 10.2674 4.37074C10.2487 4.39393 10.2348 4.42065 10.2267 4.44931C10.2185 4.47796 10.2162 4.50796 10.2199 4.53752C10.2236 4.56708 10.2331 4.59561 10.248 4.6214C10.328 4.77073 10.4472 4.88851 10.5858 4.97028C10.3472 5.55028 10.4827 6.16628 10.5934 6.49295C10.6018 6.52162 10.616 6.54828 10.635 6.57135C10.654 6.59442 10.6775 6.61341 10.704 6.6272C10.7305 6.64099 10.7596 6.64928 10.7894 6.65159C10.8192 6.65389 10.8491 6.65016 10.8774 6.64062C10.9058 6.63108 10.9319 6.61592 10.9542 6.59605C10.9765 6.57619 10.9946 6.55202 11.0074 6.525C11.0202 6.49797 11.0274 6.46865 11.0286 6.43878C11.0297 6.40892 11.0249 6.37912 11.0143 6.35117C10.9396 6.12984 10.7947 5.57073 11.0134 5.09517C11.0303 5.09606 11.0458 5.10184 11.0623 5.10184ZM13.1943 9.29251C13.1926 9.26332 13.1851 9.23476 13.1723 9.20849C13.1595 9.18221 13.1416 9.15874 13.1196 9.13943C13.0977 9.12012 13.0721 9.10537 13.0444 9.09601C13.0167 9.08666 12.9874 9.0829 12.9583 9.08495C12.8517 9.09231 12.7447 9.07856 12.6435 9.04446C12.5423 9.01037 12.4488 8.95662 12.3683 8.88629C12.2879 8.81596 12.2222 8.73044 12.175 8.63465C12.1277 8.53885 12.0998 8.43466 12.0929 8.32806C12.0879 8.26963 12.0604 8.21541 12.0163 8.17686C11.9721 8.1383 11.9146 8.11842 11.856 8.1214C11.7973 8.12561 11.7426 8.15288 11.7039 8.19726C11.6652 8.24164 11.6456 8.29952 11.6494 8.35828C11.6676 8.62051 11.7676 8.85695 11.9196 9.0494C11.5623 9.46984 11.0943 9.5894 10.8334 9.62006C10.6027 9.64762 10.4009 9.62406 10.1676 9.59651C9.95382 9.57206 9.71204 9.54406 9.41293 9.55295L9.41071 9.5534C9.40182 9.42629 9.3716 9.24095 9.27516 9.08673C9.242 9.04106 9.19274 9.00968 9.13733 8.99895C9.08193 8.98821 9.02451 8.99891 8.9767 9.02889C8.92888 9.05887 8.89423 9.10588 8.87975 9.16043C8.86528 9.21498 8.87205 9.27299 8.89871 9.32273C8.95827 9.41828 8.96938 9.57073 8.96938 9.64495C8.74538 9.7254 8.5516 9.84362 8.37649 9.95784C8.0636 10.1614 7.81693 10.3223 7.44582 10.2387C7.10982 10.1618 6.77338 10.1463 6.48804 10.1863C6.4436 10.0747 6.37338 9.9414 6.26493 9.83873C6.22209 9.79824 6.16491 9.77643 6.10598 9.7781C6.04705 9.77976 5.9912 9.80477 5.95071 9.84762C5.91022 9.89047 5.88841 9.94764 5.89008 10.0066C5.89175 10.0655 5.91675 10.1214 5.9596 10.1618C5.99782 10.1978 6.02804 10.2503 6.05249 10.3027C5.56227 10.5045 5.31649 10.8418 5.30493 10.8583C5.28136 10.8915 5.26737 10.9305 5.2645 10.9711C5.26164 11.0117 5.27 11.0523 5.28868 11.0885C5.30736 11.1247 5.33564 11.155 5.37041 11.1762C5.40519 11.1973 5.44511 11.2085 5.48582 11.2085C5.52095 11.2086 5.5556 11.2004 5.58696 11.1846C5.61831 11.1687 5.64549 11.1457 5.66627 11.1174C5.66849 11.1138 5.91249 10.7872 6.39382 10.6552C6.64271 10.5867 6.9996 10.5925 7.3476 10.6716C7.44493 10.6938 7.53516 10.7014 7.62271 10.7027C7.66404 10.7996 7.68004 10.9147 7.68227 10.9574C7.68555 11.014 7.71033 11.0673 7.75155 11.1063C7.79277 11.1453 7.84731 11.167 7.90404 11.1672L7.91604 11.1667C7.97469 11.1636 8.02972 11.1374 8.06911 11.0939C8.1085 11.0503 8.12905 10.9929 8.12627 10.9343C8.11885 10.8308 8.09946 10.7285 8.06849 10.6294C8.27338 10.5552 8.4516 10.4392 8.61916 10.3303C8.87338 10.1645 9.11382 10.0076 9.42805 9.9974C9.69116 9.98806 9.90804 10.0134 10.1174 10.0378C10.328 10.0623 10.5352 10.0783 10.7636 10.065C10.804 10.1774 10.8009 10.3276 10.7947 10.3778C10.791 10.4091 10.7939 10.4409 10.8032 10.471C10.8126 10.5011 10.8282 10.5288 10.8491 10.5525C10.8699 10.5761 10.8956 10.595 10.9243 10.6081C10.953 10.6211 10.9841 10.6279 11.0156 10.6281C11.0695 10.628 11.1215 10.6083 11.162 10.5728C11.2024 10.5372 11.2286 10.4881 11.2356 10.4347C11.2519 10.289 11.243 10.1415 11.2094 9.99873C11.6149 9.89114 11.9782 9.6632 12.2516 9.34495C12.4719 9.48105 12.7292 9.5452 12.9876 9.52851C13.0167 9.52659 13.0451 9.51896 13.0712 9.50606C13.0973 9.49316 13.1206 9.47524 13.1398 9.45332C13.159 9.43141 13.1737 9.40592 13.183 9.37833C13.1924 9.35074 13.1962 9.32157 13.1943 9.29251Z" fill="#EA596E"/>
</svg>
