<svg width="250" height="227" viewBox="0 0 250 227" fill="none" xmlns="http://www.w3.org/2000/svg">
<path d="M117.782 24.6586C118.759 18.7967 123.801 14.7321 129.041 15.5801C134.282 16.4281 137.738 21.8676 136.76 27.7295L135.372 36.0483L139.322 28.7981C142.132 23.6412 148.082 21.8226 152.613 24.736C157.144 27.6494 158.539 34.1916 155.73 39.3484L142.164 64.2478C139.355 69.4047 133.404 71.2233 128.874 68.3099C127.423 67.3771 126.294 66.0724 125.521 64.5602C124.039 65.1613 122.419 65.3769 120.779 65.1116C119.435 64.8942 118.209 64.3749 117.144 63.6241C115.717 66.445 113.203 68.5851 110.149 69.212C104.872 70.2949 99.9784 66.4523 99.2182 60.6292L95.5478 32.513C94.7876 26.6899 98.4489 21.0915 103.726 20.0086C109.002 18.9256 113.896 22.7682 114.656 28.5913L115.74 36.8955L117.782 24.6586Z" fill="#FFF161"/>
<path d="M215 139.125C215 186.86 172.962 217 125 217C77.0384 217 35 186.86 35 139.125C35 91.3895 77.0384 39 125 39C172.962 39 215 91.3895 215 139.125Z" fill="#FFF161"/>
<path d="M91.7431 148.686C91.026 148.256 90.9578 147.242 91.6108 146.72L122.773 121.79C124.115 120.717 126.027 120.741 127.341 121.847L156.903 146.741C157.524 147.264 157.458 148.24 156.771 148.674L126.955 167.505C125.806 168.231 124.346 168.247 123.18 167.548L91.7431 148.686Z" fill="#FFA046"/>
<ellipse cx="113.811" cy="146.055" rx="2.65718" ry="3.48178" fill="#CF7520"/>
<ellipse cx="134.611" cy="146.055" rx="2.65718" ry="3.48178" fill="#CF7520"/>
<circle cx="14.2105" cy="14.2105" r="14.2105" transform="matrix(-1 0 0 1 98.1577 111.483)" fill="#3A3A3A"/>
<ellipse cx="4.26316" cy="4.97368" rx="4.26316" ry="4.97368" transform="matrix(-1 0 0 1 93.894 115.746)" fill="white"/>
<circle cx="2.13158" cy="2.13158" r="2.13158" transform="matrix(-1 0 0 1 85.3687 125.692)" fill="white"/>
<path d="M74.4031 104.239C82.0179 100.332 86.1508 100.728 93.3245 105.23" stroke="#3A3A3A" stroke-width="0.75" stroke-linecap="round"/>
<circle cx="14.2105" cy="14.2105" r="14.2105" transform="matrix(-1 0 0 1 180.264 111.483)" fill="#3A3A3A"/>
<ellipse cx="4.26316" cy="4.97368" rx="4.26316" ry="4.97368" transform="matrix(-1 0 0 1 176 115.746)" fill="white"/>
<circle cx="2.13158" cy="2.13158" r="2.13158" transform="matrix(-1 0 0 1 167.475 125.692)" fill="white"/>
<path d="M177.245 104.239C169.63 100.332 165.497 100.728 158.323 105.23" stroke="#3A3A3A" stroke-width="0.75" stroke-linecap="round"/>
</svg>
