<svg width="41" height="91" viewBox="0 0 41 91" fill="none" xmlns="http://www.w3.org/2000/svg">
<path d="M5.01595 8.23182C0.531747 47.9265 -11.4017 62.3994 -11.4017 62.3994L-9.17293 63.7151C1.75422 50.4181 7.29805 28.5347 10.0986 9.11528C8.39778 8.83919 6.72213 8.55134 5.0345 8.23846L5.01595 8.23182Z" fill="#7D6D5F"/>
<path d="M-20.4111 92.9224C-17.8123 92.1499 -15.1461 93.0617 -13.342 95.0972C-10.1787 98.6564 -4.2062 102.494 5.19111 97.2205C20.1335 88.8457 25.7718 66.5809 13.2899 58.0089C6.35141 53.2452 1.45415 54.7108 -2.73284 55.8286C-4.81048 56.3724 -6.95297 55.7516 -8.39848 54.1763C-11.3134 50.9758 -14.651 47.0845 -23.0744 47.3516C-38.1829 47.8225 -45.4311 69.6154 -37.3649 84.7436C-32.2322 94.3819 -24.9948 94.2719 -20.4296 92.9158L-20.4111 92.9224Z" fill="#D44163"/>
<g style="mix-blend-mode:multiply" opacity="0.1">
<path d="M13.3084 58.0152C11.8642 57.0215 10.4895 56.3017 9.20398 55.8005C9.65108 56.1886 10.1113 56.54 10.5758 56.9966C21.3436 67.6121 11.8397 88.5155 -4.35745 94.1381C-7.91786 95.3761 -10.8543 95.5713 -13.281 95.1602C-10.1111 98.701 -4.13084 102.458 5.19107 97.2202C20.1334 88.8453 25.7717 66.5806 13.2899 58.0085L13.3084 58.0152Z" fill="black"/>
</g>
</svg>
