<svg width="68" height="68" viewBox="0 0 68 68" fill="none" xmlns="http://www.w3.org/2000/svg">
<g clip-path="url(#clip0_137_6516)">
<mask id="mask0_137_6516" style="mask-type:luminance" maskUnits="userSpaceOnUse" x="0" y="0" width="68" height="68">
<path d="M0 0H68V68H0V0Z" fill="white"/>
</mask>
<g mask="url(#mask0_137_6516)">
<path d="M51.557 47.7018L51.2297 27.748C51.0172 25.8525 49.9802 23.3089 46.4294 23.3089C42.2856 23.5065 42.1241 27.748 42.1241 27.748L35.8129 16.4728C34.234 14.0715 31.6457 13.9058 30.0265 14.8939C28.4051 15.882 28.0524 17.8859 28.0524 17.8859L26.7391 16.1753C25.7489 14.556 22.7909 14.369 21.2821 15.2892C18.7767 16.817 18.4134 19.9833 20.0326 21.7322C19.9264 21.6174 18.6896 21.1882 16.6135 22.4547C14.9942 23.4428 14.4927 26.3987 15.398 28.0753C16.3011 29.754 16.4329 30.0154 16.4329 30.0154C16.4329 30.0154 15.0367 29.3567 12.8331 30.8378C11.2585 31.896 10.6932 35.0368 11.6835 36.656L16.9875 45.6002L24.2869 57.5278C28.5794 63.6117 37.7296 65.7112 44.3787 61.6715C48.9135 58.9175 51.9884 53.0993 51.557 47.7018Z" fill="#FF9D25"/>
<path d="M51.557 47.7018L51.2297 27.748C51.0172 25.8525 49.9802 23.3089 46.4294 23.3089C42.2856 23.5065 42.1241 27.748 42.1241 27.748L35.8129 16.4728C34.234 14.0715 31.6457 13.9058 30.0265 14.8939C28.4051 15.882 28.0524 17.8859 28.0524 17.8859L26.7391 16.1753C25.7489 14.556 22.7909 14.369 21.2821 15.2892C18.7767 16.817 18.4134 19.9833 20.0326 21.7322C19.9264 21.6174 18.6896 21.1882 16.6135 22.4547C14.9942 23.4428 14.4927 26.3987 15.398 28.0753C16.3011 29.754 16.4329 30.0154 16.4329 30.0154C16.4329 30.0154 15.0367 29.3567 12.8331 30.8378C11.2585 31.896 10.6932 35.0368 11.6835 36.656L16.9875 45.6002L24.2869 57.5278C28.5794 63.6117 37.7296 65.7112 44.3787 61.6715C48.9135 58.9175 51.9884 53.0993 51.557 47.7018Z" fill="url(#paint0_linear_137_6516)"/>
<path d="M51.557 47.7018L51.2297 27.748C51.0172 25.8525 49.9802 23.3089 46.4294 23.3089C42.2856 23.5065 42.1241 27.748 42.1241 27.748L35.8129 16.4728C34.234 14.0715 31.6457 13.9058 30.0265 14.8939C28.4051 15.882 28.0524 17.8859 28.0524 17.8859L26.7391 16.1753C25.7489 14.556 22.7909 14.369 21.2821 15.2892C18.7767 16.817 18.4134 19.9833 20.0326 21.7322C19.9264 21.6174 18.6896 21.1882 16.6135 22.4547C14.9942 23.4428 14.4927 26.3987 15.398 28.0753C16.3011 29.754 16.4329 30.0154 16.4329 30.0154C16.4329 30.0154 15.0367 29.3567 12.8331 30.8378C11.2585 31.896 10.6932 35.0368 11.6835 36.656L16.9875 45.6002L24.2869 57.5278C28.5794 63.6117 37.7296 65.7112 44.3787 61.6715C48.9135 58.9175 51.9884 53.0993 51.557 47.7018Z" fill="url(#paint1_radial_137_6516)"/>
<path d="M51.557 47.7018L51.2297 27.748C51.0172 25.8525 49.9802 23.3089 46.4294 23.3089C42.2856 23.5065 42.1241 27.748 42.1241 27.748L35.8129 16.4728C34.234 14.0715 31.6457 13.9058 30.0265 14.8939C28.4051 15.882 28.0524 17.8859 28.0524 17.8859L26.7391 16.1753C25.7489 14.556 22.7909 14.369 21.2821 15.2892C18.7767 16.817 18.4134 19.9833 20.0326 21.7322C19.9264 21.6174 18.6896 21.1882 16.6135 22.4547C14.9942 23.4428 14.4927 26.3987 15.398 28.0753C16.3011 29.754 16.4329 30.0154 16.4329 30.0154C16.4329 30.0154 15.0367 29.3567 12.8331 30.8378C11.2585 31.896 10.6932 35.0368 11.6835 36.656L16.9875 45.6002L24.2869 57.5278C28.5794 63.6117 37.7296 65.7112 44.3787 61.6715C48.9135 58.9175 51.9884 53.0993 51.557 47.7018Z" fill="url(#paint2_radial_137_6516)"/>
<path d="M51.557 47.7018L51.2297 27.748C51.0172 25.8525 49.9802 23.3089 46.4294 23.3089C42.2856 23.5065 42.1241 27.748 42.1241 27.748L35.8129 16.4728C34.234 14.0715 31.6457 13.9058 30.0265 14.8939C28.4051 15.882 28.0524 17.8859 28.0524 17.8859L26.7391 16.1753C25.7489 14.556 22.7909 14.369 21.2821 15.2892C18.7767 16.817 18.4134 19.9833 20.0326 21.7322C19.9264 21.6174 18.6896 21.1882 16.6135 22.4547C14.9942 23.4428 14.4927 26.3987 15.398 28.0753C16.3011 29.754 16.4329 30.0154 16.4329 30.0154C16.4329 30.0154 15.0367 29.3567 12.8331 30.8378C11.2585 31.896 10.6932 35.0368 11.6835 36.656L16.9875 45.6002L24.2869 57.5278C28.5794 63.6117 37.7296 65.7112 44.3787 61.6715C48.9135 58.9175 51.9884 53.0993 51.557 47.7018Z" fill="url(#paint3_radial_137_6516)"/>
<path d="M51.557 47.7018L51.2297 27.748C51.0172 25.8525 49.9802 23.3089 46.4294 23.3089C42.2856 23.5065 42.1241 27.748 42.1241 27.748L35.8129 16.4728C34.234 14.0715 31.6457 13.9058 30.0265 14.8939C28.4051 15.882 28.0524 17.8859 28.0524 17.8859L26.7391 16.1753C25.7489 14.556 22.7909 14.369 21.2821 15.2892C18.7767 16.817 18.4134 19.9833 20.0326 21.7322C19.9264 21.6174 18.6896 21.1882 16.6135 22.4547C14.9942 23.4428 14.4927 26.3987 15.398 28.0753C16.3011 29.754 16.4329 30.0154 16.4329 30.0154C16.4329 30.0154 15.0367 29.3567 12.8331 30.8378C11.2585 31.896 10.6932 35.0368 11.6835 36.656L16.9875 45.6002L24.2869 57.5278C28.5794 63.6117 37.7296 65.7112 44.3787 61.6715C48.9135 58.9175 51.9884 53.0993 51.557 47.7018Z" fill="url(#paint4_radial_137_6516)"/>
<path d="M51.557 47.7018L51.2297 27.748C51.0172 25.8525 49.9802 23.3089 46.4294 23.3089C42.2856 23.5065 42.1241 27.748 42.1241 27.748L35.8129 16.4728C34.234 14.0715 31.6457 13.9058 30.0265 14.8939C28.4051 15.882 28.0524 17.8859 28.0524 17.8859L26.7391 16.1753C25.7489 14.556 22.7909 14.369 21.2821 15.2892C18.7767 16.817 18.4134 19.9833 20.0326 21.7322C19.9264 21.6174 18.6896 21.1882 16.6135 22.4547C14.9942 23.4428 14.4927 26.3987 15.398 28.0753C16.3011 29.754 16.4329 30.0154 16.4329 30.0154C16.4329 30.0154 15.0367 29.3567 12.8331 30.8378C11.2585 31.896 10.6932 35.0368 11.6835 36.656L16.9875 45.6002L24.2869 57.5278C28.5794 63.6117 37.7296 65.7112 44.3787 61.6715C48.9135 58.9175 51.9884 53.0993 51.557 47.7018Z" fill="url(#paint5_radial_137_6516)"/>
<path d="M51.557 47.7018L51.2297 27.748C51.0172 25.8525 49.9802 23.3089 46.4294 23.3089C42.2856 23.5065 42.1241 27.748 42.1241 27.748L35.8129 16.4728C34.234 14.0715 31.6457 13.9058 30.0265 14.8939C28.4051 15.882 28.0524 17.8859 28.0524 17.8859L26.7391 16.1753C25.7489 14.556 22.7909 14.369 21.2821 15.2892C18.7767 16.817 18.4134 19.9833 20.0326 21.7322C19.9264 21.6174 18.6896 21.1882 16.6135 22.4547C14.9942 23.4428 14.4927 26.3987 15.398 28.0753C16.3011 29.754 16.4329 30.0154 16.4329 30.0154C16.4329 30.0154 15.0367 29.3567 12.8331 30.8378C11.2585 31.896 10.6932 35.0368 11.6835 36.656L16.9875 45.6002L24.2869 57.5278C28.5794 63.6117 37.7296 65.7112 44.3787 61.6715C48.9135 58.9175 51.9884 53.0993 51.557 47.7018Z" fill="url(#paint6_radial_137_6516)"/>
<path d="M51.557 47.7018L51.2297 27.748C51.0172 25.8525 49.9802 23.3089 46.4294 23.3089C42.2856 23.5065 42.1241 27.748 42.1241 27.748L35.8129 16.4728C34.234 14.0715 31.6457 13.9058 30.0265 14.8939C28.4051 15.882 28.0524 17.8859 28.0524 17.8859L26.7391 16.1753C25.7489 14.556 22.7909 14.369 21.2821 15.2892C18.7767 16.817 18.4134 19.9833 20.0326 21.7322C19.9264 21.6174 18.6896 21.1882 16.6135 22.4547C14.9942 23.4428 14.4927 26.3987 15.398 28.0753C16.3011 29.754 16.4329 30.0154 16.4329 30.0154C16.4329 30.0154 15.0367 29.3567 12.8331 30.8378C11.2585 31.896 10.6932 35.0368 11.6835 36.656L16.9875 45.6002L24.2869 57.5278C28.5794 63.6117 37.7296 65.7112 44.3787 61.6715C48.9135 58.9175 51.9884 53.0993 51.557 47.7018Z" fill="url(#paint7_radial_137_6516)"/>
<path d="M51.557 47.7018L51.2297 27.748C51.0172 25.8525 49.9802 23.3089 46.4294 23.3089C42.2856 23.5065 42.1241 27.748 42.1241 27.748L35.8129 16.4728C34.234 14.0715 31.6457 13.9058 30.0265 14.8939C28.4051 15.882 28.0524 17.8859 28.0524 17.8859L26.7391 16.1753C25.7489 14.556 22.7909 14.369 21.2821 15.2892C18.7767 16.817 18.4134 19.9833 20.0326 21.7322C19.9264 21.6174 18.6896 21.1882 16.6135 22.4547C14.9942 23.4428 14.4927 26.3987 15.398 28.0753C16.3011 29.754 16.4329 30.0154 16.4329 30.0154C16.4329 30.0154 15.0367 29.3567 12.8331 30.8378C11.2585 31.896 10.6932 35.0368 11.6835 36.656L16.9875 45.6002L24.2869 57.5278C28.5794 63.6117 37.7296 65.7112 44.3787 61.6715C48.9135 58.9175 51.9884 53.0993 51.557 47.7018Z" fill="url(#paint8_radial_137_6516)"/>
<path fill-rule="evenodd" clip-rule="evenodd" d="M16.3412 29.9817C16.1209 29.9331 15.8982 29.8962 15.6739 29.8712C15.9969 29.8818 16.2264 29.9413 16.3412 29.9817ZM16.4262 29.9987L16.6259 30.0497C17.3187 30.2346 17.9562 30.5278 18.3854 30.9103C18.6022 31.1016 18.9273 31.4947 19.3459 32.0897C19.7539 32.6656 20.2023 33.3647 20.6677 34.1148C21.0459 34.7226 21.4369 35.3707 21.8194 36.0061C22.3613 36.9028 22.8841 37.7656 23.3133 38.4286C23.4663 38.6653 23.7071 38.8315 23.9827 38.8907C24.2582 38.9499 24.546 38.8972 24.7827 38.7441C25.0195 38.5911 25.1857 38.3503 25.2449 38.0748C25.304 37.7992 25.2513 37.5114 25.0983 37.2747C24.6119 36.5103 24.1365 35.7388 23.6724 34.9606C23.2899 34.3252 22.8862 33.658 22.4739 32.995C22.0309 32.2722 21.5674 31.5622 21.0842 30.8657C20.6549 30.258 20.2108 29.6885 19.7986 29.3208C19.0336 28.6408 18.0476 28.2286 17.1742 27.997C16.5405 27.8256 15.8882 27.7328 15.2319 27.7207C15.2799 27.8423 15.3352 27.9608 15.3977 28.0756C16.1839 29.5355 16.3879 29.9243 16.4262 29.9987Z" fill="url(#paint9_radial_137_6516)"/>
<path fill-rule="evenodd" clip-rule="evenodd" d="M19.9285 21.6727C19.7709 21.6292 19.6104 21.5965 19.4483 21.575C19.6123 21.5836 19.7742 21.6165 19.9285 21.6727ZM19.9965 21.6919C20.5915 21.8661 21.3034 22.2274 22.1045 22.9414C22.1661 22.9945 22.3085 23.1539 22.5359 23.4747C22.7484 23.7765 23.0034 24.1632 23.2839 24.6222C23.8491 25.536 24.5058 26.6835 25.1751 27.882C25.53 28.511 25.8891 29.157 26.2376 29.7902C27.2024 31.5285 28.1055 33.1584 28.6601 34.0126C28.7334 34.135 28.8306 34.2414 28.9459 34.3255C29.0611 34.4095 29.1922 34.4695 29.3311 34.5018C29.4701 34.5342 29.6141 34.5382 29.7547 34.5136C29.8952 34.4891 30.0294 34.4365 30.1491 34.3589C30.2689 34.2814 30.3718 34.1806 30.4518 34.0624C30.5317 33.9443 30.5871 33.8112 30.6145 33.6712C30.6419 33.5312 30.6409 33.3871 30.6114 33.2475C30.582 33.1079 30.5247 32.9757 30.443 32.8587C29.933 32.0682 29.0894 30.551 28.1459 28.8467L27.0303 26.8429C26.4065 25.718 25.7603 24.6057 25.0923 23.5066C24.8314 23.0769 24.5564 22.6559 24.2678 22.2444C24.05 21.9212 23.7986 21.622 23.5176 21.3519C21.8261 19.8495 20.2664 19.433 19.0615 19.4224C19.1189 20.2639 19.4334 21.065 19.9965 21.6919Z" fill="url(#paint10_radial_137_6516)"/>
<path fill-rule="evenodd" clip-rule="evenodd" d="M28.0542 17.8838L28.2476 18.1983L30.9314 22.5078C32.5704 25.1506 34.223 27.785 35.8891 30.4107C36.044 30.6435 36.2844 30.8058 36.5582 30.8625C36.832 30.9192 37.117 30.8657 37.3516 30.7136C37.5862 30.5615 37.7514 30.323 37.8114 30.0499C37.8713 29.7768 37.8212 29.4911 37.672 29.2547C36.0124 26.6402 34.3662 24.0172 32.7335 21.3858L30.0538 17.0763L29.2038 15.7057L29.155 15.6313C28.6092 16.2808 28.2313 17.0542 28.0542 17.8838Z" fill="url(#paint11_radial_137_6516)"/>
<g filter="url(#filter0_f_137_6516)">
<path fill-rule="evenodd" clip-rule="evenodd" d="M49.2 29.0489L49.5018 47.4131C49.8991 52.3814 47.0686 57.7364 42.8951 60.2715C42.1089 60.7496 41.2823 61.1343 40.4344 61.4296C35.8571 61.4764 31.2905 59.3599 28.6704 55.6475L23.4875 48.584L20.113 42.7296C19.195 41.223 19.7199 38.3032 21.184 37.3194C23.2304 35.9445 24.5288 36.5565 24.5288 36.5565C24.5288 36.5565 22.85 33.8556 22.0106 32.2959C21.1691 30.7382 21.6196 28.3625 23.1263 27.4424C25.0558 26.2651 26.6304 27.6506 26.7281 27.759C25.4659 26.0484 25.3639 22.2064 27.6908 20.7847C29.0933 19.9284 31.6326 19.7286 32.5528 21.2352L33.7746 22.8247C33.7746 22.8247 34.1019 20.9611 35.6085 20.041L35.736 19.9688L40.819 29.051C40.819 29.051 40.9253 26.365 43.1353 25.3471L46.854 31.9899C46.854 31.9899 46.9539 29.3761 49.0725 28.3051C49.132 28.5601 49.1724 28.8109 49.2 29.0489Z" fill="#F06B0C"/>
</g>
<path d="M63.65 47.5403V27.3847C63.4375 25.4722 62.0563 22.901 58.4714 22.901C54.2852 23.1028 54.1215 27.3847 54.1215 27.3847L47.7465 15.9947C46.1528 13.5722 43.539 13.4022 41.9028 14.401C40.2665 15.3997 39.9074 17.4248 39.9074 17.4248L38.5793 15.6972C37.5805 14.061 34.5928 13.8697 33.0692 14.8005C30.5383 16.3453 30.1707 19.5435 31.8069 21.3093C31.7007 21.1925 29.8689 20.9608 28.3538 22.0403C26.6644 23.2431 26.2118 26.0247 27.1255 27.7183C28.0393 29.4098 28.171 29.6755 28.171 29.6755C28.171 29.6755 26.76 29.0125 24.5352 30.5063C22.9435 31.5752 22.374 34.7478 23.3728 36.3841L28.7299 45.4153L36.1037 57.4641C40.4387 63.6096 49.6824 65.7303 56.3974 61.6503C60.9768 58.8708 64.0857 52.991 63.65 47.5403Z" fill="#FFC03C"/>
<path d="M63.65 47.5403V27.3847C63.4375 25.4722 62.0563 22.901 58.4714 22.901C54.2852 23.1028 54.1215 27.3847 54.1215 27.3847L47.7465 15.9947C46.1528 13.5722 43.539 13.4022 41.9028 14.401C40.2665 15.3997 39.9074 17.4248 39.9074 17.4248L38.5793 15.6972C37.5805 14.061 34.5928 13.8697 33.0692 14.8005C30.5383 16.3453 30.1707 19.5435 31.8069 21.3093C31.7007 21.1925 29.8689 20.9608 28.3538 22.0403C26.6644 23.2431 26.2118 26.0247 27.1255 27.7183C28.0393 29.4098 28.171 29.6755 28.171 29.6755C28.171 29.6755 26.76 29.0125 24.5352 30.5063C22.9435 31.5752 22.374 34.7478 23.3728 36.3841L28.7299 45.4153L36.1037 57.4641C40.4387 63.6096 49.6824 65.7303 56.3974 61.6503C60.9768 58.8708 64.0857 52.991 63.65 47.5403Z" fill="url(#paint12_radial_137_6516)"/>
<path d="M63.65 47.5403V27.3847C63.4375 25.4722 62.0563 22.901 58.4714 22.901C54.2852 23.1028 54.1215 27.3847 54.1215 27.3847L47.7465 15.9947C46.1528 13.5722 43.539 13.4022 41.9028 14.401C40.2665 15.3997 39.9074 17.4248 39.9074 17.4248L38.5793 15.6972C37.5805 14.061 34.5928 13.8697 33.0692 14.8005C30.5383 16.3453 30.1707 19.5435 31.8069 21.3093C31.7007 21.1925 29.8689 20.9608 28.3538 22.0403C26.6644 23.2431 26.2118 26.0247 27.1255 27.7183C28.0393 29.4098 28.171 29.6755 28.171 29.6755C28.171 29.6755 26.76 29.0125 24.5352 30.5063C22.9435 31.5752 22.374 34.7478 23.3728 36.3841L28.7299 45.4153L36.1037 57.4641C40.4387 63.6096 49.6824 65.7303 56.3974 61.6503C60.9768 58.8708 64.0857 52.991 63.65 47.5403Z" fill="url(#paint13_radial_137_6516)"/>
<path d="M63.65 47.5403V27.3847C63.4375 25.4722 62.0563 22.901 58.4714 22.901C54.2852 23.1028 54.1215 27.3847 54.1215 27.3847L47.7465 15.9947C46.1528 13.5722 43.539 13.4022 41.9028 14.401C40.2665 15.3997 39.9074 17.4248 39.9074 17.4248L38.5793 15.6972C37.5805 14.061 34.5928 13.8697 33.0692 14.8005C30.5383 16.3453 30.1707 19.5435 31.8069 21.3093C31.7007 21.1925 29.8689 20.9608 28.3538 22.0403C26.6644 23.2431 26.2118 26.0247 27.1255 27.7183C28.0393 29.4098 28.171 29.6755 28.171 29.6755C28.171 29.6755 26.76 29.0125 24.5352 30.5063C22.9435 31.5752 22.374 34.7478 23.3728 36.3841L28.7299 45.4153L36.1037 57.4641C40.4387 63.6096 49.6824 65.7303 56.3974 61.6503C60.9768 58.8708 64.0857 52.991 63.65 47.5403Z" fill="url(#paint14_radial_137_6516)"/>
<path d="M58.4715 22.9033C54.2852 23.1031 54.1216 27.3871 54.1216 27.3871L58.106 33.9321C58.106 33.9321 56.0128 27.9906 58.4715 22.9033Z" fill="url(#paint15_linear_137_6516)"/>
<g filter="url(#filter1_f_137_6516)">
<path d="M63.0871 48.3439L61.8907 29.3188C61.6995 27.5976 61.1342 23.7726 57.9063 23.7726L57.2433 34.7312L52.1285 26.6944L46.9498 17.5314C46.0148 16.1119 45.388 15.9037 44.6591 15.7379C43.9281 15.5722 41.7691 15.5722 42.2345 16.3691C42.6998 17.1659 48.0782 25.2006 50.0375 28.5559C50.7663 29.8054 47.8083 31.9411 46.6842 30.3473C45.558 28.7536 37.653 17.0002 37.653 17.0002C36.7541 15.5276 33.6006 14.9559 33.6006 16.3691C33.6006 17.8034 41.1698 27.1301 42.8656 31.7434C43.5413 33.5794 41.0275 34.7928 40.1095 33.3691C39.1915 31.9453 35.3282 25.5661 33.403 22.9778C32.7378 22.0832 30.802 21.0738 30.1496 21.8813C28.881 23.4517 30.3557 25.8019 31.1781 27.3256C31.6031 28.1118 36.4247 35.3666 38.3181 38.6157C39.2361 40.1946 35.9593 41.6693 35.0966 40.5749C34.2317 39.4784 31.9325 34.5336 29.7501 31.7413C28.6748 30.3664 26.4925 30.4344 25.8316 30.8786C24.3993 31.8412 25.6233 34.3593 26.5222 35.8298C30.7425 43.5818 43.96 68.1723 56.047 60.8283C60.1695 58.3251 63.4781 53.2506 63.0871 48.3439Z" fill="url(#paint16_radial_137_6516)"/>
</g>
<path d="M12.0955 13.685L8.143 12.0275C7.99995 11.9694 7.87341 11.8769 7.77452 11.7583C7.67563 11.6397 7.60743 11.4986 7.57594 11.3475C7.54445 11.1963 7.55062 11.0397 7.59392 10.8915C7.63723 10.7433 7.71632 10.608 7.82425 10.4975L9.8855 8.30878C9.99145 8.19696 10.1228 8.1124 10.2685 8.06228C10.4142 8.01216 10.5698 7.99798 10.7221 8.02093C10.8744 8.04388 11.019 8.10329 11.1434 8.19411C11.2678 8.28492 11.3684 8.40446 11.4367 8.54253L13.328 12.3888C13.6892 13.175 12.903 14.025 12.0955 13.685Z" fill="#1A80EA"/>
<path d="M12.0955 13.685L8.143 12.0275C7.99995 11.9694 7.87341 11.8769 7.77452 11.7583C7.67563 11.6397 7.60743 11.4986 7.57594 11.3475C7.54445 11.1963 7.55062 11.0397 7.59392 10.8915C7.63723 10.7433 7.71632 10.608 7.82425 10.4975L9.8855 8.30878C9.99145 8.19696 10.1228 8.1124 10.2685 8.06228C10.4142 8.01216 10.5698 7.99798 10.7221 8.02093C10.8744 8.04388 11.019 8.10329 11.1434 8.19411C11.2678 8.28492 11.3684 8.40446 11.4367 8.54253L13.328 12.3888C13.6892 13.175 12.903 14.025 12.0955 13.685Z" fill="url(#paint17_linear_137_6516)"/>
<path d="M12.0955 13.685L8.143 12.0275C7.99995 11.9694 7.87341 11.8769 7.77452 11.7583C7.67563 11.6397 7.60743 11.4986 7.57594 11.3475C7.54445 11.1963 7.55062 11.0397 7.59392 10.8915C7.63723 10.7433 7.71632 10.608 7.82425 10.4975L9.8855 8.30878C9.99145 8.19696 10.1228 8.1124 10.2685 8.06228C10.4142 8.01216 10.5698 7.99798 10.7221 8.02093C10.8744 8.04388 11.019 8.10329 11.1434 8.19411C11.2678 8.28492 11.3684 8.40446 11.4367 8.54253L13.328 12.3888C13.6892 13.175 12.903 14.025 12.0955 13.685Z" fill="url(#paint18_linear_137_6516)"/>
<path d="M12.0955 13.685L8.143 12.0275C7.99995 11.9694 7.87341 11.8769 7.77452 11.7583C7.67563 11.6397 7.60743 11.4986 7.57594 11.3475C7.54445 11.1963 7.55062 11.0397 7.59392 10.8915C7.63723 10.7433 7.71632 10.608 7.82425 10.4975L9.8855 8.30878C9.99145 8.19696 10.1228 8.1124 10.2685 8.06228C10.4142 8.01216 10.5698 7.99798 10.7221 8.02093C10.8744 8.04388 11.019 8.10329 11.1434 8.19411C11.2678 8.28492 11.3684 8.40446 11.4367 8.54253L13.328 12.3888C13.6892 13.175 12.903 14.025 12.0955 13.685Z" fill="url(#paint19_linear_137_6516)"/>
<path d="M17.1104 10.2361L14.5179 6.72774C14.4242 6.60123 14.362 6.45431 14.3362 6.29904C14.3104 6.14378 14.3218 5.98461 14.3696 5.83463C14.4173 5.68465 14.4999 5.54813 14.6106 5.4363C14.7214 5.32447 14.8571 5.24053 15.0066 5.19137L17.8966 4.29249C18.5341 4.09487 19.1716 4.62187 19.1291 5.30187L18.8316 9.70912C18.7466 10.6101 17.6416 10.9607 17.1104 10.2361Z" fill="#1A80EA"/>
<path d="M17.1104 10.2361L14.5179 6.72774C14.4242 6.60123 14.362 6.45431 14.3362 6.29904C14.3104 6.14378 14.3218 5.98461 14.3696 5.83463C14.4173 5.68465 14.4999 5.54813 14.6106 5.4363C14.7214 5.32447 14.8571 5.24053 15.0066 5.19137L17.8966 4.29249C18.5341 4.09487 19.1716 4.62187 19.1291 5.30187L18.8316 9.70912C18.7466 10.6101 17.6416 10.9607 17.1104 10.2361Z" fill="url(#paint20_linear_137_6516)"/>
<path d="M17.1104 10.2361L14.5179 6.72774C14.4242 6.60123 14.362 6.45431 14.3362 6.29904C14.3104 6.14378 14.3218 5.98461 14.3696 5.83463C14.4173 5.68465 14.4999 5.54813 14.6106 5.4363C14.7214 5.32447 14.8571 5.24053 15.0066 5.19137L17.8966 4.29249C18.5341 4.09487 19.1716 4.62187 19.1291 5.30187L18.8316 9.70912C18.7466 10.6101 17.6416 10.9607 17.1104 10.2361Z" fill="url(#paint21_linear_137_6516)"/>
<path d="M17.1104 10.2361L14.5179 6.72774C14.4242 6.60123 14.362 6.45431 14.3362 6.29904C14.3104 6.14378 14.3218 5.98461 14.3696 5.83463C14.4173 5.68465 14.4999 5.54813 14.6106 5.4363C14.7214 5.32447 14.8571 5.24053 15.0066 5.19137L17.8966 4.29249C18.5341 4.09487 19.1716 4.62187 19.1291 5.30187L18.8316 9.70912C18.7466 10.6101 17.6416 10.9607 17.1104 10.2361Z" fill="url(#paint22_linear_137_6516)"/>
<path d="M9.75598 19.316L5.35511 19.8877C5.19664 19.9078 5.03565 19.8891 4.88605 19.8331C4.73644 19.7771 4.60272 19.6855 4.49644 19.5663C4.39016 19.447 4.31451 19.3037 4.27604 19.1486C4.23756 18.9936 4.23741 18.8315 4.27561 18.6764L5.00236 15.6313C5.04145 15.4766 5.11689 15.3334 5.22241 15.2137C5.32792 15.0941 5.46047 15.0013 5.60905 14.9431C5.75762 14.8849 5.91793 14.863 6.07667 14.8792C6.2354 14.8954 6.38798 14.9493 6.52173 15.0363L10.198 17.5055C10.946 18.0368 10.6591 19.2055 9.75598 19.3139" fill="#1A80EA"/>
<path d="M9.75598 19.316L5.35511 19.8877C5.19664 19.9078 5.03565 19.8891 4.88605 19.8331C4.73644 19.7771 4.60272 19.6855 4.49644 19.5663C4.39016 19.447 4.31451 19.3037 4.27604 19.1486C4.23756 18.9936 4.23741 18.8315 4.27561 18.6764L5.00236 15.6313C5.04145 15.4766 5.11689 15.3334 5.22241 15.2137C5.32792 15.0941 5.46047 15.0013 5.60905 14.9431C5.75762 14.8849 5.91793 14.863 6.07667 14.8792C6.2354 14.8954 6.38798 14.9493 6.52173 15.0363L10.198 17.5055C10.946 18.0368 10.6591 19.2055 9.75598 19.3139" fill="url(#paint23_linear_137_6516)"/>
<path d="M9.75598 19.316L5.35511 19.8877C5.19664 19.9078 5.03565 19.8891 4.88605 19.8331C4.73644 19.7771 4.60272 19.6855 4.49644 19.5663C4.39016 19.447 4.31451 19.3037 4.27604 19.1486C4.23756 18.9936 4.23741 18.8315 4.27561 18.6764L5.00236 15.6313C5.04145 15.4766 5.11689 15.3334 5.22241 15.2137C5.32792 15.0941 5.46047 15.0013 5.60905 14.9431C5.75762 14.8849 5.91793 14.863 6.07667 14.8792C6.2354 14.8954 6.38798 14.9493 6.52173 15.0363L10.198 17.5055C10.946 18.0368 10.6591 19.2055 9.75598 19.3139" fill="url(#paint24_linear_137_6516)"/>
<path d="M9.75598 19.316L5.35511 19.8877C5.19664 19.9078 5.03565 19.8891 4.88605 19.8331C4.73644 19.7771 4.60272 19.6855 4.49644 19.5663C4.39016 19.447 4.31451 19.3037 4.27604 19.1486C4.23756 18.9936 4.23741 18.8315 4.27561 18.6764L5.00236 15.6313C5.04145 15.4766 5.11689 15.3334 5.22241 15.2137C5.32792 15.0941 5.46047 15.0013 5.60905 14.9431C5.75762 14.8849 5.91793 14.863 6.07667 14.8792C6.2354 14.8954 6.38798 14.9493 6.52173 15.0363L10.198 17.5055C10.946 18.0368 10.6591 19.2055 9.75598 19.3139" fill="url(#paint25_linear_137_6516)"/>
<path d="M28.4199 29.7201C28.3279 29.6827 28.235 29.6473 28.1415 29.6138C27.8077 28.9791 27.4698 28.3466 27.1279 27.7162C27.0422 27.5566 26.9698 27.3903 26.9111 27.219C27.6188 27.2105 28.4688 27.4463 29.221 27.7502C30.1301 28.1115 30.9737 28.6198 31.7179 29.2547C32.1471 29.6372 32.5998 30.2577 33.0248 30.9058C33.4668 31.5816 33.9406 32.387 34.4124 33.2093C34.6993 33.7087 34.984 34.2123 35.2603 34.7011C35.8181 35.7188 36.4041 36.7207 37.0176 37.7058C37.0934 37.8231 37.1453 37.954 37.1705 38.0913C37.1956 38.2286 37.1935 38.3695 37.1642 38.5059C37.1349 38.6424 37.079 38.7717 36.9997 38.8866C36.9204 39.0014 36.8193 39.0995 36.7021 39.1753C36.5849 39.251 36.4539 39.303 36.3166 39.3281C36.1793 39.3533 36.0384 39.3511 35.902 39.3218C35.7655 39.2925 35.6362 39.2366 35.5214 39.1574C35.4065 39.0781 35.3084 38.9769 35.2326 38.8597C34.6971 38.031 34.0363 36.858 33.369 35.6722C33.1045 35.2023 32.8381 34.7334 32.57 34.2655C32.1025 33.4516 31.652 32.6908 31.2461 32.0703C30.8211 31.4222 30.5024 31.0185 30.3069 30.8421C29.7426 30.3687 29.1053 29.9898 28.4199 29.7201Z" fill="url(#paint26_radial_137_6516)"/>
<path d="M31.639 21.2289C31.3613 21.174 31.0785 21.149 30.7954 21.1545C31.1864 21.1248 31.4712 21.1758 31.639 21.2289Z" fill="url(#paint27_radial_137_6516)"/>
<path d="M34.3739 22.6226C33.6347 21.9463 32.7326 21.4733 31.7559 21.2499C31.215 20.6287 30.8906 19.8486 30.8315 19.0271C32.1023 19.0144 34.0105 19.4585 35.7849 21.0352C36.2227 21.4241 36.7773 22.2019 37.3255 23.0327C37.9035 23.9125 38.5644 24.992 39.2253 26.0927C39.7183 26.9151 40.207 27.746 40.6639 28.5216C41.4502 29.854 42.1408 31.0291 42.5955 31.7304C42.6713 31.8476 42.7232 31.9786 42.7484 32.1158C42.7735 32.2531 42.7714 32.394 42.7421 32.5304C42.7128 32.6669 42.6569 32.7962 42.5776 32.9111C42.4983 33.0259 42.3972 33.124 42.28 33.1998C42.1628 33.2756 42.0318 33.3275 41.8945 33.3527C41.7572 33.3778 41.6164 33.3757 41.4799 33.3464C41.3435 33.3171 41.2141 33.2612 41.0993 33.1819C40.9844 33.1026 40.8863 33.0015 40.8105 32.8842C40.1195 31.7782 39.4465 30.6611 38.7918 29.5331C38.3413 28.766 37.8674 27.9606 37.402 27.185C36.8054 26.1787 36.1884 25.1847 35.5512 24.2036C34.9689 23.3196 34.563 22.7926 34.3739 22.6226Z" fill="url(#paint28_radial_137_6516)"/>
<path d="M39.9185 17.3888L39.944 17.4335L42.6278 21.7472C44.2668 24.3886 45.9194 27.0215 47.5855 29.6458C47.6612 29.7631 47.7593 29.8642 47.8742 29.9435C47.989 30.0228 48.1184 30.0787 48.2548 30.108C48.3913 30.1373 48.5322 30.1394 48.6694 30.1143C48.8067 30.0891 48.9377 30.0372 49.0549 29.9614C49.1721 29.8856 49.2732 29.7875 49.3525 29.6727C49.4318 29.5578 49.4877 29.4285 49.517 29.292C49.5463 29.1556 49.5484 29.0147 49.5233 28.8774C49.4982 28.7402 49.4462 28.6092 49.3705 28.492C47.7102 25.8772 46.064 23.2535 44.432 20.621C43.4226 19.0038 42.46 17.4547 41.7502 16.3115L41.0277 15.147C40.4827 15.794 40.1021 16.5631 39.9185 17.3888Z" fill="url(#paint29_linear_137_6516)"/>
<g filter="url(#filter2_f_137_6516)">
<path d="M30.9463 23.1753C31.8537 23.2412 32.6123 23.3814 33.6748 25.0283C34.7373 26.6752 38.1458 32.266 39.918 35.0562" stroke="#FFE240" stroke-width="0.75" stroke-linecap="round" stroke-linejoin="round"/>
</g>
<g filter="url(#filter3_f_137_6516)">
<path d="M27.4253 31.3438C28.3327 31.4096 29.0934 31.5499 30.1559 33.1967C31.2184 34.8436 33.1585 38.6495 34.9287 41.4375" stroke="#FFE240" stroke-width="0.75" stroke-linecap="round" stroke-linejoin="round"/>
</g>
<g filter="url(#filter4_f_137_6516)">
<path d="M29.75 26.6284C30.6574 26.6943 31.6837 27.0725 32.7462 28.7194C33.8087 30.3663 36.0825 34.9967 37.8526 37.7847" stroke="url(#paint30_linear_137_6516)" stroke-width="1.5" stroke-linecap="round" stroke-linejoin="round"/>
</g>
<g filter="url(#filter5_f_137_6516)">
<path d="M33.4688 18.7275C34.3761 18.7913 36.5309 19.4713 37.5934 21.116C38.6559 22.7629 41.6585 28.5535 43.4307 31.3437" stroke="url(#paint31_linear_137_6516)" stroke-width="1.5" stroke-linecap="round" stroke-linejoin="round"/>
</g>
<g filter="url(#filter6_f_137_6516)">
<path d="M35.6533 16.5391C36.5607 16.6049 37.3214 16.7452 38.3839 18.3921C39.4464 20.0389 45.3114 28.8874 47.0816 31.6754" stroke="#FFE240" stroke-width="0.75" stroke-linecap="round" stroke-linejoin="round"/>
</g>
<g filter="url(#filter7_f_137_6516)">
<path d="M43.6113 16.0439C44.5187 16.1119 45.2773 16.2501 46.3398 17.8969C47.4023 19.5438 53.3353 30.5811 55.1054 33.3691" stroke="#FFE240" stroke-width="0.75" stroke-linecap="round" stroke-linejoin="round"/>
</g>
<g filter="url(#filter8_f_137_6516)">
<path d="M60.2354 25.1641C60.9897 25.6741 61.5783 26.1734 61.6803 28.1306C61.7781 30.0877 61.4168 42.6124 61.5613 45.9126" stroke="#FFE240" stroke-width="0.75" stroke-linecap="round" stroke-linejoin="round"/>
</g>
</g>
</g>
<defs>
<filter id="filter0_f_137_6516" x="17.7822" y="18.0938" width="33.6318" height="45.2114" filterUnits="userSpaceOnUse" color-interpolation-filters="sRGB">
<feFlood flood-opacity="0" result="BackgroundImageFix"/>
<feBlend mode="normal" in="SourceGraphic" in2="BackgroundImageFix" result="shape"/>
<feGaussianBlur stdDeviation="0.9375" result="effect1_foregroundBlur_137_6516"/>
</filter>
<filter id="filter1_f_137_6516" x="24.4243" y="14.8066" width="39.4443" height="48.1245" filterUnits="userSpaceOnUse" color-interpolation-filters="sRGB">
<feFlood flood-opacity="0" result="BackgroundImageFix"/>
<feBlend mode="normal" in="SourceGraphic" in2="BackgroundImageFix" result="shape"/>
<feGaussianBlur stdDeviation="0.375" result="effect1_foregroundBlur_137_6516"/>
</filter>
<filter id="filter2_f_137_6516" x="29.8213" y="22.0503" width="11.2217" height="14.1309" filterUnits="userSpaceOnUse" color-interpolation-filters="sRGB">
<feFlood flood-opacity="0" result="BackgroundImageFix"/>
<feBlend mode="normal" in="SourceGraphic" in2="BackgroundImageFix" result="shape"/>
<feGaussianBlur stdDeviation="0.375" result="effect1_foregroundBlur_137_6516"/>
</filter>
<filter id="filter3_f_137_6516" x="26.3003" y="30.2188" width="9.75342" height="12.3438" filterUnits="userSpaceOnUse" color-interpolation-filters="sRGB">
<feFlood flood-opacity="0" result="BackgroundImageFix"/>
<feBlend mode="normal" in="SourceGraphic" in2="BackgroundImageFix" result="shape"/>
<feGaussianBlur stdDeviation="0.375" result="effect1_foregroundBlur_137_6516"/>
</filter>
<filter id="filter4_f_137_6516" x="28.625" y="25.5034" width="10.3525" height="13.4062" filterUnits="userSpaceOnUse" color-interpolation-filters="sRGB">
<feFlood flood-opacity="0" result="BackgroundImageFix"/>
<feBlend mode="normal" in="SourceGraphic" in2="BackgroundImageFix" result="shape"/>
<feGaussianBlur stdDeviation="0.1875" result="effect1_foregroundBlur_137_6516"/>
</filter>
<filter id="filter5_f_137_6516" x="32.3438" y="17.6025" width="12.2119" height="14.8662" filterUnits="userSpaceOnUse" color-interpolation-filters="sRGB">
<feFlood flood-opacity="0" result="BackgroundImageFix"/>
<feBlend mode="normal" in="SourceGraphic" in2="BackgroundImageFix" result="shape"/>
<feGaussianBlur stdDeviation="0.1875" result="effect1_foregroundBlur_137_6516"/>
</filter>
<filter id="filter6_f_137_6516" x="34.5283" y="15.4141" width="13.6782" height="17.3862" filterUnits="userSpaceOnUse" color-interpolation-filters="sRGB">
<feFlood flood-opacity="0" result="BackgroundImageFix"/>
<feBlend mode="normal" in="SourceGraphic" in2="BackgroundImageFix" result="shape"/>
<feGaussianBlur stdDeviation="0.375" result="effect1_foregroundBlur_137_6516"/>
</filter>
<filter id="filter7_f_137_6516" x="42.4863" y="14.9189" width="13.7441" height="19.5752" filterUnits="userSpaceOnUse" color-interpolation-filters="sRGB">
<feFlood flood-opacity="0" result="BackgroundImageFix"/>
<feBlend mode="normal" in="SourceGraphic" in2="BackgroundImageFix" result="shape"/>
<feGaussianBlur stdDeviation="0.375" result="effect1_foregroundBlur_137_6516"/>
</filter>
<filter id="filter8_f_137_6516" x="59.1104" y="24.0391" width="3.71191" height="22.9985" filterUnits="userSpaceOnUse" color-interpolation-filters="sRGB">
<feFlood flood-opacity="0" result="BackgroundImageFix"/>
<feBlend mode="normal" in="SourceGraphic" in2="BackgroundImageFix" result="shape"/>
<feGaussianBlur stdDeviation="0.375" result="effect1_foregroundBlur_137_6516"/>
</filter>
<linearGradient id="paint0_linear_137_6516" x1="45.2904" y1="62.4217" x2="28.9534" y2="32.9373" gradientUnits="userSpaceOnUse">
<stop stop-color="#FF6C4C"/>
<stop offset="1" stop-color="#FF6D47" stop-opacity="0"/>
</linearGradient>
<radialGradient id="paint1_radial_137_6516" cx="0" cy="0" r="1" gradientUnits="userSpaceOnUse" gradientTransform="translate(22.2469 27.2253) rotate(58.4429) scale(9.89722 3.95644)">
<stop stop-color="#FFAF33"/>
<stop offset="1" stop-color="#FA8221"/>
</radialGradient>
<radialGradient id="paint2_radial_137_6516" cx="0" cy="0" r="1" gradientUnits="userSpaceOnUse" gradientTransform="translate(19.8562 24.0399) rotate(92.0826) scale(3.65476 3.63568)">
<stop stop-color="#FFAE28"/>
<stop offset="1" stop-color="#FFAF31" stop-opacity="0"/>
</radialGradient>
<radialGradient id="paint3_radial_137_6516" cx="0" cy="0" r="1" gradientUnits="userSpaceOnUse" gradientTransform="translate(17.2661 34.4629) rotate(57.331) scale(10.334 2.96019)">
<stop stop-color="#FE9E29"/>
<stop offset="1" stop-color="#FE9E28" stop-opacity="0"/>
</radialGradient>
<radialGradient id="paint4_radial_137_6516" cx="0" cy="0" r="1" gradientUnits="userSpaceOnUse" gradientTransform="translate(16.6029 33.3368) rotate(63.4349) scale(4.30618 3.52047)">
<stop stop-color="#FF9D25"/>
<stop offset="1" stop-color="#FF9F24" stop-opacity="0"/>
</radialGradient>
<radialGradient id="paint5_radial_137_6516" cx="0" cy="0" r="1" gradientUnits="userSpaceOnUse" gradientTransform="translate(25.0349 18.6594) rotate(58.3392) scale(9.3621 4.04611)">
<stop stop-color="#FFC133"/>
<stop offset="1" stop-color="#FFC93C" stop-opacity="0"/>
</radialGradient>
<radialGradient id="paint6_radial_137_6516" cx="0" cy="0" r="1" gradientUnits="userSpaceOnUse" gradientTransform="translate(24.6375 16.9339) rotate(52.3738) scale(4.02457 3.07557)">
<stop stop-color="#FFC53A"/>
<stop offset="1" stop-color="#FFC83C" stop-opacity="0"/>
</radialGradient>
<radialGradient id="paint7_radial_137_6516" cx="0" cy="0" r="1" gradientUnits="userSpaceOnUse" gradientTransform="translate(32.2747 23.6404) rotate(90.6384) scale(78.8955 68.2276)">
<stop offset="0.37" stop-color="#FF6C5E" stop-opacity="0"/>
<stop offset="0.54" stop-color="#FF6B5E"/>
</radialGradient>
<radialGradient id="paint8_radial_137_6516" cx="0" cy="0" r="1" gradientUnits="userSpaceOnUse" gradientTransform="translate(32.0729 15.2063) rotate(59.816) scale(7.52857 8.2789)">
<stop stop-color="#FFAC31"/>
<stop offset="1" stop-color="#FFA92E" stop-opacity="0"/>
</radialGradient>
<radialGradient id="paint9_radial_137_6516" cx="0" cy="0" r="1" gradientUnits="userSpaceOnUse" gradientTransform="translate(19.7233 35.4614) rotate(-35.096) scale(3.00301 9.21292)">
<stop stop-color="#DB5703"/>
<stop offset="0.595" stop-color="#C94A04"/>
<stop offset="1" stop-color="#D65A05" stop-opacity="0"/>
</radialGradient>
<radialGradient id="paint10_radial_137_6516" cx="0" cy="0" r="1" gradientUnits="userSpaceOnUse" gradientTransform="translate(22.6443 29.0189) rotate(-42.6141) scale(4.51172 14.4793)">
<stop stop-color="#DB5703"/>
<stop offset="0.595" stop-color="#C94A04"/>
<stop offset="1" stop-color="#D65A05" stop-opacity="0"/>
</radialGradient>
<radialGradient id="paint11_radial_137_6516" cx="0" cy="0" r="1" gradientUnits="userSpaceOnUse" gradientTransform="translate(29.7499 24.3715) rotate(-42.1844) scale(2.8678 9.41546)">
<stop stop-color="#DB5703"/>
<stop offset="0.595" stop-color="#C94A04"/>
<stop offset="1" stop-color="#D65A05" stop-opacity="0"/>
</radialGradient>
<radialGradient id="paint12_radial_137_6516" cx="0" cy="0" r="1" gradientUnits="userSpaceOnUse" gradientTransform="translate(47.9463 42.7655) rotate(73.365) scale(22.7326 15.089)">
<stop stop-color="#FFD945"/>
<stop offset="0.633" stop-color="#FFD343"/>
<stop offset="1" stop-color="#FFD543" stop-opacity="0"/>
</radialGradient>
<radialGradient id="paint13_radial_137_6516" cx="0" cy="0" r="1" gradientUnits="userSpaceOnUse" gradientTransform="translate(63.6925 33.6025) rotate(98.436) scale(31.2838 8.26161)">
<stop stop-color="#FFE044"/>
<stop offset="1" stop-color="#FFE143" stop-opacity="0"/>
</radialGradient>
<radialGradient id="paint14_radial_137_6516" cx="0" cy="0" r="1" gradientUnits="userSpaceOnUse" gradientTransform="translate(43.9626 70.6549) rotate(-124.618) scale(50.0293 39.3739)">
<stop stop-color="#FA825D"/>
<stop offset="0.883" stop-color="#F67B7D" stop-opacity="0"/>
</radialGradient>
<linearGradient id="paint15_linear_137_6516" x1="54.4531" y1="28.4177" x2="58.803" y2="28.1223" gradientUnits="userSpaceOnUse">
<stop stop-color="#D48820"/>
<stop offset="0.345" stop-color="#E39C2A" stop-opacity="0.649"/>
<stop offset="0.735" stop-color="#FFC03C" stop-opacity="0"/>
</linearGradient>
<radialGradient id="paint16_radial_137_6516" cx="0" cy="0" r="1" gradientUnits="userSpaceOnUse" gradientTransform="translate(52.1962 43.4298) rotate(134.506) scale(21.7885 57.007)">
<stop stop-color="#FFDB45"/>
<stop offset="0.484" stop-color="#FFD646"/>
<stop offset="0.915" stop-color="#FFDA45" stop-opacity="0"/>
<stop offset="0.97" stop-color="#FFDA45" stop-opacity="0"/>
</radialGradient>
<linearGradient id="paint17_linear_137_6516" x1="8.26837" y1="9.6624" x2="9.44137" y2="10.7632" gradientUnits="userSpaceOnUse">
<stop stop-color="#2065A3"/>
<stop offset="1" stop-color="#2067AE" stop-opacity="0"/>
</linearGradient>
<linearGradient id="paint18_linear_137_6516" x1="9.77925" y1="13.9953" x2="10.4337" y2="12.478" gradientUnits="userSpaceOnUse">
<stop offset="0.605" stop-color="#1C60FF"/>
<stop offset="1" stop-color="#1963FF" stop-opacity="0"/>
</linearGradient>
<linearGradient id="paint19_linear_137_6516" x1="12.2527" y1="9.72828" x2="11.3942" y2="10.1809" gradientUnits="userSpaceOnUse">
<stop stop-color="#2093F1"/>
<stop offset="1" stop-color="#2294F3" stop-opacity="0"/>
</linearGradient>
<linearGradient id="paint20_linear_137_6516" x1="16.3029" y1="4.01837" x2="16.8596" y2="5.85437" gradientUnits="userSpaceOnUse">
<stop stop-color="#2065A3"/>
<stop offset="1" stop-color="#2067AE" stop-opacity="0"/>
</linearGradient>
<linearGradient id="paint21_linear_137_6516" x1="15.6718" y1="9.74524" x2="16.8278" y2="8.89949" gradientUnits="userSpaceOnUse">
<stop offset="0.605" stop-color="#1C60FF"/>
<stop offset="1" stop-color="#1963FF" stop-opacity="0"/>
</linearGradient>
<linearGradient id="paint22_linear_137_6516" x1="18.9931" y1="6.47487" x2="18.4088" y2="6.44512" gradientUnits="userSpaceOnUse">
<stop stop-color="#2093F1"/>
<stop offset="1" stop-color="#2294F3" stop-opacity="0"/>
</linearGradient>
<linearGradient id="paint23_linear_137_6516" x1="4.25011" y1="17.3844" x2="5.67811" y2="17.7308" gradientUnits="userSpaceOnUse">
<stop stop-color="#2065A3"/>
<stop offset="1" stop-color="#2067AE" stop-opacity="0"/>
</linearGradient>
<linearGradient id="paint24_linear_137_6516" x1="7.43761" y1="20.6845" x2="7.30586" y2="18.993" gradientUnits="userSpaceOnUse">
<stop offset="0.605" stop-color="#1C60FF"/>
<stop offset="1" stop-color="#1963FF" stop-opacity="0"/>
</linearGradient>
<linearGradient id="paint25_linear_137_6516" x1="8.30886" y1="15.9288" x2="7.69473" y2="16.8255" gradientUnits="userSpaceOnUse">
<stop stop-color="#2093F1"/>
<stop offset="1" stop-color="#2294F3" stop-opacity="0"/>
</linearGradient>
<radialGradient id="paint26_radial_137_6516" cx="0" cy="0" r="1" gradientUnits="userSpaceOnUse" gradientTransform="translate(31.1463 33.2816) rotate(57.126) scale(11.1332 2.08556)">
<stop stop-color="#B64200"/>
<stop offset="1" stop-color="#FFB02E" stop-opacity="0"/>
</radialGradient>
<radialGradient id="paint27_radial_137_6516" cx="0" cy="0" r="1" gradientUnits="userSpaceOnUse" gradientTransform="translate(35.726 26.1984) rotate(57.5209) scale(13.1088 2.44014)">
<stop stop-color="#B64200"/>
<stop offset="1" stop-color="#FFB02E" stop-opacity="0"/>
</radialGradient>
<radialGradient id="paint28_radial_137_6516" cx="0" cy="0" r="1" gradientUnits="userSpaceOnUse" gradientTransform="translate(35.726 26.1981) rotate(57.521) scale(13.1088 2.44014)">
<stop stop-color="#B64200"/>
<stop offset="1" stop-color="#FFB02E" stop-opacity="0"/>
</radialGradient>
<linearGradient id="paint29_linear_137_6516" x1="42.8998" y1="22.1807" x2="44.7295" y2="21.1182" gradientUnits="userSpaceOnUse">
<stop stop-color="#E49224"/>
<stop offset="0.589" stop-color="#FFB02E" stop-opacity="0"/>
</linearGradient>
<linearGradient id="paint30_linear_137_6516" x1="30.6128" y1="31.212" x2="34.6651" y2="28.8873" gradientUnits="userSpaceOnUse">
<stop stop-color="#FDB137"/>
<stop offset="0.447" stop-color="#FFBA3C" stop-opacity="0"/>
<stop offset="1" stop-color="#FCAD33" stop-opacity="0"/>
</linearGradient>
<linearGradient id="paint31_linear_137_6516" x1="35.462" y1="23.6087" x2="39.5122" y2="21.286" gradientUnits="userSpaceOnUse">
<stop stop-color="#FDB137"/>
<stop offset="0.447" stop-color="#FFBA3C" stop-opacity="0"/>
<stop offset="1" stop-color="#FCAD33" stop-opacity="0"/>
</linearGradient>
<clipPath id="clip0_137_6516">
<rect width="68" height="68" fill="white"/>
</clipPath>
</defs>
</svg>
