<svg width="250" height="227" viewBox="0 0 250 227" fill="none" xmlns="http://www.w3.org/2000/svg">
<path fill-rule="evenodd" clip-rule="evenodd" d="M105.631 124.821C117.375 114.822 124.776 100.23 124.776 83.9799C124.776 53.8343 99.3066 29.3965 67.8881 29.3965C36.4697 29.3965 11 53.8343 11 83.9799C11 91.8426 12.7327 99.317 15.8516 106.071C13.8154 110.248 12.6984 114.791 12.6984 119.542C12.6984 140.096 33.6063 156.758 59.3976 156.758C82.9399 156.758 102.413 142.875 105.631 124.821Z" fill="#D9DEE5"/>
<path d="M110.741 122.286C121.434 113.62 128.172 100.974 128.172 86.8901C128.172 60.7639 104.983 39.5845 76.3784 39.5845C47.7735 39.5845 24.5847 60.7639 24.5847 86.8901C24.5847 93.7044 26.1622 100.182 29.0018 106.035C27.1479 109.656 26.1308 113.593 26.1308 117.711C26.1308 135.524 45.1664 149.964 68.648 149.964C90.082 149.964 107.812 137.932 110.741 122.286Z" fill="#FFDED0"/>
<path fill-rule="evenodd" clip-rule="evenodd" d="M143.922 124.821C132.177 114.822 124.776 100.23 124.776 83.9799C124.776 53.8343 150.246 29.3965 181.664 29.3965C213.083 29.3965 238.552 53.8343 238.552 83.9799C238.552 91.8426 236.82 99.317 233.701 106.071C235.737 110.248 236.854 114.791 236.854 119.542C236.854 140.096 215.946 156.758 190.155 156.758C166.612 156.758 147.139 142.875 143.922 124.821Z" fill="#D9DEE5"/>
<path d="M140.509 122.286C129.816 113.62 123.077 100.974 123.077 86.8901C123.077 60.7639 146.266 39.5845 174.871 39.5845C203.476 39.5845 226.665 60.7639 226.665 86.8901C226.665 93.7044 225.087 100.182 222.247 106.035C224.101 109.656 225.118 113.593 225.118 117.711C225.118 135.524 206.083 149.964 182.601 149.964C161.167 149.964 143.438 137.932 140.509 122.286Z" fill="#FFDED0"/>
<path fill-rule="evenodd" clip-rule="evenodd" d="M152.871 165.756C152.419 165.264 152.728 164.488 153.381 164.348C192.192 156.046 194.401 128.802 194.401 96.4733C194.401 57.552 163.229 26 124.777 26C86.3242 26 55.1523 57.552 55.1523 96.4733C55.1523 131.423 57.7335 160.431 106.355 165.987C106.731 166.03 107.059 166.316 107.153 166.683C116.24 202.381 146.502 201.527 178.186 200.633C180.011 200.582 181.84 200.53 183.671 200.486C183.952 200.479 184.158 200.214 184.097 199.94C183.414 196.866 182.711 195.342 182.138 194.099C181.399 192.496 180.876 191.359 180.886 187.969C180.896 184.717 181.41 183.61 182.127 182.069C182.678 180.883 183.349 179.44 184.001 176.566C184.12 176.044 183.74 175.542 183.207 175.49C166.84 173.905 157.83 171.155 152.871 165.756Z" fill="#D9DEE5"/>
<path fill-rule="evenodd" clip-rule="evenodd" d="M174.626 174.661C174.928 174.707 175.234 174.752 175.543 174.796C170.879 179.841 167.507 184.507 165.689 190.412C165.627 190.611 165.422 190.712 165.23 190.637C165.038 190.563 164.932 190.342 164.993 190.142C166.808 184.252 170.126 179.584 174.626 174.661ZM160.178 170.972C160.427 171.079 160.682 171.185 160.941 171.288C156.461 175.753 154.517 179.652 152.218 185.405C152.14 185.598 151.927 185.682 151.742 185.593C151.556 185.503 151.469 185.274 151.546 185.08C153.828 179.37 155.788 175.421 160.178 170.972ZM150.163 162.155C150.283 162.39 150.407 162.621 150.536 162.848C144.347 168.271 141.698 171.625 139.058 178.23C138.981 178.424 138.768 178.508 138.582 178.418C138.397 178.329 138.309 178.099 138.387 177.906C141.097 171.124 143.844 167.68 150.163 162.155Z" fill="#B7BFCD"/>
<path d="M104.456 132.983C100.373 207.185 141.871 201.512 183.669 200.488C183.951 200.481 184.156 200.216 184.094 199.942C182.53 193.007 180.866 194.869 180.884 188.9C180.902 183.058 182.575 183.405 184.107 176.286C184.163 176.023 183.964 175.767 183.697 175.742C146.788 172.29 146.873 164.258 147.7 132.983" stroke="#B4BCCB" stroke-width="0.45" stroke-linecap="round"/>
<ellipse cx="90.0543" cy="118.099" rx="7.73133" ry="8.88835" fill="#323232"/>
<ellipse cx="92.3666" cy="114.842" rx="2.04633" ry="1.80967" fill="white"/>
<ellipse cx="7.73133" cy="8.88835" rx="7.73133" ry="8.88835" transform="matrix(-1 0 0 1 170.986 109.211)" fill="#323232"/>
<ellipse cx="2.04633" cy="1.80967" rx="2.04633" ry="1.80967" transform="matrix(-1 0 0 1 168.585 113.033)" fill="white"/>
</svg>
