<svg width="22" height="20" viewBox="0 0 22 20" fill="none" xmlns="http://www.w3.org/2000/svg">
<path fill-rule="evenodd" clip-rule="evenodd" d="M10.2398 2.11096C7.43914 0.430542 4.01388 0.156085 0.98133 1.3691C0.539632 1.54578 0.25 1.97358 0.25 2.4493V14.1082C0.25 14.8891 1.03876 15.4232 1.76387 15.1331C4.24721 14.1398 7.05215 14.3645 9.34563 15.7406L10.4809 16.4218C10.5675 16.4737 10.6601 16.4964 10.75 16.4949C10.8399 16.4964 10.9325 16.4737 11.0191 16.4218L12.1544 15.7406C14.4479 14.3645 17.2528 14.1398 19.7361 15.1331C20.4612 15.4232 21.25 14.8891 21.25 14.1082V2.4493C21.25 1.97358 20.9604 1.54578 20.5187 1.3691C17.4861 0.156085 14.0609 0.430542 11.2602 2.11096L10.75 2.41706L10.2398 2.11096ZM11.5 4.50015C11.5 4.08594 11.1642 3.75015 10.75 3.75015C10.3358 3.75015 10 4.08594 10 4.50015V14.0002C10 14.4144 10.3358 14.7502 10.75 14.7502C11.1642 14.7502 11.5 14.4144 11.5 14.0002V4.50015Z" fill="#1D1D1B"/>
<path d="M1.47484 17.0424C3.4987 15.8618 6.0013 15.8618 8.02516 17.0424L9.11242 17.6766C10.1243 18.2669 11.3757 18.2669 12.3876 17.6766L13.4748 17.0424C15.4987 15.8618 18.0013 15.8618 20.0252 17.0424L20.1279 17.1023C20.4857 17.311 20.6065 17.7703 20.3978 18.1281C20.1891 18.4858 19.7299 18.6067 19.3721 18.398L19.2694 18.3381C17.7125 17.4299 15.7875 17.4299 14.2306 18.3381L13.1434 18.9723C11.6644 19.835 9.83558 19.835 8.35661 18.9723L7.26935 18.3381C5.71254 17.4299 3.78746 17.4299 2.23065 18.3381L2.1279 18.398C1.77011 18.6067 1.31088 18.4858 1.10217 18.1281C0.893456 17.7703 1.01431 17.311 1.3721 17.1023L1.47484 17.0424Z" fill="#1D1D1B"/>
</svg>
