<svg width="16" height="16" viewBox="0 0 16 16" fill="none" xmlns="http://www.w3.org/2000/svg">
<path d="M15.4669 14.0159C15.6467 13.9396 15.7666 13.8124 15.8566 13.6598C15.9765 13.4308 16.0364 13.151 15.9765 12.8712C15.8566 12.2862 15.317 11.8537 14.7774 11.9555L12.6191 12.2607C13.3086 11.5485 13.7582 10.6328 13.9081 9.58983C14.1179 7.88553 13.1587 6.07949 11.51 5.11288C11.2702 4.98569 11.0303 4.85851 10.7905 4.73132C10.5207 4.60413 10.251 4.45151 9.98117 4.29889C9.59147 4.06995 9.11185 3.66296 8.99194 3.15421C8.84206 2.56916 9.1718 2.00954 9.53152 1.39905C9.77133 1.01749 9.98117 0.610492 10.1011 0.203496L10.161 0L9.92122 0.0508736C8.87204 0.305246 7.79288 0.585056 6.77368 1.01749C5.63457 1.5008 4.76525 2.11129 4.19569 2.84897C3.4163 3.84102 3.11654 5.21463 3.4163 6.58823C3.62614 7.58029 4.10576 8.64865 4.91513 9.76789C3.23644 9.10652 2.66689 8.5469 2.48703 8.19078L2.30717 7.83466L2.18726 8.21622C1.76759 9.69157 2.93668 11.2687 4.22567 12.3625L1.22801 11.9046C0.688434 11.8283 0.148856 12.2353 0.0289497 12.8204C-0.0310034 13.1002 -0.00102682 13.38 0.148856 13.6089C0.238786 13.787 0.388668 13.8887 0.538551 13.965C0.148856 14.1431 -0.06098 14.601 0.0289497 15.0843C0.148856 15.593 0.568528 15.9491 1.01818 15.9746V16H1.07813C1.13808 16 1.16806 16 1.22801 16C1.25799 16 1.28797 15.9746 1.31794 15.9746L8.00271 15.0588L14.6875 15.9746C14.7175 15.9746 14.7474 16 14.7774 16C14.8374 16 14.8673 16 14.9273 16H14.9873V15.9746C15.4669 15.9491 15.8865 15.5676 15.9765 15.0843C16.0664 14.6773 15.8566 14.2194 15.4669 14.0159ZM14.8074 12.1844C15.1671 12.1335 15.5568 12.4642 15.6767 12.9221C15.7367 13.151 15.7067 13.38 15.5868 13.558C15.4969 13.7361 15.347 13.8378 15.1671 13.8633L7.97274 14.8553H7.94276L1.79757 15.6948C1.82754 15.6693 1.85752 15.6439 1.85752 15.593C2.0074 15.3641 2.03738 15.0843 1.97743 14.8045C1.91747 14.5246 1.76759 14.2957 1.52778 14.1177C1.4978 14.0922 1.46782 14.0922 1.46782 14.0668L5.90436 13.4308C6.59382 13.7107 7.34323 13.8633 8.09264 13.8887C8.18257 13.8887 8.2725 13.9142 8.36243 13.9142C8.48234 13.9142 8.57227 13.9142 8.69217 13.8887C9.35166 13.8378 10.0111 13.7107 10.6407 13.4563C11.2702 13.2528 11.8097 12.9221 12.2894 12.5151L14.8074 12.1844ZM7.7629 13.6089C7.07344 13.38 6.50389 12.9984 6.17414 12.5405C5.96431 12.2353 5.8444 11.8537 5.81443 11.4467C5.78445 11.0652 6.05424 10.7091 6.29405 10.4801C6.47391 10.3021 6.7437 10.1749 7.01349 10.0477C7.10342 9.99682 7.22332 9.94595 7.31325 9.89507C7.97274 9.53895 8.51232 9.03021 8.81208 8.41971C8.90201 8.24165 9.02192 7.96184 8.93199 7.70747C8.84206 7.40223 8.54229 7.22417 8.2725 7.04611C8.21255 6.99523 8.12262 6.96979 8.06267 6.91892C9.26173 7.12242 10.3409 7.78378 10.9104 8.69952C11.5399 9.71701 11.51 11.0143 10.8505 12.0318C10.251 12.9221 9.62145 13.558 8.6622 13.6598C8.51232 13.6598 8.33246 13.6598 8.18257 13.6598C8.03269 13.6598 7.91279 13.6343 7.7629 13.6089ZM2.36712 8.62321C2.81677 9.15739 3.74604 9.66614 5.15494 10.1749L5.60459 10.3275L5.3348 9.99682C4.40553 8.7504 3.83597 7.63116 3.62614 6.5628C3.35635 5.24006 3.62614 3.94277 4.37555 3.00159C4.91513 2.31478 5.75447 1.72973 6.83363 1.24642C7.73293 0.864864 8.72215 0.610491 9.6814 0.356119C9.5615 0.661366 9.38164 0.992051 9.20178 1.27186C8.84206 1.88235 8.48234 2.49285 8.63222 3.17965C8.75213 3.63752 9.14182 4.09539 9.74135 4.47695C10.0111 4.62957 10.3109 4.78219 10.5807 4.90938C10.8205 5.03657 11.0603 5.13831 11.3001 5.29094C12.8889 6.20668 13.7882 7.91097 13.5784 9.53895C13.4285 10.6328 12.9189 11.5994 12.1395 12.2862H12.0795V12.3116C11.6299 12.6932 11.1203 12.9984 10.5207 13.2019C10.3409 13.2782 10.1311 13.3545 9.95119 13.4054C10.4308 13.0747 10.8205 12.5914 11.1503 12.1081C11.8697 11.0397 11.8997 9.6407 11.2102 8.5469C10.5207 7.4531 9.1718 6.68998 7.70295 6.58823L7.40318 6.5628L7.58304 6.7663C7.73292 6.94436 7.94276 7.07154 8.1526 7.19873C8.39241 7.35135 8.63222 7.47854 8.69217 7.70747C8.72215 7.8601 8.69218 8.01272 8.57227 8.26709C8.2725 8.82671 7.79288 9.31002 7.16337 9.6407C7.07344 9.69157 6.95354 9.74245 6.86361 9.79332C6.59382 9.92051 6.29405 10.0731 6.08421 10.3021C5.81443 10.5819 5.48468 10.9889 5.51466 11.4467C5.54464 11.8792 5.69452 12.2862 5.90436 12.6423C6.11419 12.973 6.44393 13.2528 6.83363 13.4817C6.20412 13.3291 5.57461 13.0747 5.06501 12.6932C3.56618 11.7011 2.21724 10.0731 2.36712 8.62321ZM0.388668 13.558C0.298739 13.38 0.268762 13.151 0.298739 12.9221C0.388668 12.4642 0.778364 12.1335 1.16806 12.1844L4.58539 12.6932C4.67532 12.7695 4.79522 12.8458 4.88515 12.8967C5.09499 13.0238 5.30482 13.151 5.51466 13.2528L1.16806 13.8887L0.80834 13.8378C0.628481 13.8124 0.478598 13.7107 0.388668 13.558ZM0.298739 15.1097C0.208809 14.6773 0.448622 14.2448 0.838317 14.194C0.868293 14.194 0.89827 14.194 0.928247 14.194C1.07813 14.194 1.22801 14.2448 1.37789 14.3466C1.55775 14.4738 1.67766 14.6773 1.73761 14.9062C1.79757 15.1351 1.76759 15.3386 1.64768 15.5167C1.55775 15.6693 1.43785 15.7456 1.28797 15.7965L1.10811 15.8219C0.718411 15.7965 0.388668 15.5167 0.298739 15.1097ZM14.3278 14.2194C14.1479 14.372 14.028 14.601 13.9681 14.8299C13.9081 15.1097 13.9381 15.3895 14.088 15.6184C14.1179 15.6439 14.1479 15.6693 14.1479 15.7202L8.87204 14.9825L14.3278 14.2194ZM15.6767 15.1097C15.5868 15.5167 15.257 15.7965 14.8973 15.8219L14.7175 15.7965C14.5676 15.7456 14.4477 15.6693 14.3577 15.5167C14.2378 15.3386 14.2079 15.1097 14.2678 14.9062C14.3278 14.6773 14.4477 14.4992 14.6275 14.3466C14.7774 14.2448 14.9273 14.194 15.0772 14.194C15.1072 14.194 15.1371 14.194 15.1671 14.194C15.5268 14.2448 15.7666 14.6518 15.6767 15.1097Z" fill="#1D1D1B"/>
<path d="M2.36712 8.62321C2.81677 9.15739 3.74604 9.66614 5.15494 10.1749L5.60459 10.3275L5.3348 9.99682C4.40553 8.7504 3.83597 7.63116 3.62614 6.5628C3.35635 5.24006 3.62614 3.94277 4.37555 3.00159C4.91513 2.31478 5.75447 1.72973 6.83363 1.24642C7.73293 0.864864 8.72215 0.610491 9.6814 0.356119C9.5615 0.661366 9.38164 0.992051 9.20178 1.27186C8.84206 1.88235 8.48234 2.49285 8.63222 3.17965C8.75213 3.63752 9.14182 4.09539 9.74135 4.47695C10.0111 4.62957 10.3109 4.78219 10.5807 4.90938C10.8205 5.03657 11.0603 5.13831 11.3001 5.29094C12.8889 6.20668 13.7882 7.91097 13.5784 9.53895C13.4285 10.6328 12.9189 11.5994 12.1395 12.2862H12.0795V12.3116C11.6299 12.6932 11.1203 12.9984 10.5207 13.2019C10.3409 13.2782 10.1311 13.3545 9.95119 13.4054C10.4308 13.0747 10.8205 12.5914 11.1503 12.1081C11.8697 11.0397 11.8997 9.6407 11.2102 8.5469C10.5207 7.4531 9.1718 6.68998 7.70295 6.58823L7.40318 6.5628L7.58304 6.7663C7.73292 6.94436 7.94276 7.07154 8.1526 7.19873C8.39241 7.35135 8.63222 7.47854 8.69217 7.70747C8.72215 7.8601 8.69218 8.01272 8.57227 8.26709C8.2725 8.82671 7.79288 9.31002 7.16337 9.6407C7.07344 9.69157 6.95354 9.74245 6.86361 9.79332C6.59382 9.92051 6.29405 10.0731 6.08421 10.3021C5.81443 10.5819 5.48468 10.9889 5.51466 11.4467C5.54464 11.8792 5.69452 12.2862 5.90436 12.6423C6.11419 12.973 6.44393 13.2528 6.83363 13.4817C6.20412 13.3291 5.57461 13.0747 5.06501 12.6932C3.56618 11.7011 2.21724 10.0731 2.36712 8.62321Z" fill="#EE7B31"/>
<path d="M7.7629 13.6089C7.07344 13.38 6.50389 12.9984 6.17414 12.5405C5.96431 12.2353 5.8444 11.8537 5.81443 11.4467C5.78445 11.0652 6.05424 10.7091 6.29405 10.4801C6.47391 10.3021 6.7437 10.1749 7.01349 10.0477C7.10342 9.99682 7.22332 9.94595 7.31325 9.89507C7.97274 9.53895 8.51232 9.03021 8.81208 8.41971C8.90201 8.24165 9.02192 7.96184 8.93199 7.70747C8.84206 7.40223 8.54229 7.22417 8.2725 7.04611C8.21255 6.99523 8.12262 6.96979 8.06267 6.91892C9.26173 7.12242 10.3409 7.78378 10.9104 8.69952C11.5399 9.71701 11.51 11.0143 10.8505 12.0318C10.251 12.9221 9.62145 13.558 8.6622 13.6598H8.18257C8.03269 13.6598 7.91279 13.6343 7.7629 13.6089Z" fill="#FEEA0A"/>
<path d="M14.8074 12.1844C15.1671 12.1335 15.5568 12.4642 15.6767 12.9221C15.7367 13.151 15.7067 13.38 15.5868 13.558C15.4969 13.7361 15.347 13.8378 15.1671 13.8633L7.97274 14.8553H7.94276L1.79757 15.6948C1.82754 15.6693 1.85752 15.6439 1.85752 15.593C2.0074 15.3641 2.03738 15.0843 1.97743 14.8045C1.91747 14.5246 1.76759 14.2957 1.52778 14.1177C1.4978 14.0922 1.46782 14.0922 1.46782 14.0668L5.90436 13.4308C6.59382 13.7107 7.34323 13.8633 8.09264 13.8887C8.18257 13.8887 8.2725 13.9142 8.36243 13.9142C8.48234 13.9142 8.57227 13.9142 8.69217 13.8887C9.35166 13.8378 10.0111 13.7107 10.6407 13.4563C11.2702 13.2528 11.8097 12.9221 12.2894 12.5151L14.8074 12.1844Z" fill="#7D6D5F"/>
<path d="M14.3278 14.2194C14.1479 14.372 14.028 14.601 13.9681 14.8299C13.9081 15.1097 13.9381 15.3895 14.088 15.6184C14.1179 15.6439 14.1479 15.6693 14.1479 15.7202L8.87204 14.9825L14.3278 14.2194Z" fill="#9E8A78"/>
<path d="M0.388668 13.558C0.298739 13.38 0.268762 13.151 0.298739 12.9221C0.388668 12.4642 0.778364 12.1335 1.16806 12.1844L4.58539 12.6932C4.67532 12.7695 4.79522 12.8458 4.88515 12.8967C5.09499 13.0238 5.30482 13.151 5.51466 13.2528L1.16806 13.8887L0.80834 13.8378C0.628481 13.8124 0.478598 13.7107 0.388668 13.558Z" fill="#9E8A78"/>
<path d="M0.298739 15.1097C0.208809 14.6773 0.448622 14.2448 0.838317 14.194H0.928247C1.07813 14.194 1.22801 14.2448 1.37789 14.3466C1.55775 14.4738 1.67766 14.6773 1.73761 14.9062C1.79757 15.1351 1.76759 15.3386 1.64768 15.5167C1.55775 15.6693 1.43785 15.7456 1.28797 15.7965L1.10811 15.8219C0.718411 15.7965 0.388668 15.5167 0.298739 15.1097Z" fill="#7D6D5F"/>
<path d="M15.6767 15.1097C15.5868 15.5167 15.257 15.7965 14.8973 15.8219L14.7175 15.7965C14.5676 15.7456 14.4477 15.6693 14.3577 15.5167C14.2378 15.3386 14.2079 15.1097 14.2678 14.9062C14.3278 14.6773 14.4477 14.4992 14.6275 14.3466C14.7774 14.2448 14.9273 14.194 15.0772 14.194H15.1671C15.5268 14.2448 15.7666 14.6518 15.6767 15.1097Z" fill="#7D6D5F"/>
</svg>
