<svg width="250" height="227" viewBox="0 0 250 227" fill="none" xmlns="http://www.w3.org/2000/svg">
<path d="M88.7811 108.263C105.137 69.4497 100.062 34.8308 57.8233 30.0578" stroke="#FFEBA8" stroke-width="1.2" stroke-linecap="round"/>
<ellipse cx="12.0687" cy="15.5169" rx="12.0687" ry="15.5169" transform="matrix(-0.398439 0.917195 0.917195 0.398439 50.9675 11)" fill="#FFD974"/>
<path d="M159.998 108.263C143.643 69.4497 148.717 34.8308 190.956 30.0578" stroke="#FFEBA8" stroke-width="1.2" stroke-linecap="round"/>
<ellipse cx="188.389" cy="28.2519" rx="12.0687" ry="15.5169" transform="rotate(66.5194 188.389 28.2519)" fill="#FFD974"/>
<path d="M29.2894 134.428C31.4564 92.7122 65.912 60 107.684 60H141.316C183.088 60 217.544 92.7122 219.711 134.428C222.043 179.321 186.27 217 141.316 217H107.684C62.7296 217 26.9573 179.321 29.2894 134.428Z" fill="#FFEBA8"/>
<g style="mix-blend-mode:multiply">
<path fill-rule="evenodd" clip-rule="evenodd" d="M29.3819 133.041C29.3508 133.491 29.3234 133.942 29.2998 134.395C26.9621 179.278 62.7251 216.953 107.67 216.953H141.79C186.735 216.953 222.498 179.278 220.16 134.395C220.137 133.943 220.109 133.492 220.078 133.042C217.258 173.549 183.473 205.953 141.79 205.953H107.67C65.9868 205.953 32.2011 173.548 29.3819 133.041Z" fill="#FFEBA8" fill-opacity="0.7"/>
</g>
<circle cx="24.5238" cy="24.5238" r="24.5238" transform="matrix(-1 0 0 1 100.207 94.3799)" fill="white"/>
<ellipse cx="78.0487" cy="116.343" rx="19.0558" ry="18.2936" fill="#393939"/>
<circle cx="83.384" cy="111.768" r="6.09786" fill="white"/>
<circle cx="73.4747" cy="123.202" r="3.81116" fill="white"/>
<circle cx="24.5238" cy="24.5238" r="24.5238" transform="matrix(-1 0 0 1 198.302 94.3799)" fill="white"/>
<ellipse cx="176.144" cy="116.343" rx="19.0558" ry="18.2936" fill="#393939"/>
<circle cx="181.479" cy="111.768" r="6.09786" fill="white"/>
<circle cx="171.57" cy="123.202" r="3.81116" fill="white"/>
<path d="M145.984 138.523C145.984 141.529 145.434 144.506 144.366 147.283C143.298 150.06 141.732 152.583 139.758 154.708C137.785 156.834 135.442 158.52 132.863 159.67C130.284 160.82 127.521 161.412 124.73 161.412C121.938 161.412 119.175 160.82 116.596 159.67C114.017 158.52 111.674 156.834 109.701 154.708C107.727 152.583 106.162 150.06 105.093 147.283C104.025 144.506 103.476 141.529 103.476 138.523L145.984 138.523Z" fill="#393939"/>
<path fill-rule="evenodd" clip-rule="evenodd" d="M140.693 153.636C140.392 154.004 140.081 154.361 139.759 154.708C137.785 156.834 135.442 158.52 132.863 159.67C130.285 160.82 127.521 161.412 124.73 161.412C121.939 161.412 119.175 160.82 116.596 159.67C114.018 158.52 111.675 156.834 109.701 154.708C109.378 154.361 109.066 154.003 108.766 153.634C110.83 150.431 114.281 148.332 118.189 148.332C120.621 148.332 122.875 149.144 124.729 150.53C126.583 149.145 128.837 148.332 131.268 148.332C135.177 148.332 138.628 150.432 140.693 153.636Z" fill="#ED653B"/>
</svg>
