<svg width="25" height="22" viewBox="0 0 25 22" fill="none" xmlns="http://www.w3.org/2000/svg">
<path d="M22.0759 12.3578L22.1051 19.2371C22.1051 19.3574 22.0967 19.4691 22.0842 19.5852V20.2812C22.0842 21.2309 21.3384 22 20.4175 22H19.7508C19.705 22 19.6591 21.9613 19.6133 21.9957C19.5549 21.9613 19.4966 22 19.4383 22H17.084C16.1631 22 15.4173 21.2309 15.4173 20.2812V16.5C15.4173 15.7395 14.8214 15.125 14.0839 15.125H11.4171C10.6796 15.125 10.0837 15.7395 10.0837 16.5V20.2812C10.0837 21.2309 9.33786 22 8.41699 22H6.08772C6.02522 22 5.96272 21.9957 5.90021 21.9914C5.85021 21.9957 5.80021 22 5.75021 22H5.08351C4.16306 22 3.41678 21.2309 3.41678 20.2812V15.4688C3.41678 15.4301 3.41803 15.3871 3.42053 15.3484V12.3578H2.08547C1.33419 12.3578 0.75 11.752 0.75 10.9785C0.75 10.5918 0.875172 10.248 1.1671 9.94727L11.8505 0.344437C12.1421 0.0430547 12.4755 0 12.7672 0C13.0588 0 13.3922 0.0861094 13.6464 0.301383L18.0841 4.32695V2.75C18.0841 1.99074 18.6799 1.375 19.4174 1.375H20.7508C21.4884 1.375 22.0842 1.99074 22.0842 2.75V7.94922L24.2843 9.94727C24.6177 10.248 24.7885 10.5918 24.7427 10.9785C24.7427 11.752 24.1176 12.3578 23.4093 12.3578H22.0759Z" fill="#1D1D1B"/>
</svg>
