<svg width="86" height="95" viewBox="0 0 86 95" fill="none" xmlns="http://www.w3.org/2000/svg">
<g clip-path="url(#clip0_394_3389)">
<path d="M42.9982 118.313C66.1781 118.313 84.969 96.9779 84.969 70.6599C84.969 44.3418 66.1781 23.0068 42.9982 23.0068C19.8183 23.0068 1.02734 44.3418 1.02734 70.6599C1.02734 96.9779 19.8183 118.313 42.9982 118.313Z" fill="#FEEA0A" stroke="#1D1D1B" stroke-width="1.875" stroke-miterlimit="10"/>
<path d="M30.991 58.3637C33.0073 58.3637 34.6419 56.2189 34.6419 53.5732C34.6419 50.9275 33.0073 48.7827 30.991 48.7827C28.9747 48.7827 27.3401 50.9275 27.3401 53.5732C27.3401 56.2189 28.9747 58.3637 30.991 58.3637Z" fill="#1D1D1B"/>
<path d="M31.8575 52.946C32.4155 52.946 32.8678 52.4911 32.8678 51.93C32.8678 51.3689 32.4155 50.9141 31.8575 50.9141C31.2995 50.9141 30.8472 51.3689 30.8472 51.93C30.8472 52.4911 31.2995 52.946 31.8575 52.946Z" fill="white"/>
<path d="M54.7179 58.3637C56.7626 58.3637 58.4202 56.2189 58.4202 53.5732C58.4202 50.9275 56.7626 48.7827 54.7179 48.7827C52.6732 48.7827 51.0156 50.9275 51.0156 53.5732C51.0156 56.2189 52.6732 58.3637 54.7179 58.3637Z" fill="#1D1D1B"/>
<path d="M59.3826 48.5076H58.9305C58.1873 47.0026 56.6427 45.9694 54.8584 45.9694C53.074 45.9694 51.5294 47.0026 50.7862 48.5076H50.3924L50.3821 48.1563C50.7588 46.0211 52.6219 44.3921 54.8584 44.3921C57.0948 44.3921 58.9579 46.0211 59.3347 48.1563C59.3552 48.2734 59.3723 48.3939 59.3826 48.5076Z" fill="#1D1D1B"/>
<path d="M35.618 48.5076H35.1659C34.4227 47.0026 32.8781 45.9694 31.0937 45.9694C29.3094 45.9694 27.7648 47.0026 27.0216 48.5076H26.6277L26.6174 48.1563C26.9942 46.0211 28.8573 44.3921 31.0937 44.3921C33.3302 44.3921 35.1933 46.0211 35.57 48.1563C35.5906 48.2734 35.6077 48.3939 35.618 48.5076Z" fill="#1D1D1B"/>
<path d="M53.7762 52.946C54.3342 52.946 54.7865 52.4911 54.7865 51.93C54.7865 51.3689 54.3342 50.9141 53.7762 50.9141C53.2182 50.9141 52.7659 51.3689 52.7659 51.93C52.7659 52.4911 53.2182 52.946 53.7762 52.946Z" fill="white"/>
<path d="M49.6974 64.372C48.7864 67.4612 46.1322 69.6998 42.9984 69.6998C39.8647 69.6998 37.2104 67.4647 36.296 64.372C35.9329 63.1426 36.8611 61.9131 38.1351 61.9131H38.2242C38.4091 61.9131 38.594 61.9475 38.7721 61.9992C39.7962 62.3091 41.31 62.5054 42.995 62.5054C44.68 62.5054 46.1938 62.3091 47.2178 61.9992C47.3959 61.9441 47.5809 61.9131 47.7658 61.9131H47.8514C49.1255 61.9131 50.0536 63.146 49.6906 64.372H49.6974Z" fill="#101122"/>
<path d="M42.9983 67.7709C44.3318 67.7709 45.4128 67.296 45.4128 66.7101C45.4128 66.1243 44.3318 65.6494 42.9983 65.6494C41.6648 65.6494 40.5837 66.1243 40.5837 66.7101C40.5837 67.296 41.6648 67.7709 42.9983 67.7709Z" fill="#EE7B31"/>
<path d="M82.7976 79.9681C83.1572 77.5128 83.3421 74.9921 83.3421 72.4197C83.3421 46.923 65.1393 26.2542 42.6829 26.2542C23.1959 26.2542 6.91097 41.8195 2.94849 62.5984C6.09587 40.659 22.8637 23.916 43.0768 23.916C65.5332 23.916 83.7359 44.5847 83.7359 70.0814C83.7359 73.4768 83.414 76.7827 82.7976 79.9681Z" fill="#F7F3B4"/>
<path d="M78.7565 93.3157C71.8761 107.713 58.4441 117.487 43.0017 117.487C27.5593 117.487 13.6512 107.362 6.88721 92.5408C6.92145 92.5202 6.94885 92.4823 6.97283 92.4341C7.94889 94.4107 9.46608 95.8123 11.2196 96.2221C18.6685 106.815 30.1381 113.599 43.0017 113.599C55.8652 113.599 67.441 106.749 74.8865 96.074C74.9139 96.105 74.9481 96.1325 74.9858 96.1532C75.6673 96.5492 77.1297 95.3853 78.7565 93.3157Z" fill="#EE7B31"/>
<path d="M24.9326 72.2479C25.3184 72.2479 25.6312 71.9333 25.6312 71.5453C25.6312 71.1573 25.3184 70.8428 24.9326 70.8428C24.5467 70.8428 24.2339 71.1573 24.2339 71.5453C24.2339 71.9333 24.5467 72.2479 24.9326 72.2479Z" fill="#EE7B31"/>
<path d="M27.1655 75.4432C27.5513 75.4432 27.8641 75.1287 27.8641 74.7406C27.8641 74.3526 27.5513 74.0381 27.1655 74.0381C26.7796 74.0381 26.4668 74.3526 26.4668 74.7406C26.4668 75.1287 26.7796 75.4432 27.1655 75.4432Z" fill="#EE7B31"/>
<path d="M22.614 75.4432C22.9998 75.4432 23.3126 75.1287 23.3126 74.7406C23.3126 74.3526 22.9998 74.0381 22.614 74.0381C22.2281 74.0381 21.9153 74.3526 21.9153 74.7406C21.9153 75.1287 22.2281 75.4432 22.614 75.4432Z" fill="#EE7B31"/>
<path d="M61.7114 72.451C62.0972 72.451 62.41 72.1365 62.41 71.7485C62.41 71.3604 62.0972 71.0459 61.7114 71.0459C61.3255 71.0459 61.0127 71.3604 61.0127 71.7485C61.0127 72.1365 61.3255 72.451 61.7114 72.451Z" fill="#EE7B31"/>
<path d="M63.9443 75.6463C64.3301 75.6463 64.6429 75.3318 64.6429 74.9438C64.6429 74.5558 64.3301 74.2412 63.9443 74.2412C63.5584 74.2412 63.2456 74.5558 63.2456 74.9438C63.2456 75.3318 63.5584 75.6463 63.9443 75.6463Z" fill="#EE7B31"/>
<path d="M59.3962 75.6463C59.782 75.6463 60.0949 75.3318 60.0949 74.9438C60.0949 74.5558 59.782 74.2412 59.3962 74.2412C59.0103 74.2412 58.6975 74.5558 58.6975 74.9438C58.6975 75.3318 59.0103 75.6463 59.3962 75.6463Z" fill="#EE7B31"/>
<path d="M28.9152 38.0119C30.8344 37.4833 32.1653 36.2294 31.8879 35.2113C31.6105 34.1932 29.8299 33.7964 27.9107 34.325C25.9916 34.8537 24.6607 36.1076 24.938 37.1257C25.2154 38.1438 26.996 38.5406 28.9152 38.0119Z" fill="#F8F4BA"/>
<path d="M20.8441 41.0429C21.5738 40.8419 22.0875 40.3934 21.9916 40.0412C21.8956 39.689 21.2263 39.5664 20.4966 39.7674C19.7668 39.9684 19.2531 40.4169 19.349 40.7691C19.445 41.1213 20.1143 41.2439 20.8441 41.0429Z" fill="#F5F3BC"/>
<path d="M84.3904 64.7368C84.3904 64.7368 85.3425 91.2253 67.3384 92.8885" stroke="#1D1D1B" stroke-width="1.25" stroke-miterlimit="10"/>
<path d="M84.9726 72.4541C84.9726 72.4541 85.3459 97.727 67.3418 99.3868" stroke="#1D1D1B" stroke-width="1.25" stroke-miterlimit="10"/>
<path d="M19.9871 82.4649C20.3056 81.9794 20.7679 81.8692 21.3159 81.8864C22.1618 81.914 23.0112 81.8933 23.9221 81.8933C23.9221 81.5386 23.9119 81.2218 23.9221 80.905C23.9427 80.3609 24.1961 80.0268 24.6893 79.9029C27.7819 79.1177 30.919 78.8595 34.0835 79.2761C37.5357 79.7307 40.6557 80.9601 43.1729 83.4843C43.214 83.5256 43.2654 83.5531 43.2825 83.5635C44.0839 82.9436 44.8374 82.2962 45.649 81.7452C47.608 80.4194 49.8102 79.7135 52.1253 79.3519C55.4268 78.8388 58.6907 79.0867 61.9237 79.8925C62.3894 80.0096 62.6737 80.2851 62.7011 80.7776C62.7182 81.1254 62.7045 81.4766 62.7045 81.9002C62.934 81.9002 63.1086 81.9002 63.2833 81.9002C64.1053 81.9002 64.9238 81.8933 65.7457 81.9071C66.3314 81.9174 66.667 82.2687 66.691 82.8541C66.691 82.9298 66.691 83.0056 66.691 83.0848C66.691 92.6065 66.691 102.132 66.691 111.653C66.691 111.822 66.7012 111.998 66.6567 112.153C66.5026 112.693 65.8998 112.965 65.3724 112.697C62.8586 111.419 60.1873 110.655 57.4201 110.207C54.6049 109.752 51.7691 109.608 48.9334 109.962C47.2518 110.172 45.5805 110.482 43.9161 110.806C43.2037 110.944 42.5599 110.744 41.9023 110.596C38.6316 109.869 35.3267 109.625 31.991 109.897C28.3196 110.193 24.7818 111.026 21.4426 112.631C20.7885 112.945 20.4974 112.852 19.9871 112.184V82.4581V82.4649ZM25.7647 81.5799V105.499C31.5423 104.911 37.1932 104.986 42.4023 108.044C42.4126 107.965 42.4263 107.924 42.4263 107.879C42.416 100.496 42.4058 93.1127 42.3852 85.7261C42.3852 85.5504 42.2893 85.3404 42.1694 85.2095C41.2071 84.1489 40.0735 83.3086 38.7995 82.6647C36.9021 81.7073 34.8781 81.2356 32.7718 81.0599C30.4087 80.8636 28.0798 81.084 25.7613 81.5799H25.7647ZM44.2517 108.051C44.4195 107.962 44.5497 107.9 44.673 107.827C45.9607 107.066 47.3375 106.512 48.7759 106.116C52.3103 105.138 55.8994 105.028 59.5229 105.386C59.9681 105.431 60.4133 105.458 60.8688 105.493V81.573C57.8858 80.9532 54.9165 80.7535 51.913 81.3285C49.0841 81.8692 46.5772 83.0194 44.5463 85.1234C44.3271 85.3507 44.2449 85.5745 44.2449 85.8879C44.2551 93.1023 44.2517 100.317 44.2517 107.531V108.055V108.051ZM62.7662 83.7597V84.3452C62.7662 91.6698 62.7662 98.9944 62.7662 106.319C62.7662 107.183 62.3449 107.545 61.5093 107.442C60.6051 107.328 59.701 107.211 58.7934 107.145C56.7145 106.994 54.6288 106.929 52.5637 107.242C51.2691 107.438 49.9917 107.738 48.7074 107.993L48.7313 108.134C54.2829 107.559 59.6496 108.32 64.8587 110.424V83.7597H62.7696H62.7662ZM37.9296 108.089C37.7857 108.044 37.6453 108 37.5015 107.955C33.9157 106.87 30.2614 106.884 26.5832 107.276C26.0695 107.331 25.5626 107.418 25.0489 107.483C24.3331 107.572 23.9358 107.104 23.9358 106.171C23.9358 98.898 23.9358 91.6216 23.9358 84.3486C23.9358 84.1558 23.9358 83.9664 23.9358 83.7701H21.833V110.42C27.0353 108.313 32.3882 107.566 37.9261 108.086L37.9296 108.089Z" fill="black"/>
<path d="M25.7646 81.5796C28.0832 81.0837 30.4087 80.8633 32.7752 81.0596C34.8814 81.2352 36.9055 81.7036 38.8028 82.6643C40.0769 83.3083 41.2105 84.1485 42.1728 85.2092C42.2927 85.34 42.3886 85.5501 42.3886 85.7257C42.4091 93.1089 42.4194 100.492 42.4297 107.879C42.4297 107.923 42.4194 107.965 42.4057 108.044C37.1966 104.986 31.5457 104.914 25.7681 105.499V81.5796H25.7646Z" fill="white"/>
<path d="M44.2517 108.051V107.528C44.2517 100.313 44.2517 93.0987 44.2449 85.8843C44.2449 85.5709 44.3271 85.3471 44.5463 85.1198C46.5772 83.0157 49.0841 81.8656 51.913 81.3249C54.9131 80.7498 57.8858 80.953 60.8688 81.5694V105.489C60.4133 105.454 59.9681 105.427 59.5229 105.382C55.8994 105.024 52.3103 105.134 48.7759 106.112C47.3375 106.512 45.9641 107.066 44.673 107.824C44.5497 107.896 44.4195 107.958 44.2517 108.048V108.051Z" fill="white"/>
<path d="M62.7652 83.7598H64.8542V110.424C59.6454 108.32 54.2791 107.555 48.7278 108.134L48.7039 107.993C49.9881 107.738 51.2654 107.438 52.5599 107.242C54.6284 106.929 56.7105 106.994 58.7893 107.146C59.6968 107.211 60.6009 107.328 61.5049 107.442C62.3405 107.545 62.7618 107.183 62.7618 106.319C62.7618 98.9944 62.7618 91.6698 62.7618 84.3452V83.7598H62.7652Z" fill="white"/>
<path d="M37.9285 108.092C32.3876 107.572 27.0349 108.32 21.8364 110.427V83.7769H23.9391C23.9391 83.9731 23.9391 84.166 23.9391 84.3554C23.9391 91.6284 23.9391 98.9047 23.9391 106.178C23.9391 107.107 24.3364 107.579 25.0521 107.49C25.5624 107.424 26.0726 107.338 26.5863 107.283C30.2643 106.891 33.9184 106.873 37.5039 107.962C37.6477 108.006 37.7881 108.051 37.932 108.096L37.9285 108.092Z" fill="white"/>
<path d="M64.6669 101.592C67.1959 101.592 69.246 99.2434 69.246 96.3466C69.246 93.4499 67.1959 91.1016 64.6669 91.1016C62.138 91.1016 60.0879 93.4499 60.0879 96.3466C60.0879 99.2434 62.138 101.592 64.6669 101.592Z" fill="#FEEA0A" stroke="#1D1D1B" stroke-width="1.25" stroke-miterlimit="10"/>
<path d="M67.4033 95.1376C67.6088 94.3524 66.0676 93.8496 67.054 92.9404C69.2801 94.869 68.8452 99.3289 66.3245 100.441C66.4478 100.242 66.5745 100.042 66.6978 99.842C66.8074 99.7077 66.9135 99.5768 67.0231 99.4425C67.1464 98.7365 67.2697 98.0271 67.3896 97.3211C67.393 96.591 67.3964 95.8643 67.3999 95.1342L67.4033 95.1376Z" fill="#EE7B31"/>
<path d="M1.35265 65.9766C1.35265 65.9766 -0.609633 91.6489 17.3934 93.3122" stroke="#1D1D1B" stroke-width="1.25" stroke-miterlimit="10"/>
<path d="M1.45202 71.707C1.45202 71.707 -0.510268 97.3793 17.4928 99.0426" stroke="#1D1D1B" stroke-width="1.25" stroke-miterlimit="10"/>
<path d="M21.6208 101.592C24.1497 101.592 26.1998 99.2434 26.1998 96.3466C26.1998 93.4499 24.1497 91.1016 21.6208 91.1016C19.0919 91.1016 17.0417 93.4499 17.0417 96.3466C17.0417 99.2434 19.0919 101.592 21.6208 101.592Z" fill="#FEEA0A" stroke="#1D1D1B" stroke-width="1.25" stroke-miterlimit="10"/>
<path d="M18.8431 95.0825C18.6376 94.2973 20.1788 93.7944 19.1925 92.8853C16.9663 94.8138 17.4013 99.2737 19.922 100.386C19.7987 100.186 19.6719 99.9866 19.5486 99.7869C19.4391 99.6525 19.3329 99.5217 19.2233 99.3874C19.1 98.6814 18.9767 97.9719 18.8568 97.2659C18.8534 96.5358 18.85 95.8091 18.8465 95.079L18.8431 95.0825Z" fill="#EE7B31"/>
<path d="M41.0427 22.1461C17.826 29.5017 17.5417 3.91895 17.5417 3.91895L41.0427 22.1461Z" fill="#70BB7B"/>
<path d="M41.0427 22.1461C17.826 29.5017 17.5417 3.91895 17.5417 3.91895" stroke="#1D1D1B" stroke-width="1.875" stroke-miterlimit="10"/>
<path d="M40.3887 22.2837C39.5359 1.11914 17.97 4.87959 17.97 4.87959L40.3887 22.2837Z" fill="#70BB7B"/>
<path d="M40.3887 22.2837C39.5359 1.11914 17.97 4.87959 17.97 4.87959" stroke="#1D1D1B" stroke-width="1.875" stroke-miterlimit="10"/>
<path d="M39.9687 22.1989C37.1191 20.2152 34.2934 18.197 31.4951 16.141C29.3544 14.6498 27.2377 13.1345 25.4053 11.261C24.782 10.648 24.1757 10.0177 23.6174 9.32551L23.7031 9.21875C26.861 10.7513 29.5839 12.9451 32.1767 15.2766C34.8345 17.5151 37.4581 19.7881 40.0578 22.0956L39.9721 22.2023L39.9687 22.1989Z" fill="#1D1D1B"/>
<path d="M40.3887 22.4148C64.5506 25.3832 60.1806 0.179199 60.1806 0.179199L40.3887 22.4148Z" fill="#70BB7B"/>
<path d="M40.3887 22.4148C64.5506 25.3832 60.1806 0.179199 60.1806 0.179199" stroke="#1D1D1B" stroke-width="1.875" stroke-miterlimit="10"/>
<path d="M41.0565 22.43C38.0493 1.46342 59.9355 1.19824 59.9355 1.19824L41.0565 22.43Z" fill="#70BB7B"/>
<path d="M41.0565 22.43C38.0493 1.46342 59.9355 1.19824 59.9355 1.19824" stroke="#1D1D1B" stroke-width="1.875" stroke-miterlimit="10"/>
<path d="M41.3372 22.1682C43.7654 19.4372 46.2244 16.7372 48.7177 14.0647C50.5432 12.0155 52.3858 9.99053 54.5537 8.29268C55.2626 7.7141 55.9921 7.15274 56.7764 6.64648L56.8723 6.74291C54.8551 9.83555 52.2351 12.415 49.4918 14.8464C46.8375 17.3536 44.149 19.8264 41.4331 22.2681L41.3372 22.1717V22.1682Z" fill="#1D1D1B"/>
</g>
<defs>
<clipPath id="clip0_394_3389">
<rect width="86" height="128" fill="white"/>
</clipPath>
</defs>
</svg>
