<svg width="178" height="252" viewBox="0 0 178 252" fill="none" xmlns="http://www.w3.org/2000/svg">
<g style="mix-blend-mode:multiply" opacity="0.05">
<path d="M87.8015 252C116.551 252 139.857 250.019 139.857 247.576C139.857 245.133 116.551 243.152 87.8015 243.152C59.0521 243.152 35.7461 245.133 35.7461 247.576C35.7461 250.019 59.0521 252 87.8015 252Z" fill="black"/>
</g>
<path d="M25.1173 16.3779C25.1173 16.3779 40.9696 -1.14521 59.1354 0.0593761C77.2979 1.26396 91.6144 8.85869 90.8893 20.7364C90.1643 32.6175 75.0338 38.2595 56.8713 37.0549C38.7087 35.8504 25.114 16.3779 25.114 16.3779H25.1173Z" fill="#8BC53F"/>
<mask id="mask0_114_3612" style="mask-type:luminance" maskUnits="userSpaceOnUse" x="25" y="0" width="66" height="38">
<path d="M25.1173 16.3779C25.1173 16.3779 40.9696 -1.14521 59.1354 0.0593761C77.2979 1.26396 91.6144 8.85869 90.8893 20.7364C90.1643 32.6175 75.0338 38.2595 56.8713 37.0549C38.7087 35.8504 25.114 16.3779 25.114 16.3779H25.1173Z" fill="white"/>
</mask>
<g mask="url(#mask0_114_3612)">
<path d="M38.7553 18.0372L31.6135 4.7627" stroke="#006838" stroke-width="1.42" stroke-linecap="round" stroke-linejoin="round"/>
<path d="M55.0953 18.8647L48.438 -2.40601" stroke="#006838" stroke-width="1.42" stroke-linecap="round" stroke-linejoin="round"/>
<path d="M70.5587 22.1505L70.0281 -0.7229" stroke="#006838" stroke-width="1.42" stroke-linecap="round" stroke-linejoin="round"/>
</g>
<mask id="mask1_114_3612" style="mask-type:luminance" maskUnits="userSpaceOnUse" x="25" y="16" width="66" height="22">
<path d="M90.8893 20.7359C90.1643 32.6171 75.0338 38.2591 56.8713 37.0545C38.7087 35.8499 25.114 16.3774 25.114 16.3774L90.886 20.7359H90.8893Z" fill="white"/>
</mask>
<g mask="url(#mask1_114_3612)">
<path d="M90.8893 20.7357C90.1643 32.6168 75.0338 38.2588 56.8713 37.0542C38.7087 35.8496 25.114 16.3772 25.114 16.3772L90.886 20.7357H90.8893Z" fill="#37B34A"/>
<path d="M78.0033 18.6274L62.7937 42.7192" stroke="#006838" stroke-width="1.42" stroke-linecap="round" stroke-linejoin="round"/>
<path d="M63.3935 17.1548L44.239 38.7241" stroke="#006838" stroke-width="1.42" stroke-linecap="round" stroke-linejoin="round"/>
<path d="M48.7476 16.1912L29.1021 37.9767" stroke="#006838" stroke-width="1.42" stroke-linecap="round" stroke-linejoin="round"/>
</g>
<path d="M86.9049 56.5496C85.0396 46.1716 85.3296 34.0914 89.8117 24.4445C91.7496 19.8149 94.7487 16.0432 98.3014 12.6869C100.882 10.5557 110.357 5.81282 108.663 14.1351C107.75 18.6309 98.3575 21.6646 95.5363 25.4534C89.0043 33.8684 86.7632 45.9657 86.9049 56.5462V56.5496Z" fill="#603813"/>
<path d="M14.9833 154.097C14.9833 154.097 -3.87789 198.437 1.34907 226.441C2.56188 230.621 4.43054 225.371 4.24268 223.232C5.4555 233.538 8.44468 230.429 7.88441 223.524C11.4339 233.247 12.739 229.163 11.4339 221.578C15.916 223.524 19.8379 223.716 14.6076 218.078C9.37736 212.439 16.2884 178.018 23.7597 171.6C31.2311 165.182 14.9833 154.097 14.9833 154.097Z" fill="#F58B3E"/>
<path d="M124.397 169.04C124.397 169.04 145.13 212.467 169.165 226.153C173.031 227.848 170.342 222.999 168.641 221.784C177.036 227.392 176.643 223.009 171.182 219.052C180.634 222.416 178.449 218.761 172.01 214.968C176.307 212.618 178.957 209.598 171.449 210.188C163.942 210.778 142.912 183.265 142.935 173.182C142.961 163.096 124.394 169.043 124.394 169.043L124.397 169.04Z" fill="url(#paint0_linear_114_3612)"/>
<path d="M97.715 221.393L97.0855 244.96C97.0427 246.593 98.3016 247.942 99.8737 247.942H113.541C115.298 247.942 115.95 245.547 114.457 244.582L108.149 240.516C106.066 239.174 104.797 236.802 104.797 234.249V220.655L97.715 221.393Z" fill="url(#paint1_linear_114_3612)"/>
<path d="M63.987 221.393L63.3575 244.96C63.3147 246.593 64.5736 247.942 66.1457 247.942H79.8129C81.5695 247.942 82.222 245.547 80.7291 244.582L74.4211 240.516C72.3383 239.174 71.0694 236.802 71.0694 234.249V220.655L63.987 221.393Z" fill="url(#paint2_linear_114_3612)"/>
<path d="M49.2915 192.681L52.7421 225.036L81.5596 226.145L85.9428 216.464L90.191 226.282L116.662 225.27L118.079 194.201L49.2915 192.681Z" fill="#00AEEF"/>
<path d="M167.402 125.347C167.402 172.563 130.645 210.839 85.3033 210.839C39.9613 210.839 3.20117 172.563 3.20117 125.347C3.20117 78.1316 39.9613 39.8525 85.3033 39.8525C130.645 39.8525 167.402 78.1282 167.402 125.347Z" fill="#F58B3E"/>
<g opacity="0.4">
<path d="M122.877 120.339C122.877 121.66 121.849 122.727 120.58 122.727C119.311 122.727 118.283 121.656 118.283 120.339C118.283 119.021 119.311 117.95 120.58 117.95C121.849 117.95 122.877 119.017 122.877 120.339Z" fill="#D47935"/>
<path d="M141.801 117.668C141.801 118.804 140.918 119.731 139.823 119.731C138.729 119.731 137.843 118.808 137.843 117.668C137.843 116.529 138.729 115.606 139.823 115.606C140.918 115.606 141.801 116.529 141.801 117.668Z" fill="#D47935"/>
<path d="M134.108 109.929C134.108 111.068 133.222 111.992 132.128 111.992C131.034 111.992 130.147 111.068 130.147 109.929C130.147 108.79 131.034 107.866 132.128 107.866C133.222 107.866 134.108 108.79 134.108 109.929Z" fill="#D47935"/>
<path d="M129.656 102.301C129.656 104.017 128.318 105.406 126.674 105.406C125.029 105.406 123.691 104.017 123.691 102.301C123.691 100.585 125.026 99.1982 126.674 99.1982C128.321 99.1982 129.656 100.588 129.656 102.301Z" fill="#D47935"/>
<path d="M145.492 101.969C145.492 103.387 144.391 104.533 143.03 104.533C141.669 104.533 140.565 103.387 140.565 101.969C140.565 100.552 141.666 99.4092 143.03 99.4092C144.395 99.4092 145.492 100.555 145.492 101.969Z" fill="#D47935"/>
<path d="M127.531 136.035C127.531 137.452 126.43 138.598 125.066 138.598C123.701 138.598 122.607 137.448 122.607 136.035C122.607 134.621 123.708 133.471 125.066 133.471C126.423 133.471 127.531 134.621 127.531 136.035Z" fill="#D47935"/>
<path d="M113.102 184.456C113.102 185.874 111.998 187.023 110.637 187.023C109.276 187.023 108.178 185.874 108.178 184.456C108.178 183.039 109.282 181.896 110.637 181.896C111.991 181.896 113.102 183.042 113.102 184.456Z" fill="#D47935"/>
<path d="M125.289 180.12C125.289 181.534 124.185 182.68 122.824 182.68C121.463 182.68 120.362 181.534 120.362 180.12C120.362 178.706 121.463 177.553 122.824 177.553C124.185 177.553 125.289 178.702 125.289 180.12Z" fill="#D47935"/>
<path d="M140.364 166.09C140.364 167.507 139.263 168.657 137.899 168.657C136.534 168.657 135.44 167.507 135.44 166.09C135.44 164.673 136.541 163.526 137.899 163.526C139.256 163.526 140.364 164.676 140.364 166.09Z" fill="#D47935"/>
<path d="M128.173 163.086C128.173 164.503 127.073 165.653 125.711 165.653C124.35 165.653 123.25 164.503 123.25 163.086C123.25 161.668 124.354 160.522 125.711 160.522C127.069 160.522 128.173 161.672 128.173 163.086Z" fill="#D47935"/>
<path d="M155.231 134.697C155.231 135.997 154.219 137.048 152.97 137.048C151.721 137.048 150.712 135.997 150.712 134.697C150.712 133.396 151.721 132.346 152.97 132.346C154.219 132.346 155.231 133.4 155.231 134.697Z" fill="#D47935"/>
<path d="M144.006 135.368C144.006 136.665 142.997 137.719 141.745 137.719C140.492 137.719 139.487 136.665 139.487 135.368C139.487 134.071 140.499 133.014 141.745 133.014C142.991 133.014 144.006 134.064 144.006 135.368Z" fill="#D47935"/>
<path d="M154.268 144.717C154.268 146.014 153.257 147.071 152.008 147.071C150.758 147.071 149.75 146.017 149.75 144.717C149.75 143.416 150.758 142.366 152.008 142.366C153.257 142.366 154.268 143.419 154.268 144.717Z" fill="#D47935"/>
<path d="M158.761 126.354C158.761 127.651 157.749 128.704 156.5 128.704C155.251 128.704 154.242 127.651 154.242 126.354C154.242 125.056 155.254 123.999 156.5 123.999C157.745 123.999 158.761 125.049 158.761 126.354Z" fill="#D47935"/>
<path d="M132.995 143.381C132.995 144.616 132.032 145.618 130.843 145.618C129.653 145.618 128.694 144.616 128.694 143.381C128.694 142.145 129.656 141.143 130.843 141.143C132.029 141.143 132.995 142.145 132.995 143.381Z" fill="#D47935"/>
<path d="M106.695 133.028C106.695 134.263 105.733 135.269 104.543 135.269C103.353 135.269 102.397 134.267 102.397 133.028C102.397 131.789 103.36 130.787 104.543 130.787C105.726 130.787 106.695 131.789 106.695 133.028Z" fill="#D47935"/>
<path d="M138.947 157.073C138.947 158.782 137.619 160.172 135.974 160.172C134.33 160.172 132.998 158.782 132.998 157.073C132.998 155.364 134.33 153.974 135.974 153.974C137.619 153.974 138.947 155.36 138.947 157.073Z" fill="#D47935"/>
<path d="M120.214 172.437C120.214 174.256 118.797 175.728 117.05 175.728C115.303 175.728 113.89 174.256 113.89 172.437C113.89 170.618 115.303 169.146 117.05 169.146C118.797 169.146 120.214 170.621 120.214 172.437Z" fill="#D47935"/>
<path d="M116.493 148.725C116.493 150.063 115.452 151.148 114.163 151.148C112.875 151.148 111.836 150.063 111.836 148.725C111.836 147.386 112.878 146.302 114.163 146.302C115.448 146.302 116.493 147.386 116.493 148.725Z" fill="#D47935"/>
<path d="M114.249 161.75C114.249 163.088 113.208 164.172 111.919 164.172C110.63 164.172 109.592 163.088 109.592 161.75C109.592 160.411 110.634 159.323 111.919 159.323C113.204 159.323 114.249 160.408 114.249 161.75Z" fill="#D47935"/>
<path d="M117.452 134.366C117.452 136.072 116.124 137.451 114.486 137.451C112.848 137.451 111.523 136.072 111.523 134.366C111.523 132.66 112.848 131.281 114.486 131.281C116.124 131.281 117.452 132.66 117.452 134.366Z" fill="#D47935"/>
<path d="M108.053 119.003C108.053 120.465 106.913 121.652 105.506 121.652C104.098 121.652 102.961 120.465 102.961 119.003C102.961 117.541 104.102 116.353 105.506 116.353C106.91 116.353 108.053 117.537 108.053 119.003Z" fill="#D47935"/>
<path d="M116.358 103.306C116.358 104.936 115.089 106.257 113.524 106.257C111.958 106.257 110.693 104.936 110.693 103.306C110.693 101.676 111.962 100.358 113.524 100.358C115.086 100.358 116.358 101.679 116.358 103.306Z" fill="#D47935"/>
<path d="M118.019 89.613C118.019 90.9068 117.011 91.957 115.768 91.957C114.526 91.957 113.517 90.9068 113.517 89.613C113.517 88.3192 114.526 87.269 115.768 87.269C117.011 87.269 118.019 88.3192 118.019 89.613Z" fill="#D47935"/>
<path d="M145.004 88.1112C145.004 89.8924 143.62 91.3372 141.906 91.3372C140.192 91.3372 138.808 89.8924 138.808 88.1112C138.808 86.3301 140.192 84.8853 141.906 84.8853C143.62 84.8853 145.004 86.3301 145.004 88.1112Z" fill="#D47935"/>
<path d="M158.859 113.493C158.859 114.941 157.732 116.115 156.338 116.115C154.944 116.115 153.817 114.941 153.817 113.493C153.817 112.045 154.947 110.864 156.338 110.864C157.729 110.864 158.859 112.041 158.859 113.493Z" fill="#D47935"/>
<path d="M137.246 130.859C137.246 132.606 135.888 134.02 134.211 134.02C132.533 134.02 131.175 132.606 131.175 130.859C131.175 129.113 132.533 127.695 134.211 127.695C135.888 127.695 137.246 129.109 137.246 130.859Z" fill="#D47935"/>
<path d="M106.138 107.144C106.138 108.89 104.781 110.304 103.1 110.304C101.419 110.304 100.064 108.89 100.064 107.144C100.064 105.397 101.422 103.983 103.1 103.983C104.777 103.983 106.138 105.4 106.138 107.144Z" fill="#D47935"/>
<path d="M146.952 148.225C146.952 149.649 145.845 150.806 144.471 150.806C143.096 150.806 141.992 149.653 141.992 148.225C141.992 146.797 143.103 145.644 144.471 145.644C145.838 145.644 146.952 146.797 146.952 148.225Z" fill="#D47935"/>
<path d="M149.677 125.014C149.677 126.438 148.57 127.595 147.199 127.595C145.828 127.595 144.721 126.438 144.721 125.014C144.721 123.59 145.828 122.43 147.199 122.43C148.57 122.43 149.677 123.586 149.677 125.014Z" fill="#D47935"/>
<path d="M156.094 98.2976C156.094 99.7218 154.984 100.878 153.613 100.878C152.242 100.878 151.134 99.7252 151.134 98.2976C151.134 96.8699 152.242 95.7168 153.613 95.7168C154.984 95.7168 156.094 96.8699 156.094 98.2976Z" fill="#D47935"/>
<path d="M132.678 85.2727C132.678 86.6969 131.571 87.8534 130.2 87.8534C128.829 87.8534 127.722 86.7003 127.722 85.2727C127.722 83.845 128.832 82.6885 130.2 82.6885C131.568 82.6885 132.678 83.845 132.678 85.2727Z" fill="#D47935"/>
<path d="M125.276 156.906C125.276 158.409 124.106 159.624 122.663 159.624C121.219 159.624 120.053 158.405 120.053 156.906C120.053 155.406 121.219 154.188 122.663 154.188C124.106 154.188 125.276 155.402 125.276 156.906Z" fill="#D47935"/>
<path d="M132.928 173.271C132.928 174.747 131.778 175.944 130.358 175.944C128.937 175.944 127.791 174.747 127.791 173.271C127.791 171.795 128.941 170.594 130.358 170.594C131.775 170.594 132.928 171.788 132.928 173.271Z" fill="#D47935"/>
</g>
<path d="M71.4247 131.271C75.0635 115.217 65.5152 99.1304 50.098 95.3412C34.6808 91.5521 19.2328 101.495 15.594 117.549C11.9552 133.604 21.5035 149.69 36.9207 153.479C52.338 157.268 67.7859 147.325 71.4247 131.271Z" fill="white"/>
<path d="M147.368 145.532C158.57 133.868 158.57 114.957 147.368 103.293C136.167 91.629 118.007 91.629 106.805 103.293C95.6043 114.957 95.6043 133.868 106.805 145.532C118.007 157.196 136.167 157.196 147.368 145.532Z" fill="white"/>
<mask id="mask2_114_3612" style="mask-type:luminance" maskUnits="userSpaceOnUse" x="14" y="94" width="59" height="61">
<path d="M71.4247 131.272C75.0635 115.217 65.5152 99.1311 50.098 95.342C34.6808 91.5528 19.2328 101.496 15.594 117.55C11.9552 133.604 21.5035 149.691 36.9207 153.48C52.338 157.269 67.7859 147.326 71.4247 131.272Z" fill="white"/>
</mask>
<g mask="url(#mask2_114_3612)">
<path d="M87.3702 129.963C90.3178 116.958 82.5831 103.927 70.0941 100.857C57.6051 97.7879 45.0913 105.842 42.1436 118.847C39.196 131.852 46.9307 144.883 59.4197 147.953C71.9086 151.022 84.4225 142.968 87.3702 129.963Z" fill="#414042"/>
</g>
<mask id="mask3_114_3612" style="mask-type:luminance" maskUnits="userSpaceOnUse" x="98" y="94" width="58" height="61">
<path d="M147.368 145.532C158.57 133.868 158.57 114.957 147.368 103.293C136.167 91.6292 118.007 91.6293 106.805 103.293C95.6043 114.957 95.6043 133.868 106.805 145.532C118.007 157.196 136.167 157.196 147.368 145.532Z" fill="white"/>
</mask>
<g mask="url(#mask3_114_3612)">
<path d="M164.763 141.522C173.836 132.074 173.836 116.754 164.763 107.306C155.689 97.8572 140.978 97.8572 131.904 107.306C122.83 116.754 122.83 132.074 131.904 141.522C140.978 150.971 155.689 150.971 164.763 141.522Z" fill="#414042"/>
</g>
<path d="M94.3301 147.985C94.3301 153.06 90.2863 157.175 85.3 157.175C80.3136 157.175 76.2698 153.06 76.2698 147.985" stroke="#414042" stroke-width="1.42" stroke-linecap="round" stroke-linejoin="round"/>
<path d="M52.2114 222.549C52.742 222.549 82.4889 223.38 82.4889 223.38" stroke="white" stroke-width="0.71" stroke-miterlimit="10" stroke-linecap="round"/>
<path d="M88.9941 222.548C89.5247 222.548 116.615 221.854 116.615 221.854" stroke="white" stroke-width="0.71" stroke-miterlimit="10" stroke-linecap="round"/>
<mask id="mask4_114_3612" style="mask-type:luminance" maskUnits="userSpaceOnUse" x="3" y="39" width="165" height="172">
<path d="M167.402 125.347C167.402 172.563 130.645 210.839 85.3033 210.839C39.9613 210.839 3.20117 172.563 3.20117 125.347C3.20117 78.1316 39.9613 39.8525 85.3033 39.8525C130.645 39.8525 167.402 78.1282 167.402 125.347Z" fill="white"/>
</mask>
<g mask="url(#mask4_114_3612)">
<path opacity="0.5" d="M173.512 168.978C173.971 167.523 174.429 166.068 174.887 164.616C172.801 165.886 172.138 164.396 171.014 162.9C172.494 163.281 173.971 163.662 175.45 164.043V152.838C175.249 152.731 175.055 152.632 174.818 152.494C176.544 160.443 173.245 153.953 174.181 150.346C169.858 150 168.622 150.617 164.93 152.546C164.96 152.745 168.918 158.034 165.412 154.838C166.585 156.228 171.627 164.619 164.163 162.32C164.288 163.408 162.439 165.055 163.662 165.501C164.466 165.374 165.204 165.065 165.873 164.571C165.886 165.834 165.428 166.85 164.499 167.619C165.461 167.598 166.12 168.02 166.486 168.882C165.873 168.827 165.26 168.772 164.647 168.714C164.565 169.228 164.479 169.743 164.397 170.258C162.485 169.63 161.546 168.446 161.579 166.709C163.009 166.404 161.925 168.669 163.536 168.226C162.963 166.044 162.389 163.861 161.816 161.678C166.219 162.419 161.612 160.271 163.434 158.723C164.275 160.968 164.321 160.419 164.868 158.229C165.962 159.616 165.916 160.927 164.723 162.162C170.78 157.979 161.925 156.338 158.758 156.822C159.13 159.358 157.1 159.211 156.843 156.908C153.827 159.125 150.598 163.857 149.157 159.3C149.47 160.508 149.141 165.33 146.91 164.063C147.467 162.481 148.027 160.896 148.584 159.314C145.202 160.199 147.556 160.412 143.479 162.667C144.939 163.017 145.42 163.943 145.634 165.055C142.025 161.071 143.373 162.67 145.677 165.271C146.02 167.365 145.588 170 148.811 170.707C146.583 173.741 145.43 170.985 143.37 168.113C143.947 167.19 144.721 167.33 145.694 168.528C143.848 166.466 144.787 165.704 141.686 165.151C143.172 168.683 138.347 167.228 137.27 166.308C138.186 166.442 138.558 166.212 138.387 165.618H135.77C136.258 164.262 136.99 163.085 137.968 162.09C137.197 161.812 136.67 161.743 136.261 161.795C136.4 161.366 136.485 160.693 136.485 159.65C136.113 160.065 135.701 159.77 135.24 158.761C139.554 153.497 135.51 159.949 136.759 160.789C136.33 160.501 142.493 157.237 137.339 156.795C140.097 154.814 139.863 153.459 136.637 152.718C135.839 153.902 137.016 155.285 134.874 157.512C133.48 160.618 134.847 161.568 132.155 163.466C132.58 163.576 133.239 163.641 133.842 163.803C133.967 162.176 134.554 162.368 135.147 162.471C134.811 162.869 134.478 163.37 133.882 163.813C134.709 164.043 135.411 164.468 135.184 165.512C135.085 165.965 128.691 178.072 135.467 172.732C135.879 173.292 131.578 182.997 130.85 178.141C132.755 178.501 133.621 177.698 133.45 175.739C131.113 177.087 129.967 177.166 130.016 175.972C130.039 176.01 130.039 175.965 130.019 175.848C129.99 175.948 129.953 176.034 129.92 176.126C129.983 175.032 127.986 173.199 127.093 173.182C126.816 175.282 127.462 176.518 129.034 176.885C129.377 176.826 129.597 176.706 129.739 176.552C128.727 178.584 126.658 178.402 126.958 181.974C125.906 182.379 125.277 181.751 125.072 180.09C125.079 180.094 125.3 176.813 125.936 173.549C123.909 174.87 124.825 176.847 124.868 178.862C124.845 178.512 122.179 177.08 121.589 176.785C126.977 172.317 121.915 174.723 121.582 174.208C121.071 173.281 121.124 172.338 121.737 171.377C123.151 172.029 124.565 172.681 125.979 173.336C126.256 171.96 126.612 170.608 127.053 169.51C128.101 171.068 128.737 173.075 131.054 172.643C127.959 170.224 130.893 171.984 131.502 169.228C131.677 168.439 131.73 163.929 131.206 167.125C130.83 169.431 129.001 168.981 127.162 169.239C127.518 168.422 127.926 167.773 128.401 167.416C126.951 167.42 126.562 166.768 127.238 165.46C128.444 167.149 129.525 167.457 130.481 166.39C128.065 164.554 128.137 162.214 129.192 160.34C129.601 159.612 128.322 163.525 130.187 163.905C128.711 160.841 132.465 159.544 130.932 156.548C129.459 158.885 129.182 160.525 126.335 160.323C124.367 158.596 124.232 161.757 123.458 163.706C124.054 163.439 126.16 160.353 126.325 160.333C130.346 165.227 123.682 162.656 123.138 166.38C125.593 165.663 125.082 167.478 126.282 168.967C124.235 171.016 122.676 170.68 121.602 167.959C121.111 170.759 118.84 168.916 119.826 172.914C118.428 172.832 115.963 174.747 114.075 175.728C114.559 175.879 114.75 177.012 114.701 178.275C113.877 178.155 113.05 178.034 112.226 177.918C112.677 176.974 113.056 176.387 113.376 176.054C111.778 176.7 110.865 176.202 111.985 172.163C109.2 174.307 109.481 183.402 112.232 184.407C111.039 185.537 110.034 184.919 108.419 185.265C108.142 182.595 110.044 176.669 109.072 174.5C107.566 171.136 103.683 179.843 102.5 173.927C100.071 175.581 103.812 179.133 105.595 176.83C106.748 179.524 103.637 178.848 103.94 182.307C101.446 181.566 101.93 171.541 96.6076 173.511C97.9193 176.504 98.7234 175.629 100.325 176.737C100.47 179.126 101.67 178.584 100.895 181.13C101.03 180.011 100.691 179.424 99.8802 179.369C98.3872 183.285 98.0082 186.017 93.9249 184.613C97.2931 182.19 95.5991 179.03 96.5252 177.98C89.4559 178.618 94.0468 175.756 90.1876 171.747C88.398 169.891 87.696 171.531 84.6245 169.801C85.7911 167.828 85.8735 168.278 86.6843 166.325C85.0562 167.433 83.672 168.81 82.535 170.45C85.2869 169.606 89.8844 173.899 91.1565 177.3C89.4955 176.017 90.4281 186.374 85.8669 181.411C87.3599 182.338 89.9832 179.39 85.5637 178.247C88.688 182.52 80.1159 183.32 83.2963 180.969C81.8791 180.159 80.6103 181.236 79.3052 181.947C79.8951 177.684 74.1936 183.344 80.3335 177.808C79.0152 178.601 77.809 178.443 76.7181 177.338C75.9634 182.118 77.1268 177.945 74.6583 182.661C74.6715 182.633 74.1738 186.285 74.1442 185.76C74.7176 182.945 73.3862 182.033 70.1465 183.018C71.155 187.678 65.6446 185.53 69.9092 184.445C67.1211 182.039 70.2091 184.329 69.6324 178.323C70.4958 179.603 71.3659 180.88 72.2459 182.149C74.1277 180.276 74.9879 179.963 76.5237 177.369C73.9135 177.657 72.8556 177.736 73.6235 180.739C70.8748 181.7 71.5142 178.069 73.5081 176.796C72.5688 175.128 68.6535 178.11 67.4539 177.993C67.4539 181.652 67.2166 181.834 64.4516 183.591C61.6239 182.005 63.5024 177.945 64.8207 180.598C64.7086 178.704 64.4252 178.021 63.1794 178.175C64.3329 177.722 65.8522 176.971 66.4421 176.171C66.4158 176.264 66.3927 176.343 66.3663 176.442C67.4012 176.411 68.436 176.38 69.4742 176.349C68.8612 175.292 68.2482 174.235 67.6352 173.178C71.3395 172.348 73.6268 172.176 77.2751 172.753C75.5613 177.969 78.7548 176.274 78.2737 175.155C81.1112 175.862 81.6287 178.319 83.4215 179.201C85.5472 175.217 80.8377 176.356 78.9361 174.218C76.1249 171.061 77.6673 169.843 75.0966 165.8C74.0519 174.86 76.2633 166.38 75.9832 170.508C75.9436 171.078 71.3758 169.887 70.2717 170.999C69.5665 170.237 70.3937 169.184 71.5439 168.212C70.8781 168.106 70.3673 167.444 70.0278 166.16C69.2468 173.168 64.7613 166.407 62.9421 170.632C65.6742 170.478 67.6846 170.186 64.8602 171.939C65.2854 173.576 66.4421 173.329 68.3273 171.191C67.5759 173.127 67.1342 173.933 66.663 175.43C66.6102 175.117 66.3762 174.809 65.8259 174.524C65.8918 174.558 63.6144 176.305 63.2981 176.394C62.9916 176.483 60.9977 175.128 60.009 174.809C61.09 178.69 62.0655 183.172 60.8922 186.463C64.1121 185.382 62.1347 191.223 61.8776 192.287C60.7802 191.47 60.0024 187.421 60.6516 186.552C58.4534 186.786 58.0843 187.764 59.5443 189.483C57.3362 188.553 56.6836 189.119 57.5833 191.175C54.6436 191.529 58.4897 186.477 58.6511 186.302C54.4426 184.95 53.6186 182.022 55.8234 178.584C56.6606 179.582 56.8089 180.684 56.2486 181.899C55.0094 183.23 55.306 184.184 57.1417 184.761C58.1996 180.756 57.3955 182.743 60.411 180.035C59.1653 180.238 53.088 179.098 59.2707 177.403C58.75 175.43 54.7622 175.852 55.7839 178.518C53.1407 175.038 57.2702 174.507 59.2905 175.052C58.4831 171.912 59.9299 171.867 61.5415 174.054C63.7331 171.325 62.6455 168.593 62.1643 165.275C62.1017 165.659 61.1295 170.601 61.3338 170.443C59.7914 171.637 55.8103 170.145 58.6083 172.749C56.1596 173.734 56.4266 169.719 56.4266 168.662C53.3418 172.296 56.6045 177.523 51.0084 173.851C52.5805 171.476 51.5621 172.413 54.1393 171.068C52.5442 170.8 50.9458 170.536 49.3507 170.268C50.3691 167.451 52.2015 170.848 52.7881 168.044C51.7368 167.008 50.5503 166.301 49.2255 165.927C50.3427 164.763 52.6827 164.022 54.3074 163.947C53.1408 163.185 52.6003 162.516 52.6826 161.939C51.4962 163.895 50.0461 164.183 48.0522 163.634C49.644 165.508 49.3243 166.071 47.0965 165.319C44.9147 164.506 44.4797 165.21 45.7947 167.423C44.3643 168.532 43.9557 168.792 46.3747 169.856C46.5659 167.238 46.5955 166.49 49.1002 166.064C44.6115 169.225 53.79 164.798 47.2547 171.734C46.4439 171.342 45.6365 170.951 44.8257 170.56C44.6774 171.562 44.1666 172.286 43.2932 172.732C43.2537 172.049 42.6209 171.888 41.3949 172.252C42.9373 171.658 43.5305 170.481 43.1779 168.727C40.3568 172.159 40.9994 169.41 37.6873 169.115C38.1948 171.143 40.3798 171.593 40.337 172.646C37.1534 172.499 34.9057 170.44 34.4114 174.953C37.1732 174.054 38.3266 178.244 36.2899 178.868C36.2899 175.286 34.6552 176.758 35.0178 180.193C39.1802 176.305 33.1063 184.576 33.0535 184.668C33.0535 181.494 34.9881 175.351 32.3153 174.249V173.082C35.1529 173.686 34.7277 174.009 34.5893 171.267C33.3436 172.152 31.2475 171.905 31.699 174.194C25.8162 170.145 30.9443 177.022 25.7635 176.415C26.8181 174.685 28.0144 172.708 29.1811 171.703C30.0808 170.927 33.8412 172.626 33.6632 169.252C31.3068 168.83 23.4763 168.981 27.7178 165.529C27.2498 168.037 35.1397 168.59 36.2174 166.833C33.2117 165.707 33.6204 165.474 30.9904 165.978C31.0135 165.762 30.9904 165.429 30.9542 165.052C29.9193 165.165 28.8812 165.278 27.8464 165.391C29.0691 162.433 30.1006 162.306 30.9476 164.99C30.796 163.535 30.361 161.325 30.6213 160.971C28.0243 161.743 27.731 166.575 24.7682 164.685C23.7696 168.034 24.5474 169.18 27.1015 168.127C28.5516 169.771 29.1646 170.045 26.3106 171.946C27.0092 168.861 22.5271 167.008 21.1891 167.852C20.7376 166.318 19.5874 165.017 18.19 163.737C18.6118 163.761 19.0864 163.665 19.6302 163.384C18.368 161.524 17.1354 160.288 15.5073 158.638C15.2634 158.397 15.3293 160.292 16.0181 161.843C14.5021 160.546 12.9564 159.166 11.8128 157.495C11.0219 159.489 8.00962 159.808 7.65368 157.587C12.2446 157.999 9.27186 154.935 6.79021 153.946C7.42628 155.659 9.29823 158.809 5.90367 156.215C7.35377 158.576 6.45405 159.574 3.20121 159.214C3.63624 156.537 -0.143917 159.029 -1.06341 155.913C-1.89063 156.026 -3.56484 158.974 -3.3638 160.185C-7.66467 156.812 -3.83179 156.959 -3.38687 152.707C-3.33744 153.212 -2.43112 150.068 -3.06389 151.475C-2.6025 150.247 -2.62228 148.994 -3.12981 147.717C-1.26775 148.29 -0.424049 147.865 -0.598721 146.434C-5.52577 145.058 -0.747025 142.422 0.478971 139.09C-1.08978 140.054 -2.65853 141.018 -4.22728 141.983C-1.96643 145.717 -2.83979 146.825 -6.84075 145.318C-3.84827 143.891 -7.06156 137.288 -8.27108 142.062C-10.7033 138.829 -12.6609 140.792 -15.2942 140.747V146.008C-15.2678 145.984 -15.2481 145.974 -15.2184 145.95C-15.0141 145.559 -14.813 145.171 -14.5032 144.574C-16.0324 147.511 -14.5889 148.438 -11.7381 147.892C-11.4514 146.362 -14.9185 145.339 -10.8648 142.899C-9.37184 142 -7.61524 143.496 -8.43916 145.133C-4.1317 145.833 -9.05875 149.879 -8.22824 150.051C-6.61665 150.384 -7.41091 149.619 -5.52248 150.662C-6.29367 148.778 -6.3431 146.578 -4.02294 146.78C-4.68208 149.694 -3.09685 152.127 -4.86005 154.327C-6.40243 151.396 -9.86949 152.587 -6.08274 154.705C-11.4316 156.431 -8.51167 154.718 -9.76732 151.42C-9.39491 151.987 -8.85112 152.271 -8.12937 152.254C-7.67456 150.737 -8.55451 149.993 -10.7758 150.027C-11.1746 153.054 -10.6703 154.204 -12.0249 156.88C-10.733 151.619 -15.8314 153.857 -14.757 148.61C-14.9547 149.169 -15.1327 149.536 -15.3008 149.807V161.102C-15.0009 160.889 -14.7043 160.676 -14.4077 160.463C-14.2066 162.337 -12.8356 160.92 -11.8568 161.023C-12.8027 162.334 -13.9528 162.938 -15.3008 162.869V170.824C-14.8625 171.15 -14.1967 171.349 -13.2937 171.408C-13.531 171.833 -14.3615 171.686 -15.3008 171.363V193.221C-14.2066 193.19 -13.4816 193.794 -13.1619 195.098C-14.1835 194.236 -14.8921 194.089 -15.3008 194.634V208.458C-13.1157 209.635 -10.9834 210.617 -8.1821 211.375C-8.27108 211.928 -9.20376 211.609 -9.64209 211.663C-7.55592 212.717 -5.46975 213.771 -3.38687 214.828C-3.52529 213.661 -3.18913 213.119 -2.3784 213.194C-3.0606 217.82 9.68382 220.964 11.8293 219.522C11.5162 223.555 37.1072 228.915 41.2202 229.598C45.4948 230.309 46.8394 230.202 51.3248 231.369C53.9647 232.056 65.0448 230.46 58.8522 232.485C61.815 232.697 66.1488 234.489 66.3927 230.933C68.5547 234.516 71.5472 233.027 74.8066 233.047C76.6456 233.058 87.4489 233.792 80.9168 232.124C83.6852 230.175 84.7826 235.028 86.2393 231.809C87.5247 234.805 94.4753 233.675 95.2036 230.81C94.8674 235.251 106.755 231.174 109.705 230.889C111.873 230.679 120.903 230.525 119.687 228.404C121.635 229.458 129.014 227.955 129.199 227.024C126.45 226.791 125.83 225.782 127.333 223.998C130.266 226.197 129.713 227.131 133.628 226.417C136.749 225.851 139 225.607 136.993 222.155C138.183 221.132 139.01 221.966 139.475 224.66C141.969 223.871 144.451 223.04 146.916 222.165C151.54 220.449 156.042 217.419 160.89 216.859C159.977 215.662 157.611 215.058 159.005 213.088C159.753 214.337 160.498 215.586 161.246 216.835C162.389 215.699 166.809 214.09 165.359 212.913C165.952 212.432 174.34 212.487 167.603 210.15C170.503 209.107 171.354 208.702 170.639 212.068C172.557 210.864 174.649 210.16 175.447 208.41V197.026C175.309 197.205 175.124 197.39 174.854 197.589C174.195 196.378 172.814 194.61 172.267 196.996V194.336C172.731 194.463 174.709 194.919 175.447 195.736V166.689C174.86 167.869 174.119 169.112 173.509 168.981L173.512 168.978ZM32.3483 188.402C31.8012 189.507 31.2541 190.616 30.707 191.721C28.8416 190.372 28.4363 189.147 29.481 188.045C29.8864 188.22 32.256 188.34 32.3483 188.402ZM30.8289 197.171C32.0681 196.683 32.546 197.589 32.2692 199.892C30.0413 200.633 28.9273 200.29 28.9273 198.859C30.7136 199.182 31.3497 198.619 30.8289 197.171ZM30.7136 174.036C30.7136 175.042 29.7974 181.295 27.6222 177.815C28.6538 176.555 29.6854 175.296 30.7136 174.036ZM26.1985 179.301C28.4725 184.044 28.6373 184.699 28.3341 179.503C30.0742 180.248 30.3643 181.487 29.1976 183.217C34.6289 183.652 30.0973 190.07 29.5502 184.411C28.2814 184.758 26.0799 186.209 25.2922 185.197C28.143 184.445 28.4462 183.625 26.1985 182.736C26.1062 181.614 26.1985 180.43 26.1985 179.301ZM23.9871 188.941C22.3557 191.841 22.883 192.236 25.5657 190.122C26.1161 190.969 17.3035 195.05 23.9871 188.941ZM19.0601 183.721C19.8939 181.892 21.0638 182.396 22.57 185.238C22.4381 185.828 22.2074 186.377 21.8845 186.889C21.2023 186.594 20.0488 184.435 19.0601 183.721ZM25.1439 171.356C26.0107 171.188 27.4476 173.686 26.9796 174.105C25.9316 174.754 24.8835 175.399 23.8322 176.047C23.4301 174.078 23.8685 172.516 25.1439 171.36V171.356ZM24.7155 176.806C25.19 177.599 25.6646 178.391 26.1392 179.181C25.5723 179.407 24.5902 179.661 23.6509 179.682C23.7498 178.652 22.9984 176.689 24.7155 176.806ZM21.4659 176.188C22.1646 177.355 22.8633 178.518 23.562 179.685C21.9405 179.696 20.4706 178.978 21.4659 176.188ZM20.2959 178.422C20.5563 178.501 20.8134 178.58 21.0737 178.663C21.3374 180.351 20.7573 181.641 19.3336 182.534C18.7964 183.179 18.2592 183.824 17.722 184.469C17.0299 183.553 19.9795 179.74 20.2959 178.422ZM16.5454 175.776C17.0332 175.152 17.6495 174.822 18.3943 174.788C17.9461 176.476 17.4979 178.168 17.0497 179.857C13.4145 176.655 13.4211 174.239 17.3035 171.74C15.1942 171.48 14.6273 172.619 13.9913 170.162C16.9343 169.359 18.4372 170.333 18.4965 173.089C16.3082 173.014 16.0445 173.587 16.5422 175.773L16.5454 175.776ZM15.827 164.273C17.1057 166.201 17.1947 166.857 16.0906 166.236C15.1019 167.444 14.1132 168.652 13.1212 169.86C12.8213 167.262 13.7243 165.398 15.827 164.273ZM12.9564 161.27C11.8919 162.914 10.6165 163.298 8.9357 162.145C10.1881 160.916 11.19 158.843 12.9564 161.27ZM11.0054 185.526C10.2177 185.451 9.43335 185.375 8.64568 185.303C12.7159 178.409 10.4781 184.744 11.0054 185.526ZM6.88908 182.681C6.54963 182.293 6.21017 181.906 5.87071 181.518C4.57881 182.582 5.0369 183.419 7.24501 184.037C2.3608 185.808 6.45075 176.181 3.01665 184.407C2.77606 183.347 2.93096 181.611 3.01665 180.519C5.47853 181.13 7.92393 181.075 10.3529 180.361C9.34108 179.757 7.89756 176.679 9.931 176.466C9.52893 178.8 10.3232 179.212 12.3105 177.695C11.9842 181.048 9.05105 181.233 6.88908 182.678V182.681ZM-4.88641 175.715C-4.47775 177.005 1.94225 179.363 -0.513035 175.491C1.01616 175.255 1.78736 175.742 1.80054 176.96C0.1494 177.65 -5.48952 179.97 -4.88641 175.715ZM-2.13781 186.7C-2.76399 187.465 -4.65901 189.874 -5.41701 186.7C-4.32614 186.7 -3.23197 186.683 -2.13781 186.7ZM1.93237 186.841C2.12681 185.19 1.43801 184.596 -0.137326 185.06C0.46908 181.937 2.57832 186.837 2.73322 187.184C1.527 187.455 0.320778 187.726 -0.885444 187.997C-1.36661 186.47 -0.427347 186.082 1.93237 186.841ZM2.58162 179.308C1.50393 178.693 2.99358 176.044 3.31326 175.1C3.88341 177.403 5.48841 176.916 7.18899 176.902C7.47901 178.858 2.99028 176.964 2.58162 179.308ZM9.43335 171.171C11.5459 172.914 5.32363 173.985 9.98044 174.253C8.5534 175.392 4.77654 177.362 3.76477 174.215C6.65838 175.423 8.00961 173.285 9.43335 171.171ZM7.07364 167.543C5.08634 162.718 14.8877 164.139 7.07364 167.543V167.543ZM6.73418 160.964C5.49171 162.138 4.75677 162.152 4.53266 161.006C6.56281 161.201 7.65697 160.432 7.81187 158.703C10.1518 162.262 5.38954 163.696 4.67767 166.871C1.57973 163.967 7.85142 162.625 6.73418 160.964ZM3.44179 169.414C3.87682 169.091 4.31515 168.768 4.75018 168.446C6.76055 166.037 6.17392 172.451 6.23324 172.235C4.30856 172.2 1.97851 168.624 2.58821 167.135C2.62446 168.007 2.90789 168.765 3.44179 169.414ZM-1.06671 158.964C-0.516328 159.904 0.478971 159.763 1.91589 158.541C-0.0911837 161.462 0.254859 161.256 3.10563 159.317C2.60798 160.762 2.19932 161.894 1.84997 162.77C0.775578 159.979 -0.351543 159.777 -1.53469 162.193C-0.381205 163.243 0.719555 163.487 1.77088 162.969C0.235089 166.709 -0.170281 165.086 -2.20043 160.903C-0.974429 160.264 -0.595425 159.619 -1.06671 158.967V158.964ZM-0.433936 170.611C0.0109816 173.24 -2.48715 173.209 -3.80542 172.08C-2.68159 171.589 -1.55777 171.102 -0.433936 170.611ZM-4.78754 159.931C-4.39865 162.649 -1.43253 163.01 -5.56532 164.547C-5.52907 163.73 -5.8916 160.01 -4.78754 159.931ZM-4.57991 172.08C-3.2913 172.773 -6.15525 174.458 -6.8803 174.973C-6.29037 173.903 -5.70045 172.828 -5.11052 171.758C-8.75555 173.621 -6.74847 170.539 -6.17502 167.756C-4.98198 167.931 -6.40572 171.099 -4.58321 172.08H-4.57991ZM-9.07523 178.371C-11.2273 181.672 -6.21457 179.946 -6.99236 182.252C-8.11948 182.002 -9.2499 181.751 -10.377 181.501C-10.9109 179.472 -10.4759 178.429 -9.07523 178.371ZM-12.3083 173.474C-13.6233 170.193 -12.9279 169.3 -10.2155 170.797C-10.2584 170.351 -12.2226 173.254 -12.3083 173.474ZM-7.111 163.878C-8.8676 163.504 -6.18491 162.993 -8.42598 162.667C-7.98436 160.371 -7.90196 160.402 -10.0738 159.794C-10.12 158.161 -8.92692 157.886 -6.49471 158.974C-6.69904 160.607 -6.90337 162.244 -7.111 163.878ZM-7.76025 157.591C-8.77202 157.756 -9.78051 157.92 -10.7923 158.088C-10.5451 155.439 -9.53662 155.274 -7.76025 157.591ZM-15.0997 157.124C-14.7109 156.506 -14.322 155.889 -13.9298 155.271C-13.1223 156.647 -12.2094 157.834 -12.0545 158.734C-13.0696 158.198 -14.0847 157.659 -15.0997 157.124ZM-14.3681 160.415C-14.6021 159.039 -13.821 158.517 -12.0413 158.83C-11.9557 159.619 -12.5093 160.175 -14.3681 160.415ZM-13.6925 170.316C-14.2495 166.998 -13.0037 163.875 -10.2617 162.804C-10.1991 162.986 -11.8304 165.961 -11.1416 168.738C-12.1369 169.513 -13.6826 168.082 -13.6925 170.313V170.316ZM-9.03898 195.774C-8.50837 198.955 -9.00602 200.108 -10.5385 199.24C-9.30922 197.534 -9.74755 196.742 -11.8535 196.869C-12.4797 196.649 -13.1059 196.433 -13.732 196.213C-12.1699 196.066 -10.6044 195.921 -9.04227 195.774H-9.03898ZM-13.5343 209.124C-14.0286 207.607 -13.5409 206.704 -12.0644 206.413C-13.9133 208.815 -13.8177 209.488 -11.781 208.424C-12.0776 209.834 -12.6642 210.068 -13.5343 209.12V209.124ZM-12.0282 206.341C-12.7236 205.689 -13.4156 205.04 -14.111 204.388C-11.3723 203.969 -10.6769 204.621 -12.0282 206.341ZM-11.3262 203.091C-11.4218 201.33 -7.06816 200.863 -7.30545 205.012C-9.89256 205.091 -4.16795 202.37 -11.3262 203.091ZM-9.49708 200.482C-7.48671 198.777 -7.4142 198.646 -7.89537 195.993C-5.24564 195.643 -5.66749 201.416 -9.49708 200.482ZM-4.0559 212.398C-4.83698 211.543 -4.9688 210.541 -4.45467 209.395H-6.41231C-3.80213 206.907 -4.30637 211.746 -1.79835 210.318C-2.54977 211.011 -3.30448 211.705 -4.0559 212.398ZM-2.97161 209.182C-3.04742 204.656 -1.88404 207.531 -1.24468 203.612C1.43142 204.189 -2.53329 208.602 -2.97161 209.182ZM-3.29789 191.666C-5.24564 192.246 -5.95092 192.074 -7.92503 192.393C-6.99894 192.085 -0.740436 189.209 -0.295518 190.719C-1.29741 191.034 -2.29929 191.35 -3.30118 191.669L-3.29789 191.666ZM3.21769 191.892C4.21298 192.575 5.21157 193.258 6.20687 193.941C3.19132 195.575 2.19602 194.892 3.21769 191.892ZM3.17484 202.288C2.98039 201.272 3.00676 197.294 5.29726 198.162C3.44179 201.958 7.40321 198.657 3.17484 202.288ZM4.45686 196.381C5.20828 194.192 8.92581 196.302 9.32459 197.617C7.70311 197.205 6.08164 196.793 4.45686 196.381ZM11.012 198.018C9.31471 196.724 10.2177 194.545 9.99691 192.52C9.7794 190.54 9.33448 193.334 8.39521 192.342C8.91593 191.886 9.43995 191.429 9.96066 190.976C10.6561 192.287 12.4654 197.136 11.012 198.018ZM11.7238 191.553C11.3679 190.89 11.012 190.228 10.6593 189.562C14.8416 189.487 11.335 182.324 18.4965 186.058C17.0826 187.75 16.2917 187.764 16.1104 186.137C15.9324 187.561 12.8378 190.547 11.7271 191.553H11.7238ZM19.3731 205.661C18.9249 205.73 14.0737 202.236 14.3011 200.733C16.9508 202.126 18.1966 202.854 19.3731 205.661ZM13.2959 191.199C14.5779 191.614 15.8632 192.03 17.1453 192.445V194.422C17.3529 191.439 13.4541 193.646 13.2959 191.196V191.199ZM12.2446 193.725C13.5991 194.216 14.9569 194.707 16.3114 195.197C15.916 196.031 14.8119 195.582 14.0605 195.012C13.6156 195.516 13.754 195.983 14.4692 196.412C13.2069 197.476 12.4654 196.58 12.2446 193.725ZM12.6994 218.393C12.8147 217.268 12.6994 216.049 12.6994 214.913C15.0228 217.182 11.8853 213.335 15.5238 213.946C14.5812 215.428 13.6419 216.907 12.6994 218.39V218.393ZM19.5214 214.975C16.9277 217.36 17.9527 216.005 19.5214 214.975V214.975ZM18.7437 218.465C18.8129 217.251 19.0831 216.08 19.5577 214.951C20.2498 214.502 21.0375 214.121 21.6669 214.155C20.6914 215.593 19.7192 217.027 18.7437 218.465ZM19.7324 196.134C18.6085 195.671 18.5393 194.758 19.5214 193.392C20.6354 193.42 20.7145 194.175 19.7554 195.654C22.9984 192.448 23.6542 193.135 19.7324 196.134ZM27.1015 195.448C26.6698 195.674 26.2414 195.901 25.8096 196.127C28.4099 199.137 26.014 198.3 23.5092 197.054C26.4556 196.474 26.2578 195.726 22.9127 194.813C23.707 194.679 28.3275 194.583 27.0982 195.451L27.1015 195.448ZM30.4631 192.229C29.8139 195.359 30.4236 196.491 28.2517 197.939C29.4283 196.193 29.2239 195.129 27.6354 194.744C28.578 193.907 29.5206 193.07 30.4631 192.229ZM28.8153 220.902C27.6915 219.248 27.7178 218.146 28.8944 217.597C29.7974 219.241 31.1289 220.734 28.8153 220.902ZM28.9768 204.855C30.3577 206.512 31.5408 208.149 33.8808 207.236C31.4617 209.22 29.771 208.623 28.9768 204.855ZM32.7668 220.995C32.0912 221.811 31.6397 222.748 31.409 223.802C31.7419 221.441 33.4985 218.386 35.9768 220.881C34.8958 220.669 33.828 220.706 32.7668 220.995ZM35.2814 188.694C34.8266 188.385 34.3718 188.076 33.917 187.767C34.8761 189.274 34.5663 190.238 32.9876 190.664C33.5743 184.826 34.9453 188.859 34.497 183.083C37.2654 183.018 35.8417 187.747 35.2847 188.694H35.2814ZM155.64 162.444C155.195 163.137 153.597 165.488 153.003 164.087C153.277 163.665 152.842 163.102 152.344 162.721C152.562 161.723 153.211 160.793 154.589 159.248C155.31 160.772 155.521 161.699 155.64 162.447V162.444ZM152.97 167.509C152.68 166.249 152.46 165.326 152.338 164.551C152.677 165.93 153.036 167.461 152.97 167.509ZM147.048 165.776C147.826 164.623 148.815 164.091 150.008 164.177C153.386 165.398 149.81 166.788 147.674 167.317C147.595 167.228 147.503 167.125 147.424 167.039C147.862 166.898 148.436 166.723 149.197 166.514C148.482 166.267 147.763 166.023 147.048 165.776ZM147.289 167.083C147.371 167.173 147.45 167.262 147.529 167.351C146.313 167.639 145.664 167.619 147.289 167.083ZM147.473 179.208C147.776 178.697 148.08 178.182 148.383 177.671C148.271 181.353 146.053 180.382 143.367 179.472C144.738 179.383 146.105 179.294 147.476 179.208H147.473ZM145.588 171.984C146.725 175.941 147.074 173.566 145.835 177.822C144.125 177.708 145.993 174.534 142.892 173.765C143.502 172.804 144.402 172.211 145.588 171.981V171.984ZM143.041 176.291C140.697 179.129 140.407 180.327 136.739 180.821C136.943 179.599 141.61 175.667 143.041 176.291ZM142.721 184.462C142.556 185.928 142.391 187.393 142.226 188.862C140.855 187.64 140.144 184.105 142.721 184.462ZM140.47 208.496C141.798 207.048 141.749 211.313 141.722 210.984C140.796 209.326 139.059 212.919 139.333 209.378C140.331 211.022 139.867 209.148 140.467 208.496H140.47ZM141.861 172.399C141.834 172.859 141.561 173.601 140.849 174.822C139.54 171.576 141.317 172.859 141.861 172.399ZM135.058 170.975C136.393 170.471 136.864 169.692 136.469 168.638C137.131 165.669 138.272 171.051 137.814 171.747C137.695 171.926 135.319 171.136 135.058 170.975ZM134.346 194.652C132.811 193.512 132.234 194.041 132.616 196.234C131.443 194.895 130.273 193.56 129.1 192.222C130.388 191.714 133.648 193.533 134.346 194.652ZM134.742 214.018C134.495 213.712 133.743 213.235 132.217 212.463C133.163 210.311 134.126 212.237 134.742 214.018ZM131.087 181.295C129.271 180.296 128.144 179.829 127.735 180.615C129.301 177.602 131.604 180.43 131.087 181.295ZM129.835 190.389C127.89 190.53 125.929 190.674 123.464 190.853C125.692 189.192 128.909 189.15 129.835 190.389ZM119.265 187.253C121.015 187.699 122.057 184.782 124.084 186.298C121.628 188.522 121.203 188.618 119.265 187.253ZM124.871 178.913C124.997 180.797 121.197 182.523 119.845 181.24C119.321 186.082 111.959 190.362 112.252 184.414C113.425 185.149 114.602 185.883 115.775 186.618C118.326 184.637 118.418 182.692 116.055 180.773C118.603 180.011 117.38 182.547 119.796 181.175C119.658 180.759 119.519 180.344 119.377 179.929C121.2 179.534 123.029 179.194 124.868 178.913H124.871ZM116.21 175.711C117.361 174.026 118.811 173.673 120.561 174.651C118.537 176.222 118.784 177.012 121.299 177.026C118.214 178.065 117.219 179.627 118.432 175.33C113.495 177.719 114.912 176.408 116.21 175.711ZM111.53 179.442C112.7 179.805 113.739 179.651 114.651 179.016C114.375 181.508 113.211 183.817 111.53 179.442ZM107.315 182.671C106.053 184.212 106.386 185.125 108.314 185.413C107.648 186.46 107.068 187.551 106.574 188.694C105.308 188.354 105.325 187.328 106.626 185.616C105.414 186.731 104.198 187.85 102.985 188.965C101.637 187.805 106.251 183.254 107.319 182.671H107.315ZM99.8472 200.17C100.141 199.528 100.431 198.887 100.721 198.245C102.751 200.705 104.27 201.656 101.752 203.52C102.368 201.268 101.713 200.647 99.8439 200.17H99.8472ZM100.384 190.825C100.289 190.506 107.777 189.679 105.671 194.25C104.464 191.831 102.807 191.755 100.384 190.825ZM103.917 185.447C103.413 185.042 102.909 184.637 102.401 184.236C100.035 185.911 97.9819 189.339 96.2055 189.047C97.4447 187.091 102.385 180.269 103.917 185.451V185.447ZM96.1429 187.318C95.4738 188.457 94.3698 188.327 92.8373 186.933C92.8142 184.208 93.915 184.335 96.1429 187.318ZM93.5195 188.145C95.1772 189.391 96.4263 190.949 97.27 192.816C94.1721 194.284 95.052 186.501 92.0859 193.018C90.672 191.161 91.1499 189.538 93.5195 188.148V188.145ZM93.8161 197.888C92.9032 199.271 89.6405 194.583 93.3547 194.137C90.9818 197.97 94.9729 194.339 94.5247 196.766H92.5242C92.9559 197.14 93.3877 197.514 93.8194 197.884L93.8161 197.888ZM97.1513 198.814C96.9272 197.864 96.4032 197.888 95.5859 198.883C94.551 197.884 95.1937 196.982 97.5139 196.175C98.5685 200.421 97.8336 201.382 94.2709 200.582C95.23 199.992 96.1923 199.401 97.1513 198.811V198.814ZM83.6028 192.726C82.4757 191.862 81.3453 191 80.2181 190.135C82.9799 187.246 84.107 188.11 83.6028 192.726ZM78.4846 194.573C76.227 195.688 75.3339 195.063 75.8085 192.699C76.5632 192.891 81.5529 194.209 78.4846 194.573ZM78.5703 201.333C77.7464 202.785 76.9323 204.22 76.0392 205.795C75.8052 203.077 77.0444 200.97 78.5703 201.333ZM77.9375 197.891C76.3391 197.617 73.3268 197.819 73.6531 197.878C70.9968 198.674 79.0218 192.033 79.2162 196.755C77.7496 196.484 77.3344 196.872 77.9375 197.888V197.891ZM70.9572 203.482C70.2684 203.015 69.7246 202.789 69.2929 202.751C69.8565 202.562 70.2025 202.113 70.3344 201.409C70.7068 202.432 70.9506 203.389 70.9572 203.478V203.482ZM71.5669 197.582C71.5735 199.405 72.2623 199.823 73.6301 198.839C72.8094 200.088 71.9624 201.721 70.7529 200.009C70.397 198.646 70.6672 197.836 71.5669 197.582ZM72.2162 208.365C72.9478 208.774 73.6762 209.179 74.4078 209.587C72.7435 209.429 71.0792 209.271 69.4149 209.114C69.573 207.415 70.5057 207.164 72.2162 208.365ZM77.0147 181.94C77.5783 182.582 78.1418 183.223 78.7054 183.862C72.9281 183.248 78.2967 183.563 76.6851 184.926C74.0717 184.054 77.2652 182.489 77.0147 181.94ZM77.5321 188.526C78.043 188.265 78.5538 188.004 79.0646 187.743C79.7534 189.02 73.6762 188.577 72.0844 189.751C72.9544 186.669 75.614 185.664 77.5321 188.526ZM71.5999 194.899C71.4087 194.446 71.2209 193.993 71.0297 193.543C72.2426 193.399 73.5674 193.543 74.7901 193.543C73.8311 194.291 71.8767 194.895 71.0495 195.753C70.2454 196.584 65.7006 191.546 71.5999 194.902V194.899ZM70.2948 201.299C69.4116 200.839 68.5283 200.379 67.6451 199.923C68.5448 197.562 69.6192 199.491 70.2948 201.299ZM67.9549 187.661C68.7722 187.211 65.9577 192.019 65.2985 192.579C64.8569 188.824 67.4078 189.71 64.1187 184.562C70.0806 183.344 65.226 189.161 67.9549 187.661ZM66.7585 201.052C66.4784 203.876 66.0862 201.196 65.3051 202.946C63.621 199.875 63.0311 204.309 62.339 200.582C63.8122 200.736 65.2854 200.894 66.7618 201.052H66.7585ZM61.871 192.29C61.5579 193.921 61.1295 195.516 60.5857 197.081C61.0669 195.19 58.8126 193.046 61.871 192.29ZM55.3027 187.826C52.7387 188.059 50.1746 188.292 47.6106 188.526C49.2683 185.492 52.0367 188.708 50.8832 185.646C51.394 185.839 55.4247 186.878 55.3027 187.826ZM52.1323 195.983C49.3013 196.347 50.1911 192.658 50.6097 191.724C51.394 193.45 58.17 199.185 52.7585 198.914C53.6615 197.74 55.072 195.606 52.1323 195.983ZM54.4953 190.595C52.9628 190.104 52.1949 190.774 52.1982 192.599C48.6487 187.198 54.1295 190.376 54.4953 190.595ZM47.1624 186.624C46.5362 186.065 45.91 185.506 45.2838 184.946C46.3022 184.232 51.7928 181.816 51.3347 185.211C46.8064 184.497 50.6459 185.602 47.1591 186.628L47.1624 186.624ZM50.5833 171.679C49.2452 173.477 49.5748 175.268 51.572 177.056C50.112 177.201 43.5635 171.981 50.5833 171.679ZM47.3733 179.754C46.4274 181.339 45.4816 182.925 44.5357 184.51C44.427 183.862 45.4157 177.674 47.3733 179.754ZM43.2932 172.756C45.6595 171.675 46.7702 172.104 46.6219 174.043C42.466 173.628 45.653 177.89 41.9222 179.218C41.4707 176.631 44.9312 175.907 41.4674 173.676C43.1548 174.551 43.7612 174.242 43.2899 172.756H43.2932ZM42.8253 175.656C42.1892 176.095 41.5564 176.538 40.9236 176.977C39.9283 173.113 38.6298 177.31 37.5851 173.299C39.3318 174.084 41.0785 174.867 42.8253 175.653V175.656ZM40.9533 184.188C40.2909 181.964 39.4373 181.981 38.3991 184.246C40.9533 177.715 42.2913 182.105 40.9533 184.188ZM37.6444 185.959C38.7452 185.77 39.846 185.581 40.9467 185.392C41.0456 185.688 41.1412 185.979 41.24 186.274C39.4867 188.454 38.2871 188.351 37.6411 185.959H37.6444ZM38.8869 199.786C39.289 199.223 39.6911 198.66 40.0931 198.094C40.749 199.456 41.4015 200.819 42.0574 202.185C40.9994 201.385 39.9448 200.585 38.8869 199.786ZM43.4844 195.592C41.7509 193.749 38.4848 196.501 41.6091 191.731C39.7636 187.383 43.369 196.004 43.2702 193.358C42.2155 191.165 42.9142 190.156 45.3662 190.331C41.9585 195.547 47.5612 189.621 43.4844 195.595V195.592ZM45.3234 192.967C45.5574 190.966 48.4905 191.985 45.8144 189.463H48.6059C48.8761 192.431 47.782 193.601 45.3234 192.967ZM48.83 221.159C48.9025 222.68 48.9684 224.09 49.031 225.473C47.5842 224.818 47.4656 222.803 48.83 221.159ZM51.193 200.187C50.4877 200.465 49.7561 200.558 48.9981 200.472C50.7975 198.331 50.145 199.034 49.5419 196.628C51.3743 197.081 51.9246 198.269 51.193 200.191V200.187ZM55.7312 226.064C53.7768 222.707 54.3799 223.205 51.7368 224.238V222.271C54.5085 222.134 55.0457 224.344 57.3032 225.436C56.7792 225.645 56.2552 225.854 55.7312 226.067V226.064ZM55.8597 208.654C56.5287 209.738 56.9868 210.915 57.234 212.185C55.807 212.188 54.5843 206.526 54.5151 206.004C55.7411 207.652 57.346 206.619 57.7415 208.156C57.1153 208.321 56.4859 208.489 55.8597 208.654ZM62.2731 200.513C60.9383 199.988 59.597 199.463 57.9459 198.811C60.0518 198.08 62.2105 199.137 62.2731 200.513ZM58.8159 201.879C59.1224 201.265 59.4289 200.654 59.7387 200.04C62.6224 204.244 59.0697 202.96 58.8159 201.879ZM59.9925 208.667C61.1064 207.126 59.9068 204.923 60.8823 204.491C61.0702 204.927 62.3061 210.404 59.9925 208.667ZM63.7463 214.639C63.275 211.993 61.2251 213.311 61.3767 210.596C62.4214 212.412 63.9176 212.981 65.8654 212.312C65.1601 213.088 64.4515 213.863 63.7463 214.639ZM63.8847 209.718C63.6968 207.837 63.5419 206.279 63.3574 204.412C66.7256 205.74 66.7717 206.608 63.8847 209.718ZM68.3141 205.63C67.4836 205.465 66.6498 205.301 65.8193 205.136C69.0919 203.52 67.2694 204.532 66.6564 202.463C67.4836 202.758 68.1724 202.892 68.7261 202.864C68.2251 203.176 68.0801 204.086 68.3174 205.63H68.3141ZM68.8381 225.549C70.0443 221.084 69.1578 221.733 72.1206 221.355C72.2689 222.556 69.4775 224.856 68.8381 225.549ZM74.9648 223.352C74.9285 222.381 75.8678 223.085 76.3852 222.642C76.5896 222.868 76.8203 223.105 77.1136 223.352H74.9681H74.9648ZM76.438 220.109C75.6767 220.614 75.5053 221.238 75.9041 221.983C74.5396 221.276 73.1752 220.566 71.8075 219.859C74.7868 219.859 77.3641 219.845 80.2544 220.627C79.3547 222.827 78.0825 222.652 76.438 220.106V220.109ZM79.8984 228.809C79.3448 228.123 78.7944 227.436 78.2407 226.753C81.543 226.695 79.7831 229.114 83.3227 228.788C82.1791 229.835 81.0387 229.842 79.8984 228.809ZM85.2078 213.064C83.438 214.124 83.1579 215.112 80.6927 214.591C82.034 213.884 86.9051 212.336 86.0976 210.51C87.2313 211.873 86.9347 212.724 85.2078 213.064ZM85.8175 226.081C85.8933 224.478 85.9724 222.872 86.0482 221.269C86.5524 222.91 87.0567 224.554 87.5642 226.194C86.9842 226.156 86.4008 226.118 85.8208 226.081H85.8175ZM90.0063 216.64C89.3076 215.174 88.6122 213.705 87.9135 212.24C90.5798 210.771 90.1612 215.905 90.0063 216.64ZM86.3118 190.321C88.1673 188.035 85.7681 187.002 84.5585 185.537C88.9945 183.659 85.2869 192.524 90.3853 187.561C91.3279 188.285 90.9027 189.078 89.1033 189.947C89.6932 189.782 90.2831 189.614 90.8731 189.449C90.0557 190.115 88.5298 190.811 86.3118 190.321ZM91.173 210.606C91.5981 213.589 92.6725 213.688 94.4028 210.905C94.116 211.969 93.8326 213.036 93.5459 214.1C90.2996 214.021 89.5087 212.858 91.173 210.606ZM93.9776 228.83C93.9282 229.502 92.2803 231.352 93.4371 225.223C94.8839 225.436 95.0619 226.637 93.9776 228.83ZM97.3129 209.731C96.3999 208.928 95.487 208.125 94.5741 207.322C95.6518 207.096 97.4809 207.168 98.5718 207.322C98.1532 208.125 97.7314 208.928 97.3129 209.731ZM100.272 190.87C98.5191 191.384 98.5487 192.27 100.342 193.526C99.6264 193.09 94.0633 190.303 100.272 190.87ZM99.4715 216.667C102.49 217.086 102.339 216.983 99.4616 214.375C105.005 215.205 102.187 217.796 99.4715 216.667ZM103.163 211.004C99.6857 210.709 98.496 209.738 99.5968 208.087C102.906 208.245 104.095 209.216 103.163 211.004ZM101.877 195.77C103.786 195.791 105.183 196.937 105.664 194.418C107.187 194.662 107.513 196.052 106.643 198.585C106.069 198.142 105.493 197.699 104.919 197.256C103.034 198.605 102.019 198.108 101.877 195.77ZM107.358 204.834C107.295 206.234 107.233 207.624 107.17 209.011C105.931 206.234 106.106 204.964 107.358 204.834ZM109.803 220.607C109.606 220.83 106.521 222.216 107.137 222.968C104.553 219.807 107.47 222.038 108.561 221.197C108.871 220.298 108.91 219.385 108.68 218.452C109.359 218.366 110.535 219.79 109.807 220.607H109.803ZM108.245 188.217C109.296 185.265 115.706 187.555 112.496 190.001C111.817 187.819 110.4 187.225 108.245 188.217ZM111.494 197.088C110.374 194.185 116.339 197.493 111.036 193.838C112.704 191.264 113.926 194.6 113.505 196.381C114.81 196.899 114.141 197.133 111.494 197.088ZM114.572 189.421H116.329C116.085 190.746 115.844 192.074 115.601 193.399C114.002 193.903 113.659 192.575 114.572 189.421ZM118.016 192.174C119.793 194.312 119.101 195.28 115.94 195.07C116.632 194.106 117.324 193.138 118.016 192.174ZM118.557 213.318C116.945 213.75 116.25 213.421 116.467 212.336C117.852 212.079 119.443 213.53 119.101 210.716C120.386 211.588 120.201 212.453 118.557 213.318ZM119.084 196.615C119.473 195.365 119.859 194.127 120.244 192.888C120.545 195.693 120.159 196.935 119.084 196.615ZM120.785 197.871C122.383 195.822 122.667 195.341 123.741 195.262C123.026 196.824 122.604 197.974 120.785 197.871ZM125.643 202.099C124.515 200.997 123.392 199.892 122.264 198.79C123.484 198.766 126.704 200.609 125.643 202.099ZM124.621 196.899C124.426 196.35 124.232 195.798 124.041 195.249C124.403 195.242 124.835 195.259 125.428 195.28C129.106 195.396 122.126 196.793 127.389 198.78C125.392 199.655 124.469 199.031 124.621 196.899ZM129.083 195.959C132.741 196.364 133.885 197.486 132.511 199.329C128.978 198.677 127.837 197.555 129.083 195.959ZM129.456 202.85C130.257 202.13 133.051 205.551 133.48 205.966C128.787 205.689 131.466 206.282 129.456 202.85ZM130.695 215.785C131.548 214.491 134.702 214.841 134.814 214.265C135.081 215.075 135.276 215.813 135.352 216.07C133.799 215.974 132.247 215.881 130.695 215.785ZM137.744 197.613C136.891 199.793 134.023 193.279 136.726 193.227C135.661 195.551 136.073 196.378 137.968 195.705C137.896 196.344 137.82 196.978 137.748 197.617L137.744 197.613ZM137.998 186.522C135.546 187.071 136.265 186.093 135.144 188.714C134.887 186.607 135.17 182.719 133.499 187.016C130.306 180.938 132.636 186.175 134.498 182.592C135.605 185.313 135.932 186.611 138.97 185.732C138.753 185.128 138.532 184.524 138.314 183.924C139.676 183.337 140.526 185.962 137.998 186.528V186.522ZM143.238 216.482C142.582 214.55 139.326 214.639 139.264 213.822C139.125 211.979 144.596 213.211 143.238 216.482ZM140.055 206.752C140.49 204.446 143.752 206.77 144.27 207.768C142.866 207.428 141.459 207.092 140.055 206.752ZM147.018 212.353C147.414 212.847 147.809 213.342 148.202 213.836C146.129 212.919 146.297 210.812 148.287 209.673C149.319 211.691 149.454 211.911 147.018 212.35V212.353ZM147.358 191.251C147.262 191.209 141.838 189.47 143.377 188.605C144.435 188.807 145.338 189.346 146.092 190.218C146.854 188.426 146.956 186.01 149.563 186.357C147.645 187.403 146.91 189.034 147.358 191.251ZM148.904 170.666C148.798 169.952 148.689 169.239 148.584 168.528C150.047 170.138 151.293 171.466 151.448 171.521C152.624 170.433 155.047 167.91 156.998 168.092C155.422 168.834 154.117 171.603 152.074 172.67C152.654 172.986 156.952 174.867 156.108 176.291C153.959 175.186 152.295 173.552 150.044 174.589C150.469 173.549 150.914 172.516 151.372 171.493C150.548 171.219 149.724 170.941 148.904 170.666ZM157.222 170.409C157.291 171.843 157.222 173.302 157.222 174.74C156.019 174.699 156.006 170.364 157.222 170.409ZM150.202 179.074C151.253 178.268 152.305 177.465 153.353 176.658C153.511 179.692 157.265 178 156.052 182.493C157.683 180.492 158.781 180.797 159.344 183.416C158.758 183.35 154.681 183.388 154.058 182.76C153.916 182.619 156.289 179.143 153.152 179.006C150.34 178.882 152.146 180.389 150.202 182.142V179.074ZM153.04 192.905C152.259 194.374 151.626 195.568 151.016 196.721C149.793 195.132 150.4 193.584 153.04 192.905ZM154.842 200.733C156.174 199.7 158.662 200.451 157.469 201.893C153.438 198.283 157.667 204.357 152.496 199.985C153.277 200.232 154.061 200.482 154.842 200.729V200.733ZM155.861 215.552C154.493 214.704 154.388 213.692 155.544 212.518C154.892 212.563 154.457 212.37 154.167 212.037C154.73 211.838 155.294 211.636 155.861 211.437C155.792 212.799 155.861 214.186 155.861 215.552ZM154.124 211.993C152.75 210.27 155.251 204.875 155.88 204.879C155.752 207.065 155.03 210.064 154.124 211.993ZM156.401 211.193C156.47 210.184 157.008 210.205 158.016 211.255C159.891 208.746 157.851 207.034 156.596 205.071C160.251 206.293 159.644 208.194 159.829 212.096C158.685 211.794 157.542 211.495 156.398 211.193H156.401ZM159.713 190.602C159.163 190.859 158.613 191.117 158.062 191.374C157.281 188.2 162.986 189.13 159.713 190.602ZM159.486 168.751C158.547 167.852 157.766 167.746 157.041 168.068C156.161 165.168 154.806 164.976 152.98 167.502C154.585 164.362 155.363 162.948 155.633 162.468C155.818 163.631 155.785 164.352 157.133 166.181C157.248 163.435 156.688 163.247 159.875 164.269C157.42 161.922 157.439 160.45 159.937 159.852C161.727 164.87 160.02 163.71 159.479 168.748L159.486 168.751ZM160.784 171.902C162.495 171.593 162.999 178.505 162.452 179.551C162.327 179.49 160.854 175.505 160.798 174.513L160.784 171.902ZM163.609 198.032C162.778 199.968 162.327 194.435 163.322 196.597C164.535 195.166 164.334 194.717 162.719 195.242C161.809 195.777 161.345 195.695 161.318 194.995C163.032 194.662 163.816 194.463 164.074 194.322C164.565 195.17 164.505 195.949 163.609 198.032ZM162.689 192.486C163.197 193.162 163.599 193.629 163.889 194.051C163.174 193.828 161.44 193.574 162.689 192.486ZM162.818 187.404C162.277 186.727 161.74 186.051 161.2 185.375C162.432 184.795 163.662 184.215 164.894 183.635C164.202 184.891 163.51 186.147 162.818 187.404ZM172.896 174.095C173.015 177.331 170.118 175.461 169.073 177.448C169.538 175.646 170.681 174.86 172.514 175.09C170.859 174.63 170.988 174.297 172.896 174.095ZM171.716 167.056C171.977 170.821 172.946 172.132 169.073 173.549C169.165 172.506 171.301 168.532 171.716 167.056ZM173.12 157.303C174.659 158.754 170.111 159.677 173.644 161.682C168.404 162.567 171.865 158.414 173.12 157.303ZM168.941 151.691C170.358 151.516 171.917 151.691 173.344 151.691C171.696 151.921 171.047 152.621 171.39 153.795C173.114 154.176 173.15 152.889 173.545 155.291C171.271 155.799 170.411 153.96 170.803 157.241C167.369 157.526 168.154 154.31 170.701 152.831C170.115 152.45 169.528 152.069 168.941 151.688V151.691ZM169.498 170.117C169.736 172.204 168.902 172.674 167 171.531C166.74 169.616 167.574 169.146 169.498 170.117ZM167.745 201.289C165.339 199.511 165.408 198.389 167.953 197.926C168.948 199.645 168.879 200.767 167.745 201.289ZM166.486 176.895C168.757 177.715 168.694 179.781 170.233 181.278C169.258 182.064 166.898 177.506 166.486 176.895ZM170.227 188.738C170.503 187.174 170.78 185.609 171.057 184.044C173.061 185.859 172.784 187.424 170.227 188.738ZM170.945 183.186C169.904 182.245 172 178.954 173.384 180.162C172.57 181.171 171.756 182.18 170.945 183.186Z" fill="#DE713E"/>
</g>
<defs>
<linearGradient id="paint0_linear_114_3612" x1="124.397" y1="196.903" x2="177.566" y2="196.903" gradientUnits="userSpaceOnUse">
<stop stop-color="#DD7D38"/>
<stop offset="0.24" stop-color="#E9833B"/>
<stop offset="0.57" stop-color="#F2893E"/>
<stop offset="1" stop-color="#F68B3F"/>
</linearGradient>
<linearGradient id="paint1_linear_114_3612" x1="101.403" y1="224.348" x2="106.331" y2="244.562" gradientUnits="userSpaceOnUse">
<stop stop-color="#DD7D38"/>
<stop offset="0.24" stop-color="#E9833B"/>
<stop offset="0.57" stop-color="#F2893E"/>
<stop offset="1" stop-color="#F68B3F"/>
</linearGradient>
<linearGradient id="paint2_linear_114_3612" x1="67.6716" y1="224.348" x2="72.5995" y2="244.562" gradientUnits="userSpaceOnUse">
<stop stop-color="#DD7D38"/>
<stop offset="0.24" stop-color="#E9833B"/>
<stop offset="0.57" stop-color="#F2893E"/>
<stop offset="1" stop-color="#F68B3F"/>
</linearGradient>
</defs>
</svg>
