<svg width="48" height="87" viewBox="0 0 48 87" fill="none" xmlns="http://www.w3.org/2000/svg">
<g clip-path="url(#clip0_255_6461)">
<path d="M9.32468 83.6257C30.5072 59.8417 28.7047 23.4338 5.53461 1.53721C4.88448 0.924385 3.86257 0.979556 3.26628 1.64067L-72.5898 86.8248C-73.1791 87.4806 -73.1184 88.5173 -72.4387 89.0967C-48.1388 109.719 -11.8595 107.422 9.32303 83.6379L9.32468 83.6257Z" fill="#FFB13B"/>
<path d="M4.46301 79.2731C23.6239 57.7591 21.635 24.6408 0.0262932 5.28582L-69.3496 83.1802C-47.7462 102.528 -14.7032 100.78 4.4577 79.2661L4.46301 79.2731Z" fill="#FFE5BD"/>
<path d="M1.55087 76.6709C19.2811 56.7586 17.45 26.095 -2.55514 8.17806L-66.7753 80.2931C-46.7754 98.2029 -16.1864 96.5884 1.55087 76.6709Z" fill="#FFF3E0"/>
<path d="M-24.9151 50.8387L-3.7924 71.0586C-2.67219 72.1332 -0.814713 71.965 0.172961 70.6763C5.90777 63.1551 8.94776 54.3478 9.34013 45.5773C9.41173 43.9765 8.0693 42.7386 6.49246 42.9153L-23.2051 46.1863C-25.4933 46.4374 -26.5406 49.2847 -24.9098 50.8458L-24.9151 50.8387Z" fill="#FFB13B"/>
<path d="M-23.3187 43.0796L6.44975 41.6994C8.0379 41.6245 9.28392 40.1845 9.10147 38.6102C8.09533 29.9479 4.45827 21.6634 -1.7678 15.0728C-2.83057 13.9437 -4.6937 14.0609 -5.73253 15.311L-25.3346 38.7056C-26.8426 40.5095 -25.6116 43.1796 -23.3118 43.0743L-23.3187 43.0796Z" fill="#FFB13B"/>
<g style="mix-blend-mode:multiply" opacity="0.05">
<path d="M7.001 42.9062C7.10504 43.2031 7.17056 43.5071 7.15571 43.8497C6.90017 52.6271 4.01131 61.4748 -1.59992 69.1013C-2.40499 70.1966 -3.8423 70.4998 -4.95837 69.9523L-3.80461 71.0568C-2.68441 72.1315 -0.826932 71.9633 0.160742 70.6746C5.89555 63.1534 8.93554 54.346 9.32791 45.5756C9.39393 44.1557 8.33813 43.0213 6.99403 42.9115L7.001 42.9062Z" fill="black"/>
</g>
<g style="mix-blend-mode:multiply" opacity="0.05">
<path d="M-1.77488 15.0781C-2.30709 14.5197 -3.02453 14.2671 -3.74322 14.3028C2.15665 20.6651 5.69961 28.5789 6.80296 36.8914C7.00999 38.4693 5.78689 39.925 4.20771 40.0263L-25.5271 41.9003C-25.5271 41.9003 -25.5709 41.9003 -25.5955 41.8968C-25.1426 42.6257 -24.3321 43.1172 -23.3172 43.0673L6.45129 41.6871C8.03945 41.6122 9.28547 40.1722 9.10302 38.5979C8.09688 29.9356 4.45983 21.6511 -1.76625 15.0605L-1.77488 15.0781Z" fill="black"/>
</g>
</g>
<defs>
<clipPath id="clip0_255_6461">
<rect width="115.861" height="70.1785" fill="white" transform="translate(-87 69.9111) rotate(-37.1143)"/>
</clipPath>
</defs>
</svg>
