<svg width="83" height="91" viewBox="0 0 83 91" fill="none" xmlns="http://www.w3.org/2000/svg">
<path d="M2.642 7.45281C0.463057 2.59132 -3.6005 -0.951798 -8.41746 -2.76006C-10.366 1.83061 -10.4877 7.09172 -8.30878 11.9532C-6.12983 16.8147 -2.06628 20.3578 2.75068 22.1661C4.6992 17.5754 4.82095 12.3143 2.642 7.45281Z" fill="#00A291"/>
<path d="M1.845 41.1242C1.845 41.1242 -3.32877 21.3015 8.92542 5.82438L13.3493 9.60419L10.6019 9.48159C10.6019 9.48159 -0.67149 17.919 3.59653 41.4241L1.85367 41.1191L1.845 41.1242Z" fill="#7D6D5F"/>
<path d="M14.2997 17.3962C8.98017 18.5243 4.68394 21.7184 2.01026 25.9824C6.36007 28.7712 11.6944 29.9278 17.0193 28.8082C22.3389 27.6801 26.6351 24.486 29.3088 20.222C24.959 17.4332 19.6246 16.2766 14.2997 17.3962Z" fill="#00A291"/>
<path d="M3.95593 31.2254C30.1754 35.8265 16.3702 56.544 26.9074 87.6212C37.4982 118.877 33.2439 132.462 21.4343 140.468C9.82226 148.334 -15.3198 143.496 -15.3198 143.496C-15.3198 143.496 -40.6084 139.48 -48.9186 128.127C-57.3722 116.567 -56.8462 102.328 -36.4457 76.5074C-16.1691 50.8295 -22.2494 26.6277 3.97 31.2288L3.95593 31.2254Z" fill="#BAD481"/>
<g style="mix-blend-mode:multiply" opacity="0.05">
<path d="M13.2988 88.9846C13.6039 123.321 5.15178 135.902 -8.84118 140.839C-13.8903 142.617 -20.1627 142.185 -26.087 140.93C-20.083 142.687 -15.3904 143.429 -15.3904 143.429C-15.3904 143.429 9.76591 148.27 21.3846 140.399C33.2009 132.388 37.4576 118.796 26.8608 87.5231C20.8196 69.6912 22.7824 55.2652 20.6101 45.3367C19.3906 55.8589 13.1206 69.7361 13.2901 88.9897L13.2988 88.9846Z" fill="#1D1D1B"/>
</g>
</svg>
