<svg width="158" height="253" viewBox="0 0 158 253" fill="none" xmlns="http://www.w3.org/2000/svg">
<g style="mix-blend-mode:multiply" opacity="0.05">
<path d="M80.9576 252.8C101.757 252.8 118.619 251.418 118.619 249.714C118.619 248.009 101.757 246.627 80.9576 246.627C60.158 246.627 43.2966 248.009 43.2966 249.714C43.2966 251.418 60.158 252.8 80.9576 252.8Z" fill="black"/>
</g>
<path d="M105.55 208.783L100.287 207.667L99.5977 215.603L104.901 216.532L105.55 208.783Z" fill="#EF4136"/>
<path d="M88.1291 220.65L87.6731 247.89C87.6427 249.029 88.5548 249.972 89.6898 249.972H99.5771C100.847 249.972 101.32 248.3 100.243 247.629L95.6789 244.79C94.1723 243.854 93.2535 242.199 93.2535 240.418V220.134L88.1291 220.65Z" fill="url(#paint0_linear_114_3790)"/>
<path d="M63.7268 220.65L63.2708 247.89C63.2404 249.029 64.1524 249.972 65.2874 249.972H75.1747C76.4448 249.972 76.9177 248.3 75.8402 247.629L71.2765 244.79C69.77 243.854 68.8512 242.199 68.8512 240.418V220.134L63.7268 220.65Z" fill="url(#paint1_linear_114_3790)"/>
<path d="M53.0962 200.62L55.5925 223.19L76.4413 223.963L79.6132 217.211L82.6872 224.058L101.837 223.349L102.864 201.681L53.0962 200.62Z" fill="#EF4136"/>
<path d="M55.2109 221.453C55.596 221.453 77.117 222.033 77.117 222.033" stroke="white" stroke-width="0.71" stroke-miterlimit="10" stroke-linecap="round"/>
<path d="M81.8228 221.453C82.2078 221.453 101.807 220.972 101.807 220.972" stroke="white" stroke-width="0.71" stroke-miterlimit="10" stroke-linecap="round"/>
<path d="M53.2889 216.149H58.6666L57.7073 208.24L52.3262 208.43L53.2889 216.149Z" fill="#EF4136" stroke="white" stroke-width="0.71" stroke-miterlimit="10" stroke-linecap="round"/>
<path d="M117.271 196.065C122.527 203.452 131.698 206.782 140.058 204.438C147.324 202.4 156.11 192.653 157.88 185.067C158.39 182.062 155.553 184.738 155.013 186.132C157.421 179.305 154.519 180.278 152.746 184.768C153.462 177.548 151.347 179.674 149.844 184.833C148.503 183.276 147.098 182.153 146.49 182.526C145.976 182.838 146.699 184.266 146.706 185.989C146.716 189.37 140.832 197.076 138.092 197.428C132.661 199.592 124.256 191.775 124.256 191.775C124.256 191.775 120.436 193.393 117.274 196.062L117.271 196.065Z" fill="url(#paint2_linear_114_3790)"/>
<path d="M40.7293 196.065C35.4732 203.452 26.302 206.782 17.9416 204.438C10.6756 202.4 1.88947 192.653 0.119413 185.067C-0.39066 182.062 2.44683 184.738 2.9873 186.132C0.578813 179.305 3.48048 180.278 5.25392 184.768C4.53779 177.548 6.65239 179.674 8.15559 184.833C9.49664 183.276 10.9019 182.153 11.5133 182.526C12.0267 182.838 11.3039 184.266 11.2971 185.989C11.287 189.37 17.1714 197.076 19.9109 197.428C25.3427 199.592 33.7471 191.775 33.7471 191.775C33.7471 191.775 37.5675 193.393 40.7293 196.062V196.065Z" fill="#8BC53F"/>
<path d="M95.0978 0.800049C95.0978 0.800049 79.2585 4.19148 73.3538 15.5358C67.4458 26.8767 66.608 38.1431 73.7018 41.8702C80.7955 45.5974 89.5377 38.4788 95.4457 27.1379C101.354 15.7969 95.0978 0.80344 95.0978 0.80344V0.800049Z" fill="#8BC53F"/>
<mask id="mask0_114_3790" style="mask-type:luminance" maskUnits="userSpaceOnUse" x="68" y="0" width="30" height="43">
<path d="M95.0978 0.800049C95.0978 0.800049 79.2585 4.19148 73.3538 15.5358C67.4458 26.8767 66.608 38.1431 73.7018 41.8702C80.7955 45.5974 89.5377 38.4788 95.4457 27.1379C101.354 15.7969 95.0978 0.80344 95.0978 0.80344V0.800049Z" fill="white"/>
</mask>
<g mask="url(#mask0_114_3790)">
<path d="M91.0946 9.57674L86.0581 0.633545" stroke="#006838" stroke-width="1.42" stroke-linecap="round" stroke-linejoin="round"/>
<path d="M85.6362 19.6933L75.8232 8.23706" stroke="#006838" stroke-width="1.42" stroke-linecap="round" stroke-linejoin="round"/>
<path d="M81.9065 30.1389L68.9419 21.8062" stroke="#006838" stroke-width="1.42" stroke-linecap="round" stroke-linejoin="round"/>
</g>
<mask id="mask1_114_3790" style="mask-type:luminance" maskUnits="userSpaceOnUse" x="73" y="0" width="25" height="43">
<path d="M73.7051 41.8668C80.7988 45.594 89.541 38.4754 95.449 27.1345C101.357 15.7936 95.1011 0.800049 95.1011 0.800049L73.7051 41.8668Z" fill="white"/>
</mask>
<g mask="url(#mask1_114_3790)">
<path d="M73.7051 41.8668C80.7988 45.594 89.541 38.4754 95.449 27.1345C101.357 15.7936 95.1011 0.800049 95.1011 0.800049L73.7051 41.8668Z" fill="#37B34A"/>
<path d="M77.1743 33.3815L96.5537 32.6794" stroke="#006838" stroke-width="1.42" stroke-linecap="round" stroke-linejoin="round"/>
<path d="M81.6367 24.0821L101.003 20.1243" stroke="#006838" stroke-width="1.42" stroke-linecap="round" stroke-linejoin="round"/>
<path d="M86.4028 14.9387L106.069 10.7605" stroke="#006838" stroke-width="1.42" stroke-linecap="round" stroke-linejoin="round"/>
</g>
<path d="M78.9174 66.577C80.2247 59.5703 80.022 51.4105 76.8839 44.8956C75.5225 41.7687 73.4248 39.2217 70.9386 36.9562C69.128 35.5149 62.4903 32.3134 63.676 37.9364C64.3178 40.9717 70.8981 43.0201 72.8742 45.5806C77.448 51.2613 79.0153 59.4312 78.9174 66.5804V66.577Z" fill="#603813"/>
<path d="M36.7265 125.839C63.3347 94.7291 32.6662 57.5251 78.8463 57.5251C125.027 57.5251 94.358 94.7291 120.97 125.839C139.518 147.527 157.306 206.243 78.8463 207.731C0.386328 206.243 18.1747 147.527 36.7265 125.839Z" fill="#8BC53F"/>
<path d="M102.651 159.319C102.685 158.427 101.992 157.677 101.101 157.643C100.212 157.613 99.4691 158.308 99.4387 159.197C99.4049 160.089 100.097 160.838 100.986 160.869C101.874 160.899 102.621 160.207 102.651 159.315V159.319Z" fill="#7CB039"/>
<path d="M115.835 161.608C115.862 160.838 115.264 160.194 114.498 160.163C113.731 160.136 113.089 160.736 113.062 161.506C113.035 162.276 113.633 162.92 114.396 162.947C115.163 162.978 115.805 162.378 115.832 161.608H115.835Z" fill="#7CB039"/>
<path d="M110.258 166.634C110.285 165.864 109.687 165.22 108.924 165.193C108.157 165.162 107.515 165.762 107.485 166.532C107.455 167.302 108.056 167.946 108.819 167.973C109.586 168.001 110.228 167.4 110.258 166.634Z" fill="#7CB039"/>
<path d="M106.282 175.906C106.326 174.75 105.424 173.777 104.272 173.736C103.12 173.695 102.151 174.597 102.11 175.754C102.067 176.91 102.968 177.884 104.12 177.928C105.272 177.968 106.242 177.066 106.282 175.91V175.906Z" fill="#7CB039"/>
<path d="M118.706 175.38C118.74 174.424 117.997 173.623 117.044 173.586C116.092 173.552 115.291 174.298 115.257 175.255C115.224 176.211 115.967 177.011 116.919 177.049C117.872 177.083 118.673 176.337 118.706 175.38Z" fill="#7CB039"/>
<path d="M106.296 148.846C106.33 147.89 105.59 147.089 104.634 147.052C103.681 147.018 102.884 147.764 102.85 148.721C102.816 149.677 103.56 150.481 104.512 150.515C105.465 150.549 106.265 149.803 106.299 148.846H106.296Z" fill="#7CB039"/>
<path d="M97.3846 115.796C97.4184 114.84 96.6752 114.036 95.7226 114.002C94.77 113.968 93.9695 114.715 93.9357 115.671C93.9019 116.627 94.6417 117.428 95.5943 117.465C96.5468 117.499 97.3474 116.753 97.3812 115.796H97.3846Z" fill="#7CB039"/>
<path d="M105.809 119.038C105.843 118.082 105.1 117.278 104.147 117.244C103.195 117.21 102.394 117.956 102.36 118.913C102.327 119.869 103.07 120.67 104.022 120.707C104.975 120.741 105.776 119.995 105.809 119.042V119.038Z" fill="#7CB039"/>
<path d="M116.014 128.89C116.048 127.934 115.305 127.13 114.352 127.096C113.399 127.062 112.602 127.809 112.565 128.765C112.531 129.721 113.274 130.522 114.227 130.559C115.18 130.593 115.98 129.847 116.014 128.894V128.89Z" fill="#7CB039"/>
<path d="M106.353 128.195C106.387 127.239 105.647 126.435 104.691 126.401C103.739 126.367 102.938 127.113 102.904 128.07C102.871 129.026 103.614 129.827 104.563 129.864C105.516 129.898 106.316 129.152 106.35 128.195H106.353Z" fill="#7CB039"/>
<path d="M125.652 150.457C125.685 149.578 125 148.846 124.128 148.812C123.257 148.781 122.524 149.463 122.49 150.341C122.459 151.216 123.138 151.956 124.013 151.986C124.888 152.017 125.621 151.332 125.652 150.457Z" fill="#7CB039"/>
<path d="M117.811 149.717C117.842 148.839 117.159 148.103 116.288 148.073C115.416 148.042 114.683 148.724 114.65 149.602C114.616 150.48 115.298 151.213 116.173 151.247C117.048 151.277 117.781 150.592 117.815 149.717H117.811Z" fill="#7CB039"/>
<path d="M125.226 143.671C125.256 142.792 124.574 142.056 123.702 142.026C122.827 141.992 122.094 142.677 122.064 143.555C122.034 144.434 122.713 145.17 123.587 145.2C124.459 145.231 125.195 144.549 125.226 143.671Z" fill="#7CB039"/>
<path d="M127.918 156.181C127.949 155.303 127.266 154.567 126.395 154.537C125.52 154.506 124.79 155.191 124.756 156.066C124.726 156.941 125.408 157.68 126.28 157.711C127.155 157.745 127.888 157.06 127.922 156.181H127.918Z" fill="#7CB039"/>
<path d="M110.299 144.027C110.329 143.193 109.681 142.491 108.85 142.46C108.019 142.429 107.323 143.081 107.293 143.915C107.262 144.749 107.911 145.451 108.742 145.482C109.576 145.512 110.272 144.861 110.302 144.027H110.299Z" fill="#7CB039"/>
<path d="M91.6387 150.338C91.6691 149.504 91.0206 148.805 90.1896 148.771C89.3586 148.741 88.6627 149.392 88.629 150.226C88.5986 151.061 89.2471 151.763 90.0781 151.793C90.9091 151.824 91.6083 151.172 91.6387 150.338Z" fill="#7CB039"/>
<path d="M114.805 134.938C114.846 133.785 113.951 132.815 112.799 132.771C111.65 132.727 110.684 133.629 110.644 134.785C110.6 135.942 111.502 136.908 112.65 136.952C113.802 136.993 114.765 136.091 114.809 134.938H114.805Z" fill="#7CB039"/>
<path d="M102.07 124.092C102.114 122.864 101.158 121.833 99.9352 121.789C98.7124 121.745 97.6855 122.705 97.6416 123.929C97.5977 125.157 98.5536 126.188 99.7731 126.232C100.996 126.276 102.023 125.316 102.067 124.092H102.07Z" fill="#7CB039"/>
<path d="M98.881 139.997C98.9114 139.092 98.2122 138.336 97.3103 138.302C96.4117 138.271 95.6551 138.973 95.6213 139.879C95.5875 140.784 96.2901 141.541 97.192 141.574C98.0939 141.608 98.8506 140.903 98.881 139.997Z" fill="#7CB039"/>
<path d="M97.6279 131.15C97.6617 130.247 96.959 129.488 96.0571 129.454C95.1586 129.423 94.4019 130.125 94.3681 131.031C94.3377 131.936 95.037 132.693 95.9389 132.727C96.8408 132.76 97.5941 132.055 97.6279 131.15Z" fill="#7CB039"/>
<path d="M99.1988 149.714C99.2427 148.565 98.3476 147.598 97.2024 147.557C96.0573 147.517 95.0946 148.412 95.0541 149.562C95.0135 150.711 95.9087 151.678 97.0538 151.719C98.2023 151.759 99.1617 150.864 99.2022 149.711L99.1988 149.714Z" fill="#7CB039"/>
<path d="M88.5922 160.417C88.6259 159.43 87.8591 158.599 86.8762 158.562C85.8932 158.528 85.0656 159.298 85.0284 160.288C84.9946 161.275 85.7614 162.106 86.7444 162.14C87.7308 162.177 88.555 161.404 88.5922 160.417Z" fill="#7CB039"/>
<path d="M97.0299 173.346C97.0704 172.247 96.2158 171.325 95.118 171.284C94.0235 171.243 93.1047 172.101 93.0642 173.2C93.027 174.299 93.8816 175.225 94.9761 175.265C96.0705 175.306 96.9927 174.445 97.0333 173.346H97.0299Z" fill="#7CB039"/>
<path d="M98.4995 179.928C98.5299 179.057 97.851 178.321 96.9794 178.29C96.1113 178.26 95.3783 178.941 95.3479 179.813C95.3141 180.688 95.9964 181.421 96.8646 181.451C97.7361 181.482 98.4657 180.8 98.4961 179.928H98.4995Z" fill="#7CB039"/>
<path d="M117.352 181.634C117.396 180.43 116.46 179.423 115.264 179.379C114.065 179.335 113.059 180.274 113.015 181.475C112.971 182.679 113.906 183.686 115.102 183.73C116.301 183.774 117.308 182.835 117.352 181.634Z" fill="#7CB039"/>
<path d="M129.594 167.275C129.631 166.298 128.871 165.474 127.895 165.44C126.918 165.403 126.101 166.166 126.067 167.146C126.03 168.126 126.79 168.947 127.763 168.981C128.739 169.018 129.557 168.252 129.59 167.275H129.594Z" fill="#7CB039"/>
<path d="M112.971 152.587C113.015 151.407 112.096 150.416 110.924 150.376C109.748 150.332 108.765 151.254 108.721 152.431C108.677 153.611 109.596 154.602 110.768 154.642C111.944 154.686 112.93 153.764 112.971 152.587Z" fill="#7CB039"/>
<path d="M90.6118 167.791C90.6557 166.614 89.7369 165.62 88.5614 165.576C87.3892 165.535 86.4028 166.454 86.3589 167.635C86.315 168.815 87.2338 169.805 88.406 169.849C89.5781 169.893 90.5645 168.971 90.6084 167.791H90.6118Z" fill="#7CB039"/>
<path d="M120.19 141.117C120.223 140.153 119.477 139.346 118.517 139.312C117.558 139.278 116.754 140.028 116.72 140.991C116.687 141.954 117.433 142.761 118.392 142.795C119.352 142.829 120.156 142.08 120.193 141.117H120.19Z" fill="#7CB039"/>
<path d="M121.527 156.85C121.561 155.887 120.815 155.079 119.855 155.046C118.896 155.008 118.092 155.761 118.055 156.724C118.021 157.684 118.768 158.495 119.727 158.529C120.686 158.562 121.49 157.81 121.527 156.85Z" fill="#7CB039"/>
<path d="M125.361 175.045C125.398 174.081 124.648 173.274 123.689 173.237C122.729 173.203 121.926 173.956 121.892 174.916C121.858 175.879 122.604 176.686 123.564 176.72C124.523 176.757 125.327 176.004 125.361 175.041V175.045Z" fill="#7CB039"/>
<path d="M108.654 183.235C108.691 182.272 107.941 181.465 106.982 181.431C106.022 181.397 105.218 182.146 105.184 183.11C105.147 184.069 105.897 184.88 106.853 184.914C107.812 184.948 108.616 184.198 108.654 183.235Z" fill="#7CB039"/>
<path d="M105.232 134.7C105.269 133.686 104.479 132.835 103.469 132.798C102.459 132.761 101.611 133.554 101.574 134.568C101.536 135.582 102.327 136.433 103.337 136.471C104.347 136.508 105.195 135.718 105.232 134.7Z" fill="#7CB039"/>
<path d="M110.988 123.855C111.025 122.858 110.248 122.02 109.255 121.986C108.262 121.949 107.427 122.729 107.39 123.726C107.356 124.723 108.13 125.56 109.123 125.598C110.12 125.635 110.954 124.855 110.988 123.858V123.855Z" fill="#7CB039"/>
<path d="M68.8063 156.232C71.4388 145.034 64.5309 133.813 53.377 131.17C42.2231 128.527 31.0469 135.462 28.4144 146.661C25.7818 157.859 32.6897 169.08 43.8437 171.723C54.9976 174.366 66.1737 167.43 68.8063 156.232Z" fill="white"/>
<path d="M123.754 166.188C131.857 158.052 131.857 144.861 123.754 136.725C115.65 128.589 102.511 128.589 94.4074 136.725C86.3037 144.861 86.3037 158.052 94.4074 166.188C102.511 174.324 115.65 174.324 123.754 166.188Z" fill="white"/>
<mask id="mask2_114_3790" style="mask-type:luminance" maskUnits="userSpaceOnUse" x="27" y="130" width="43" height="43">
<path d="M68.8063 156.232C71.4388 145.034 64.5309 133.813 53.377 131.17C42.2231 128.527 31.0469 135.462 28.4144 146.661C25.7818 157.859 32.6897 169.08 43.8437 171.723C54.9976 174.366 66.1737 167.43 68.8063 156.232Z" fill="white"/>
</mask>
<g mask="url(#mask2_114_3790)">
<path d="M68.0477 144.524C70.1802 135.453 64.5845 126.364 55.5496 124.223C46.5146 122.082 37.4616 127.7 35.3292 136.771C33.1967 145.842 38.7923 154.931 47.8273 157.072C56.8623 159.213 65.9153 153.595 68.0477 144.524Z" fill="#414042"/>
</g>
<mask id="mask3_114_3790" style="mask-type:luminance" maskUnits="userSpaceOnUse" x="88" y="130" width="42" height="43">
<path d="M123.754 166.188C131.857 158.052 131.857 144.861 123.754 136.725C115.65 128.589 102.511 128.589 94.4074 136.725C86.3037 144.861 86.3037 158.052 94.4074 166.188C102.511 174.324 115.65 174.324 123.754 166.188Z" fill="white"/>
</mask>
<g mask="url(#mask3_114_3790)">
<path d="M118.477 156.309C127.077 152.801 131.217 142.957 127.723 134.322C124.229 125.687 114.424 121.531 105.824 125.039C97.2231 128.547 93.0835 138.391 96.5776 147.026C100.072 155.66 109.876 159.817 118.477 156.309Z" fill="#414042"/>
</g>
<path d="M85.3794 175.615C85.3794 179.155 82.4541 182.024 78.8465 182.024C75.2388 182.024 72.3135 179.155 72.3135 175.615" stroke="#414042" stroke-width="1.42" stroke-linecap="round" stroke-linejoin="round"/>
<mask id="mask4_114_3790" style="mask-type:luminance" maskUnits="userSpaceOnUse" x="20" y="57" width="117" height="151">
<path d="M36.7265 125.839C63.3347 94.7291 32.6662 57.5251 78.8463 57.5251C125.027 57.5251 94.358 94.7291 120.97 125.839C139.518 147.527 157.306 206.243 78.8463 207.731C0.386328 206.243 18.1747 147.527 36.7265 125.839Z" fill="white"/>
</mask>
<g mask="url(#mask4_114_3790)">
<g style="mix-blend-mode:multiply" opacity="0.15">
<path d="M146.396 183.242C146.727 182.228 147.058 181.214 147.392 180.2C145.882 181.085 145.402 180.047 144.588 179.003C145.659 179.267 146.727 179.535 147.797 179.8V171.982C147.652 171.908 147.51 171.837 147.338 171.745C148.588 177.287 146.203 172.763 146.879 170.246C143.751 170.005 142.856 170.436 140.184 171.782C140.204 171.921 143.068 175.611 140.531 173.383C141.379 174.353 145.028 180.207 139.63 178.603C139.721 179.362 138.383 180.509 139.268 180.821C139.849 180.732 140.383 180.515 140.869 180.173C140.879 181.055 140.545 181.763 139.873 182.299C140.569 182.286 141.048 182.581 141.312 183.181C140.869 183.144 140.423 183.103 139.981 183.066C139.92 183.425 139.859 183.785 139.798 184.144C138.417 183.707 137.735 182.879 137.762 181.668C138.795 181.455 138.012 183.035 139.18 182.727C138.765 181.204 138.353 179.681 137.937 178.158C141.123 178.674 137.792 177.175 139.109 176.1C139.717 177.667 139.751 177.283 140.146 175.754C140.94 176.72 140.903 177.636 140.042 178.497C144.426 175.581 138.018 174.435 135.725 174.774C135.995 176.544 134.525 176.442 134.34 174.835C132.158 176.381 129.823 179.681 128.78 176.503C129.006 177.348 128.769 180.709 127.151 179.827C127.557 178.721 127.959 177.619 128.364 176.513C125.918 177.131 127.621 177.28 124.672 178.854C125.726 179.098 126.074 179.745 126.233 180.519C123.621 177.741 124.594 178.854 126.263 180.668C126.51 182.126 126.199 183.968 128.53 184.46C126.918 186.576 126.084 184.653 124.594 182.649C125.013 182.004 125.574 182.103 126.276 182.94C124.942 181.502 125.621 180.97 123.375 180.583C124.449 183.049 120.96 182.031 120.179 181.39C120.841 181.482 121.112 181.322 120.987 180.909H119.095C119.446 179.963 119.977 179.142 120.686 178.45C120.129 178.257 119.747 178.206 119.453 178.243C119.554 177.945 119.615 177.477 119.615 176.747C119.348 177.039 119.048 176.832 118.713 176.127C121.834 172.454 118.909 176.954 119.811 177.541C119.5 177.341 123.959 175.062 120.23 174.753C122.226 173.373 122.054 172.427 119.723 171.908C119.146 172.732 119.997 173.699 118.45 175.252C117.44 177.419 118.429 178.08 116.48 179.406C116.788 179.484 117.264 179.528 117.7 179.64C117.788 178.504 118.213 178.64 118.642 178.711C118.399 178.989 118.159 179.339 117.727 179.647C118.325 179.807 118.831 180.102 118.669 180.834C118.598 181.15 113.971 189.594 118.875 185.87C119.176 186.26 116.062 193.03 115.535 189.642C116.913 189.893 117.541 189.333 117.416 187.966C115.727 188.909 114.896 188.963 114.93 188.129C114.947 188.153 114.947 188.126 114.93 188.044C114.91 188.116 114.883 188.173 114.859 188.238C114.903 187.475 113.46 186.196 112.812 186.182C112.609 187.647 113.079 188.509 114.217 188.767C114.467 188.726 114.626 188.645 114.727 188.536C113.994 189.954 112.498 189.825 112.714 192.318C111.954 192.599 111.498 192.161 111.349 191.005C111.353 191.005 111.515 188.719 111.974 186.444C110.508 187.366 111.17 188.746 111.204 190.15C111.187 189.906 109.258 188.909 108.833 188.702C112.731 185.586 109.069 187.264 108.826 186.905C108.458 186.257 108.495 185.599 108.937 184.931C109.961 185.385 110.984 185.843 112.005 186.298C112.204 185.338 112.461 184.395 112.781 183.629C113.542 184.717 114.001 186.115 115.676 185.816C113.437 184.127 115.558 185.355 116.001 183.435C116.129 182.886 116.163 179.739 115.788 181.967C115.514 183.574 114.193 183.262 112.863 183.442C113.119 182.872 113.417 182.418 113.761 182.17C112.711 182.17 112.43 181.719 112.92 180.807C113.791 181.984 114.575 182.201 115.268 181.455C113.521 180.173 113.572 178.542 114.335 177.232C114.633 176.727 113.704 179.454 115.055 179.718C113.987 177.578 116.703 176.676 115.592 174.587C114.525 176.218 114.325 177.361 112.265 177.222C110.843 176.018 110.745 178.223 110.184 179.583C110.613 179.396 112.14 177.243 112.258 177.229C115.166 180.644 110.346 178.85 109.954 181.448C111.731 180.949 111.363 182.214 112.228 183.252C110.748 184.683 109.62 184.446 108.843 182.547C108.488 184.5 106.846 183.215 107.556 186.006C106.546 185.948 104.762 187.285 103.394 187.97C103.745 188.075 103.884 188.865 103.847 189.747C103.249 189.662 102.654 189.581 102.056 189.496C102.381 188.838 102.658 188.428 102.891 188.197C101.732 188.648 101.073 188.302 101.884 185.48C99.8709 186.976 100.074 193.321 102.063 194.02C101.198 194.807 100.472 194.376 99.3034 194.62C99.1041 192.758 100.479 188.624 99.7763 187.112C98.6852 184.765 95.8781 190.839 95.0201 186.711C93.2636 187.865 95.9694 190.344 97.2597 188.74C98.0941 190.618 95.8444 190.147 96.0606 192.558C94.2567 192.039 94.608 185.05 90.7571 186.423C91.7064 188.512 92.2874 187.898 93.446 188.675C93.5507 190.34 94.4189 189.96 93.8581 191.738C93.9561 190.958 93.7095 190.547 93.1217 190.51C92.0408 193.24 91.7672 195.146 88.8114 194.169C91.2469 192.477 90.0241 190.276 90.693 189.543C85.5787 189.988 88.8993 187.99 86.1057 185.196C84.8119 183.9 84.3019 185.046 82.0792 183.839C82.9237 182.462 82.9811 182.774 83.5688 181.414C82.3899 182.187 81.3901 183.147 80.5658 184.293C82.5588 183.703 85.8828 186.698 86.8016 189.072C85.6024 188.177 86.2746 195.404 82.9743 191.941C84.0553 192.585 85.9537 190.534 82.7548 189.733C85.0146 192.714 78.8127 193.27 81.1131 191.629C80.0895 191.066 79.1674 191.816 78.2249 192.311C78.6505 189.336 74.526 193.287 78.968 189.421C78.0121 189.974 77.1406 189.865 76.3501 189.092C75.8029 192.426 76.6474 189.516 74.8604 192.806C74.8706 192.786 74.5091 195.332 74.4889 194.97C74.9044 193.006 73.9416 192.368 71.5973 193.057C72.327 196.309 68.341 194.81 71.4251 194.054C69.405 192.375 71.6446 193.973 71.2258 189.784C71.8507 190.679 72.479 191.568 73.1174 192.453C74.4787 191.147 75.1003 190.927 76.2116 189.119C74.3233 189.319 73.5565 189.377 74.1139 191.47C72.1277 192.141 72.5871 189.608 74.0295 188.719C73.3505 187.556 70.5164 189.635 69.6482 189.553C69.6482 192.107 69.476 192.233 67.4762 193.457C65.4292 192.351 66.7905 189.52 67.7431 191.371C67.662 190.049 67.4559 189.574 66.554 189.682C67.3884 189.367 68.4896 188.841 68.9152 188.285C68.8983 188.35 68.8781 188.404 68.8612 188.475C69.6111 188.455 70.361 188.431 71.1075 188.411C70.665 187.675 70.2225 186.935 69.7766 186.199C72.4553 185.619 74.1105 185.501 76.7521 185.901C75.5124 189.54 77.8229 188.356 77.475 187.576C79.5288 188.071 79.9004 189.784 81.1975 190.398C82.7379 187.62 79.3295 188.414 77.9513 186.922C75.9178 184.721 77.0359 183.869 75.1746 181.048C74.4213 187.369 76.0191 181.451 75.8164 184.331C75.7894 184.727 72.4824 183.897 71.6818 184.673C71.1717 184.141 71.7696 183.408 72.6006 182.73C72.1175 182.655 71.7493 182.194 71.5027 181.299C70.9386 186.189 67.6924 181.472 66.3784 184.419C68.3545 184.314 69.8104 184.107 67.7667 185.331C68.0741 186.474 68.9119 186.301 70.2766 184.809C69.7327 186.159 69.4118 186.722 69.074 187.766C69.0368 187.549 68.8679 187.332 68.4693 187.135C68.5166 187.159 66.8682 188.377 66.6385 188.441C66.4155 188.502 64.9731 187.556 64.2604 187.335C65.0407 190.042 65.7501 193.169 64.8988 195.465C67.2296 194.712 65.7974 198.785 65.6116 199.528C64.8178 198.958 64.257 196.133 64.7265 195.526C63.1355 195.689 62.8687 196.37 63.926 197.571C62.3282 196.923 61.8553 197.316 62.5072 198.751C60.3791 198.995 63.1625 195.475 63.2808 195.349C60.2372 194.407 59.6393 192.365 61.2371 189.964C61.8418 190.659 61.9499 191.429 61.5445 192.277C60.646 193.206 60.8622 193.871 62.1897 194.274C62.9565 191.48 62.3721 192.867 64.5543 190.978C63.6524 191.12 59.2576 190.323 63.7301 189.143C63.3551 187.766 60.4703 188.061 61.2067 189.92C59.2948 187.491 62.2843 187.122 63.7436 187.502C63.1592 185.311 64.2063 185.28 65.3717 186.806C66.956 184.904 66.1689 182.998 65.8244 180.682C65.7805 180.949 65.0745 184.399 65.2231 184.287C64.1084 185.121 61.227 184.076 63.2538 185.894C61.4803 186.579 61.6762 183.781 61.6762 183.042C59.4434 185.579 61.8046 189.225 57.7578 186.661C58.8928 185.002 58.1598 185.657 60.021 184.721C58.8658 184.534 57.7105 184.351 56.5552 184.165C57.2916 182.197 58.6192 184.568 59.0414 182.611C58.2814 181.889 57.42 181.397 56.464 181.136C57.2714 180.325 58.9671 179.807 60.1427 179.752C59.2982 179.22 58.9063 178.755 58.9671 178.352C58.1091 179.715 57.0586 179.915 55.6162 179.535C56.7681 180.844 56.535 181.234 54.9237 180.712C53.3462 180.146 53.032 180.634 53.9812 182.181C52.9476 182.954 52.6503 183.134 54.4001 183.88C54.5386 182.055 54.5589 181.533 56.3728 181.234C53.1232 183.439 59.7643 180.349 55.0385 185.189C54.4542 184.917 53.8664 184.643 53.282 184.371C53.1739 185.07 52.8057 185.575 52.174 185.887C52.1436 185.413 51.6876 185.301 50.7992 185.552C51.9139 185.138 52.3463 184.317 52.0896 183.093C50.0493 185.487 50.5121 183.571 48.1171 183.364C48.4853 184.778 50.0628 185.094 50.0358 185.826C47.732 185.721 46.1072 184.287 45.7491 187.434C47.7489 186.806 48.5833 189.73 47.1071 190.164C47.1071 187.664 45.9248 188.692 46.1849 191.09C49.198 188.377 44.8033 194.149 44.7661 194.21C44.7661 191.995 46.1646 187.709 44.2324 186.942V186.128C46.2862 186.549 45.9788 186.773 45.8775 184.863C44.9756 185.48 43.4589 185.307 43.7865 186.905C39.5303 184.08 43.2393 188.875 39.4931 188.455C40.2566 187.247 41.1213 185.87 41.9658 185.168C42.6178 184.626 45.337 185.813 45.2087 183.459C43.5028 183.164 37.8413 183.269 40.9085 180.861C40.5707 182.611 46.2795 182.998 47.0564 181.77C44.881 180.987 45.1783 180.821 43.2765 181.173C43.2934 181.024 43.2765 180.79 43.2494 180.529C42.4995 180.607 41.7496 180.688 40.9997 180.766C41.8847 178.704 42.6313 178.613 43.2461 180.485C43.1346 179.471 42.8204 177.928 43.0096 177.68C41.1315 178.219 40.9186 181.587 38.7736 180.271C38.0508 182.608 38.6149 183.408 40.4592 182.672C41.5064 183.819 41.9523 184.012 39.885 185.338C40.3883 183.188 37.1488 181.892 36.1794 182.482C35.8517 181.414 35.0207 180.505 34.0107 179.613C34.3181 179.63 34.6593 179.562 35.0511 179.366C34.1391 178.07 33.2439 177.205 32.0684 176.056C31.8927 175.889 31.94 177.209 32.4366 178.291C31.3387 177.385 30.2206 176.425 29.393 175.259C28.8188 176.649 26.64 176.873 26.3833 175.323C29.7038 175.611 27.5554 173.471 25.7583 172.783C26.2177 173.977 27.5723 176.178 25.1165 174.363C26.1671 176.008 25.5151 176.707 23.1607 176.456C23.4748 174.587 20.7421 176.327 20.0766 174.153C19.4787 174.231 18.2694 176.29 18.4146 177.134C15.3002 174.78 18.0768 174.886 18.3977 171.918C18.4315 172.271 19.0902 170.077 18.6308 171.057C18.9652 170.199 18.9484 169.324 18.5835 168.435C19.9314 168.835 20.5428 168.537 20.4144 167.54C16.8506 166.58 20.3063 164.742 21.1947 162.415C20.0597 163.087 18.9247 163.762 17.7897 164.433C19.4247 167.038 18.793 167.811 15.8981 166.76C18.0633 165.763 15.7393 161.157 14.8644 164.487C13.1045 162.232 11.6891 163.602 9.78394 163.572V167.241C9.8042 167.224 9.81772 167.218 9.83798 167.201C9.98661 166.929 10.1319 166.655 10.3548 166.241C9.25022 168.289 10.2906 168.937 12.3546 168.557C12.564 167.489 10.0542 166.777 12.9863 165.074C14.0672 164.447 15.3373 165.491 14.7428 166.631C17.8573 167.119 14.2935 169.941 14.8948 170.06C16.0602 170.29 15.4859 169.758 16.854 170.487C16.2967 169.171 16.2595 167.638 17.9383 167.781C17.4621 169.812 18.6072 171.511 17.3337 173.044C16.219 170.999 13.7091 171.83 16.4487 173.309C12.5775 174.513 14.6921 173.319 13.7834 171.019C14.0537 171.413 14.4455 171.613 14.9691 171.603C15.3002 170.545 14.6617 170.026 13.0572 170.049C12.7667 172.162 13.1349 172.963 12.1553 174.828C13.091 171.158 9.40223 172.718 10.1792 169.059C10.0373 169.449 9.90892 169.703 9.78394 169.893V177.772C10.0001 177.622 10.2163 177.473 10.4325 177.327C10.5778 178.633 11.5709 177.646 12.2769 177.717C11.5911 178.633 10.7602 179.054 9.78394 179.006V184.555C10.1015 184.782 10.5811 184.921 11.2365 184.961C11.0642 185.257 10.4629 185.155 9.78394 184.931V200.179C10.5744 200.158 11.1013 200.579 11.331 201.488C10.5913 200.888 10.0778 200.782 9.78394 201.166V210.811C11.3648 211.632 12.9086 212.317 14.932 212.846C14.8678 213.229 14.1922 213.009 13.8747 213.046C15.3846 213.782 16.8912 214.518 18.4011 215.254C18.2998 214.44 18.543 214.06 19.1308 214.114C18.6376 217.339 27.8594 219.534 29.4099 218.53C29.1836 221.341 47.6982 225.082 50.6742 225.56C53.7651 226.055 54.7379 225.981 57.9875 226.798C59.8994 227.276 67.912 226.164 63.4328 227.578C65.5744 227.727 68.7125 228.979 68.8882 226.496C70.4522 228.996 72.6175 227.958 74.9753 227.972C76.3062 227.978 84.1228 228.49 79.3971 227.327C81.4002 225.967 82.194 229.352 83.2479 227.107C84.1769 229.196 89.2067 228.409 89.7336 226.412C89.4904 229.508 98.0907 226.666 100.226 226.466C101.793 226.32 108.326 226.211 107.448 224.733C108.856 225.469 114.197 224.417 114.329 223.77C112.342 223.607 111.89 222.905 112.981 221.66C115.102 223.196 114.7 223.844 117.534 223.349C119.794 222.952 121.419 222.783 119.966 220.375C120.828 219.659 121.426 220.243 121.764 222.121C123.567 221.572 125.361 220.992 127.148 220.382C130.492 219.184 133.749 217.072 137.258 216.681C136.6 215.844 134.887 215.423 135.894 214.05C136.434 214.921 136.974 215.793 137.515 216.665C138.343 215.874 141.542 214.748 140.491 213.928C140.92 213.595 146.987 213.629 142.116 212.001C144.213 211.272 144.828 210.991 144.311 213.338C145.7 212.496 147.213 212.005 147.791 210.787V202.848C147.689 202.973 147.558 203.102 147.362 203.241C146.885 202.397 145.886 201.162 145.49 202.828V200.972C145.828 201.061 147.257 201.379 147.791 201.949V181.689C147.368 182.513 146.828 183.381 146.389 183.286L146.396 183.242ZM44.2662 196.791C43.871 197.564 43.4758 198.334 43.0772 199.107C41.7294 198.164 41.4321 197.31 42.1921 196.543C42.486 196.665 44.1987 196.747 44.2662 196.794V196.791ZM43.165 202.906C44.0602 202.563 44.4081 203.197 44.2088 204.805C42.5975 205.32 41.7902 205.083 41.7902 204.086C43.0839 204.313 43.5433 203.92 43.165 202.909V202.906ZM43.0839 186.769C43.0839 187.471 42.4218 191.833 40.8443 189.404C41.5909 188.526 42.3374 187.648 43.0839 186.769ZM39.8174 190.442C41.4625 193.752 41.5807 194.207 41.3645 190.581C42.6245 191.1 42.834 191.965 41.9895 193.172C45.918 193.477 42.6414 197.951 42.2428 194.006C41.324 194.247 39.733 195.261 39.1621 194.556C41.226 194.034 41.4422 193.46 39.8174 192.84C39.7499 192.056 39.8174 191.232 39.8174 190.442ZM38.2163 197.167C37.0374 199.189 37.4191 199.463 39.358 197.991C39.7566 198.581 33.379 201.427 38.2163 197.167ZM34.6525 193.528C35.2538 192.253 36.1017 192.606 37.1928 194.586C37.0982 195 36.9326 195.383 36.6962 195.736C36.203 195.529 35.3686 194.023 34.6525 193.525V193.528ZM39.054 184.904C39.6823 184.785 40.7194 186.528 40.3816 186.82C39.6215 187.271 38.8648 187.722 38.1048 188.173C37.8143 186.8 38.1318 185.711 39.054 184.904ZM38.7432 188.706C39.0878 189.258 39.429 189.811 39.7735 190.364C39.3614 190.523 38.6554 190.7 37.9731 190.713C38.044 189.994 37.5001 188.628 38.7432 188.709V188.706ZM36.3922 188.275C36.8989 189.089 37.4022 189.899 37.9089 190.713C36.7367 190.72 35.6727 190.222 36.3922 188.275ZM35.5477 189.835C35.7369 189.889 35.9226 189.947 36.1118 190.001C36.301 191.178 35.8821 192.08 34.8552 192.701C34.4667 193.152 34.0783 193.603 33.6898 194.051C33.1899 193.413 35.3247 190.751 35.5511 189.832L35.5477 189.835ZM32.8352 187.99C33.1899 187.553 33.6324 187.325 34.1729 187.302C33.8486 188.482 33.5243 189.659 33.2 190.839C30.5686 188.604 30.5753 186.922 33.3824 185.175C31.8556 184.992 31.4468 185.789 30.9874 184.076C33.1156 183.517 34.2033 184.195 34.2472 186.118C32.6629 186.067 32.4704 186.464 32.8352 187.99ZM32.315 179.966C33.2405 181.312 33.3047 181.767 32.5041 181.336C31.788 182.177 31.0719 183.022 30.3557 183.863C30.1396 182.052 30.7915 180.753 32.315 179.966ZM30.2375 177.87C29.4673 179.016 28.5452 179.284 27.3291 178.48C28.2344 177.626 28.9607 176.178 30.2375 177.87ZM28.8255 194.79C28.258 194.739 27.6872 194.685 27.1197 194.634C30.0652 189.825 28.4438 194.244 28.8255 194.79ZM25.8495 192.806C25.6029 192.535 25.3597 192.263 25.1131 191.992C24.1774 192.731 24.5085 193.318 26.1096 193.749C22.5763 194.983 25.5354 188.272 23.0492 194.006C22.8736 193.267 22.9884 192.056 23.0492 191.297C24.8328 191.721 26.5995 191.683 28.356 191.185C27.623 190.764 26.5792 188.617 28.0486 188.468C27.7581 190.096 28.3323 190.381 29.7714 189.326C29.5349 191.666 27.4135 191.795 25.8495 192.802V192.806ZM17.3303 187.946C17.6242 188.845 22.2723 190.49 20.4921 187.79C21.6001 187.624 22.1574 187.966 22.1676 188.814C20.9751 189.296 16.8946 190.913 17.3303 187.946ZM19.3199 195.611C18.8673 196.143 17.4958 197.825 16.9486 195.611C17.739 195.611 18.5295 195.6 19.3199 195.611ZM22.2655 195.709C22.4074 194.556 21.9075 194.142 20.7691 194.468C21.2082 192.287 22.7351 195.709 22.8465 195.95C21.975 196.14 21.1001 196.326 20.2286 196.516C19.8807 195.451 20.5596 195.18 22.2689 195.709H22.2655ZM22.7351 190.456C21.9547 190.028 23.0323 188.18 23.2654 187.519C23.6775 189.126 24.8395 188.784 26.0691 188.777C26.2785 190.14 23.0289 188.821 22.7351 190.456ZM27.6905 184.782C29.2174 185.999 24.7179 186.745 28.0858 186.932C27.0521 187.726 24.3193 189.102 23.5897 186.905C25.684 187.746 26.6603 186.257 27.6905 184.782ZM25.9847 182.252C24.5456 178.887 31.636 179.878 25.9847 182.252V182.252ZM25.7381 177.663C24.8395 178.484 24.3092 178.491 24.1471 177.694C25.6165 177.829 26.4069 177.293 26.5184 176.086C28.2107 178.569 24.7652 179.569 24.2484 181.784C22.0054 179.759 26.5454 178.823 25.7381 177.663ZM23.3566 183.557C23.6707 183.334 23.9883 183.106 24.3024 182.883C25.755 181.2 25.3327 185.677 25.3766 185.524C23.9849 185.501 22.2993 183.005 22.7384 181.967C22.7655 182.574 22.9715 183.103 23.3566 183.557ZM20.0935 176.269C20.4921 176.924 21.2116 176.825 22.252 175.974C20.7995 178.012 21.0494 177.867 23.1134 176.513C22.7519 177.521 22.4581 178.311 22.2047 178.921C21.4278 176.975 20.6103 176.832 19.7557 178.518C20.5901 179.25 21.3872 179.42 22.1473 179.06C21.0359 181.668 20.7421 180.536 19.2726 177.619C20.1577 177.175 20.4313 176.724 20.0935 176.269ZM20.5529 184.395C20.8738 186.227 19.0666 186.206 18.114 185.419C18.9281 185.077 19.7388 184.738 20.5529 184.395ZM17.4013 176.948C17.6816 178.843 19.83 179.094 16.8371 180.166C16.8642 179.596 16.6007 177.002 17.4013 176.948ZM17.5499 185.423C18.4822 185.904 16.4115 187.081 15.8845 187.441C16.3102 186.695 16.7392 185.945 17.1648 185.199C14.5266 186.498 15.9791 184.348 16.3946 182.408C17.2594 182.53 16.2257 184.741 17.5465 185.423H17.5499ZM14.2969 189.811C12.7397 192.114 16.3676 190.91 15.8035 192.518C14.986 192.345 14.1719 192.168 13.3544 191.995C12.9694 190.581 13.2835 189.855 14.2969 189.811ZM11.956 186.396C11.0034 184.107 11.5101 183.486 13.4693 184.527C13.4389 184.215 12.0168 186.243 11.956 186.396ZM15.7156 179.701C14.4455 179.44 16.3845 179.084 14.7664 178.857C15.0873 177.256 15.1481 177.277 13.574 176.853C13.5402 175.713 14.405 175.523 16.1615 176.279C16.0129 177.419 15.8643 178.562 15.7156 179.701ZM15.2461 175.316C14.5131 175.432 13.7835 175.547 13.0504 175.662C13.2295 173.814 13.9591 173.699 15.2461 175.316ZM9.93595 174.991C10.2163 174.56 10.5001 174.129 10.7804 173.699C11.3648 174.658 12.0269 175.486 12.1384 176.113C11.4054 175.74 10.669 175.364 9.93595 174.991ZM10.4629 177.287C10.294 176.327 10.8581 175.964 12.1451 176.181C12.2093 176.734 11.8073 177.121 10.4629 177.287ZM10.9527 184.192C10.5507 181.875 11.4493 179.698 13.4355 178.952C13.4794 179.077 12.3005 181.156 12.8005 183.093C12.0809 183.632 10.9628 182.635 10.9527 184.192ZM14.3205 201.949C14.7056 204.167 14.3442 204.974 13.2362 204.367C14.1246 203.177 13.8071 202.624 12.287 202.712C11.8344 202.56 11.3817 202.407 10.9291 202.254C12.0607 202.153 13.1923 202.051 14.3239 201.949H14.3205ZM11.0676 211.262C10.7095 210.204 11.0642 209.573 12.1316 209.373C10.794 211.048 10.8615 211.516 12.3377 210.777C12.1215 211.761 11.6992 211.923 11.0676 211.262ZM12.1553 209.322C11.652 208.868 11.152 208.413 10.6487 207.962C12.6316 207.67 13.1315 208.125 12.1553 209.322ZM12.6653 207.053C12.5978 205.826 15.746 205.5 15.5738 208.393C13.7024 208.447 17.8438 206.548 12.6653 207.053ZM13.9895 205.235C15.4454 204.045 15.4961 203.957 15.1481 202.105C17.0635 201.861 16.7594 205.887 13.9895 205.235ZM17.9282 213.548C17.3641 212.951 17.2661 212.252 17.6377 211.452H16.2223C18.1106 209.716 17.7458 213.09 19.5598 212.096C19.0159 212.581 18.4721 213.063 17.9248 213.548H17.9282ZM18.7119 211.306C18.6578 208.149 19.499 210.156 19.9617 207.42C21.8973 207.823 19.0294 210.899 18.7119 211.306ZM18.4754 199.09C17.0668 199.494 16.5568 199.375 15.1279 199.596C15.7967 199.382 20.3232 197.374 20.6475 198.425C19.9212 198.646 19.1983 198.866 18.4721 199.087L18.4754 199.09ZM23.1911 199.246C23.9106 199.721 24.6335 200.199 25.353 200.674C23.1708 201.813 22.4513 201.339 23.1911 199.246ZM23.1607 206.497C23.0222 205.788 23.0391 203.014 24.6977 203.618C23.3532 206.266 26.2211 203.964 23.1607 206.497ZM24.0896 202.376C24.6335 200.85 27.3223 202.322 27.6095 203.238C26.4373 202.95 25.2618 202.661 24.0896 202.376ZM28.8323 203.519C27.6027 202.617 28.258 201.098 28.0993 199.687C27.9439 198.307 27.6196 200.253 26.9406 199.562C27.319 199.243 27.6939 198.924 28.0722 198.609C28.5756 199.524 29.8828 202.906 28.8323 203.523V203.519ZM29.3457 199.009C29.089 198.548 28.8323 198.083 28.5756 197.622C31.6022 197.567 29.0654 192.575 34.2438 195.176C33.2203 196.357 32.6494 196.363 32.5177 195.231C32.3893 196.224 30.1497 198.307 29.3457 199.009ZM34.8822 208.851C34.5579 208.898 31.0482 206.46 31.2104 205.412C33.1291 206.385 34.031 206.89 34.8822 208.851ZM30.4841 198.761C31.413 199.053 32.342 199.341 33.2676 199.633V201.013C33.4196 198.934 30.5956 200.47 30.4841 198.765V198.761ZM29.7241 200.525C30.7037 200.867 31.6867 201.21 32.6663 201.552C32.3792 202.136 31.582 201.82 31.0381 201.423C30.7172 201.776 30.8152 202.102 31.332 202.4C30.4199 203.143 29.8828 202.519 29.7207 200.525H29.7241ZM30.0517 217.733C30.1362 216.946 30.0517 216.098 30.0517 215.308C31.734 216.892 29.464 214.206 32.0954 214.633C31.4131 215.667 30.7341 216.698 30.0517 217.733ZM34.9869 215.349C33.1088 217.014 33.8519 216.068 34.9869 215.349V215.349ZM34.4228 217.784C34.4735 216.936 34.6694 216.119 35.0106 215.332C35.5105 215.016 36.0814 214.752 36.534 214.776C35.8281 215.776 35.1254 216.78 34.4194 217.784H34.4228ZM35.1389 202.207C34.3282 201.885 34.2776 201.247 34.9869 200.294C35.7943 200.314 35.8483 200.84 35.1558 201.871C37.5035 199.636 37.9764 200.114 35.1389 202.207ZM40.4694 201.729C40.1586 201.888 39.8478 202.044 39.5337 202.203C41.4152 204.303 39.6789 203.719 37.8683 202.848C39.9998 202.441 39.858 201.922 37.4393 201.284C38.0136 201.189 41.3578 201.125 40.4694 201.729ZM42.9015 199.484C42.432 201.668 42.8745 202.458 41.3004 203.469C42.1516 202.251 42.003 201.508 40.8545 201.24C41.5368 200.657 42.2192 200.07 42.9015 199.487V199.484ZM41.7091 219.486C40.895 218.333 40.9153 217.563 41.7665 217.18C42.4218 218.326 43.3812 219.371 41.7091 219.486ZM41.8239 208.291C42.8238 209.448 43.6784 210.591 45.3708 209.953C43.621 211.337 42.3948 210.919 41.8239 208.291ZM44.5668 219.551C44.077 220.12 43.7528 220.775 43.5839 221.511C43.8271 219.863 45.0972 217.733 46.8875 219.473C46.1072 219.323 45.3336 219.351 44.5635 219.551H44.5668ZM46.3876 197.018C46.0599 196.801 45.7289 196.587 45.4012 196.37C46.0971 197.422 45.8707 198.096 44.729 198.388C45.1546 194.315 46.1477 197.127 45.8201 193.101C47.8232 193.057 46.7929 196.353 46.3876 197.015V197.018ZM133.465 178.708C133.144 179.193 131.985 180.831 131.556 179.854C131.756 179.559 131.438 179.166 131.08 178.901C131.239 178.206 131.708 177.555 132.705 176.476C133.228 177.538 133.38 178.185 133.465 178.708ZM131.536 182.242C131.327 181.363 131.168 180.719 131.08 180.176C131.327 181.139 131.583 182.208 131.536 182.242ZM127.253 181.031C127.817 180.227 128.53 179.854 129.394 179.915C131.837 180.766 129.252 181.736 127.705 182.106C127.648 182.045 127.58 181.974 127.523 181.913C127.84 181.814 128.256 181.692 128.807 181.546C128.29 181.373 127.77 181.204 127.253 181.031ZM127.428 181.943C127.486 182.008 127.543 182.069 127.604 182.13C126.726 182.33 126.256 182.316 127.428 181.943ZM127.563 190.401C127.783 190.045 128.003 189.686 128.222 189.33C128.141 191.9 126.537 191.222 124.591 190.588C125.581 190.527 126.574 190.466 127.563 190.401ZM126.199 185.362C127.02 188.122 127.273 186.464 126.378 189.435C125.141 189.353 126.493 187.142 124.25 186.606C124.692 185.935 125.341 185.521 126.199 185.362ZM124.354 188.366C122.659 190.347 122.449 191.181 119.794 191.527C119.943 190.676 123.317 187.932 124.354 188.366ZM124.121 194.064C124.003 195.088 123.881 196.109 123.763 197.133C122.77 196.282 122.257 193.813 124.121 194.064ZM122.493 210.828C123.456 209.817 123.419 212.792 123.398 212.564C122.73 211.408 121.47 213.914 121.669 211.445C122.392 212.591 122.057 211.286 122.49 210.828H122.493ZM123.5 185.65C123.479 185.972 123.284 186.488 122.767 187.339C121.821 185.073 123.105 185.969 123.5 185.65ZM118.578 184.656C119.544 184.307 119.885 183.761 119.598 183.025C120.078 180.956 120.902 184.707 120.571 185.192C120.487 185.318 118.767 184.765 118.578 184.656ZM118.065 201.173C116.953 200.379 116.538 200.745 116.811 202.275C115.964 201.342 115.116 200.409 114.268 199.477C115.2 199.124 117.558 200.389 118.065 201.173ZM118.352 214.681C118.173 214.467 117.629 214.135 116.524 213.595C117.207 212.093 117.906 213.439 118.352 214.681ZM115.707 191.853C114.393 191.158 113.579 190.829 113.281 191.378C114.413 189.275 116.082 191.249 115.707 191.853ZM114.802 198.198C113.393 198.297 111.978 198.395 110.194 198.52C111.805 197.364 114.133 197.333 114.802 198.198ZM107.154 196.011C108.421 196.323 109.174 194.288 110.64 195.346C108.863 196.896 108.556 196.964 107.154 196.011ZM111.211 190.194C111.302 191.51 108.552 192.711 107.576 191.819C107.198 195.197 101.871 198.181 102.083 194.034C102.935 194.546 103.783 195.058 104.634 195.57C106.482 194.19 106.546 192.83 104.837 191.493C106.677 190.961 105.796 192.731 107.546 191.771C107.444 191.483 107.343 191.192 107.245 190.903C108.562 190.629 109.887 190.391 111.217 190.194H111.211ZM104.945 187.96C105.776 186.783 106.826 186.538 108.093 187.22C106.63 188.316 106.806 188.868 108.627 188.875C106.394 189.601 105.674 190.69 106.553 187.692C102.979 189.357 104.006 188.441 104.945 187.956V187.96ZM101.557 190.561C102.404 190.815 103.154 190.707 103.813 190.262C103.614 192.002 102.773 193.61 101.557 190.561ZM98.5062 192.813C97.5942 193.888 97.834 194.525 99.2291 194.725C98.7494 195.455 98.3272 196.218 97.9691 197.015C97.0537 196.777 97.0672 196.062 98.0063 194.868C97.128 195.648 96.2497 196.425 95.3715 197.205C94.3952 196.397 97.736 193.22 98.5062 192.813ZM93.1015 205.018C93.3109 204.571 93.5237 204.123 93.7331 203.675C95.2026 205.391 96.3004 206.056 94.4797 207.355C94.9256 205.785 94.4526 205.351 93.1015 205.018ZM93.4899 198.5C93.419 198.28 98.8373 197.7 97.3138 200.888C96.4423 199.199 95.2431 199.148 93.4899 198.5ZM96.0437 194.749C95.6789 194.468 95.314 194.186 94.9492 193.905C93.2366 195.075 91.7537 197.466 90.4666 197.259C91.3618 195.895 94.9391 191.137 96.0437 194.749ZM90.4193 196.055C89.9363 196.848 89.1391 196.76 88.0278 195.787C88.0109 193.888 88.8081 193.976 90.4193 196.055ZM88.5209 196.631C89.7201 197.5 90.6254 198.585 91.2368 199.891C88.9939 200.915 89.6323 195.485 87.4839 200.03C86.4604 198.734 86.8083 197.601 88.5209 196.631ZM88.7337 203.428C88.0717 204.394 85.7139 201.122 88.3993 200.813C86.6833 203.489 89.5681 200.952 89.2438 202.648H87.7947C88.1055 202.909 88.4196 203.17 88.7304 203.428H88.7337ZM91.1456 204.076C90.9835 203.411 90.6051 203.428 90.014 204.123C89.2675 203.428 89.7302 202.797 91.4091 202.234C92.1725 205.195 91.6422 205.866 89.0648 205.307C89.7606 204.896 90.4531 204.483 91.149 204.072L91.1456 204.076ZM81.3428 199.829C80.5253 199.226 79.7112 198.626 78.8937 198.022C80.8901 196.007 81.7076 196.608 81.3428 199.829ZM77.6405 201.118C76.0056 201.898 75.3604 201.461 75.7049 199.809C76.2522 199.945 79.8632 200.864 77.6405 201.118ZM77.7013 205.836C77.1068 206.846 76.5157 207.85 75.8705 208.949C75.7016 207.053 76.5967 205.585 77.7013 205.836ZM77.2453 203.435C76.09 203.241 73.9112 203.384 74.1443 203.424C72.2223 203.981 78.029 199.348 78.1709 202.641C77.1102 202.454 76.8095 202.722 77.2453 203.431V203.435ZM72.1952 207.335C71.6953 207.009 71.3035 206.85 70.9927 206.826C71.4014 206.694 71.6514 206.382 71.746 205.89C72.0162 206.602 72.1919 207.27 72.1952 207.335ZM72.6377 203.221C72.6445 204.493 73.1411 204.784 74.1308 204.096C73.5363 204.968 72.9249 206.107 72.05 204.91C71.7933 203.96 71.9892 203.394 72.6377 203.218V203.221ZM73.1073 210.743C73.6376 211.028 74.1646 211.313 74.6949 211.594C73.4924 211.482 72.2864 211.374 71.0805 211.262C71.1954 210.078 71.8709 209.902 73.1073 210.74V210.743ZM76.5798 192.311C76.9886 192.758 77.3973 193.206 77.8027 193.654C73.6207 193.226 77.5088 193.447 76.34 194.396C74.4517 193.789 76.7589 192.697 76.5798 192.314V192.311ZM76.9548 196.903C77.323 196.72 77.6946 196.536 78.0628 196.357C78.5627 197.245 74.1646 196.937 73.0127 197.757C73.641 195.607 75.5664 194.905 76.9548 196.903ZM72.6648 201.349C72.5263 201.033 72.3911 200.718 72.2527 200.403C73.1309 200.301 74.0903 200.403 74.9719 200.403C74.2761 200.925 72.8641 201.345 72.2662 201.942C71.6818 202.522 68.395 199.005 72.6648 201.349ZM71.7189 205.812C71.0805 205.493 70.4421 205.171 69.8036 204.852C70.4556 203.207 71.2325 204.55 71.7189 205.812ZM70.0266 196.299C70.6177 195.984 68.5808 199.341 68.1045 199.731C67.787 197.11 69.628 197.73 67.2499 194.139C71.5635 193.287 68.0505 197.347 70.0266 196.299ZM69.1618 205.639C68.9591 207.609 68.6754 205.741 68.1113 206.962C66.8918 204.818 66.4662 207.911 65.9629 205.313C67.0303 205.422 68.0944 205.53 69.1618 205.642V205.639ZM65.6251 199.528C65.3988 200.664 65.088 201.78 64.6961 202.872C65.0441 201.552 63.4125 200.057 65.6251 199.528ZM60.8723 196.414C59.0178 196.577 57.1633 196.74 55.3088 196.903C56.508 194.786 58.5111 197.028 57.6767 194.895C58.0483 195.031 60.9635 195.753 60.8757 196.414H60.8723ZM58.5787 202.105C56.5316 202.36 57.1734 199.785 57.4774 199.134C58.0449 200.338 62.9464 204.34 59.0313 204.15C59.6866 203.329 60.7034 201.844 58.5787 202.105ZM60.2879 198.347C59.1766 198.005 58.6226 198.473 58.6259 199.748C56.0587 195.98 60.021 198.198 60.2879 198.347ZM54.9811 195.58C54.5285 195.19 54.0758 194.8 53.6232 194.41C54.3596 193.911 58.3321 192.229 58.001 194.593C54.7244 194.095 57.5011 194.864 54.9811 195.58ZM57.4572 185.155C56.4877 186.41 56.7275 187.658 58.1733 188.906C57.1194 189.007 52.3801 185.365 57.4572 185.155ZM55.1331 190.788C54.4474 191.894 53.7651 192.999 53.0793 194.105C53.0016 193.654 53.7178 189.336 55.1331 190.788ZM52.1808 185.908C53.8934 185.151 54.6974 185.453 54.5893 186.806C51.5829 186.518 53.8867 189.489 51.191 190.418C50.8634 188.614 53.3698 188.109 50.8634 186.552C52.0828 187.163 52.5253 186.949 52.1842 185.911L52.1808 185.908ZM51.843 187.929C51.3836 188.238 50.9242 188.543 50.4648 188.851C49.7453 186.159 48.8062 189.085 48.0495 186.288C49.3129 186.834 50.5762 187.383 51.8396 187.929H51.843ZM50.4884 193.881C50.0088 192.328 49.3906 192.341 48.6407 193.922C50.4884 189.367 51.4579 192.426 50.4884 193.881ZM48.0968 195.115L50.4851 194.719C50.556 194.926 50.6269 195.129 50.6979 195.332C49.4311 196.855 48.563 196.781 48.0968 195.112V195.115ZM48.9954 204.761C49.2859 204.367 49.5764 203.974 49.8669 203.58C50.3398 204.53 50.8161 205.483 51.289 206.433C50.5256 205.873 49.7588 205.317 48.9954 204.761ZM52.3193 201.837C51.0661 200.552 48.7015 202.471 50.9647 199.144C49.6304 196.113 52.2382 202.125 52.1673 200.281C51.4039 198.751 51.9105 198.046 53.684 198.168C51.2181 201.807 55.2716 197.673 52.3227 201.837H52.3193ZM53.6502 200.006C53.8191 198.612 55.9405 199.321 54.0049 197.561H56.0249C56.2208 199.633 55.427 200.447 53.6502 200.006ZM56.187 219.669C56.2377 220.731 56.285 221.714 56.3323 222.678C55.2851 222.22 55.2007 220.816 56.187 219.669ZM57.8963 205.039C57.3862 205.232 56.8559 205.296 56.3087 205.235C57.6126 203.74 57.1396 204.232 56.7005 202.553C58.0247 202.868 58.4233 203.696 57.8963 205.035V205.039ZM61.1797 223.088C59.7677 220.744 60.2035 221.094 58.2915 221.813V220.443C60.2947 220.348 60.6865 221.887 62.3181 222.65C61.9397 222.796 61.558 222.942 61.1797 223.091V223.088ZM61.2743 210.943C61.7573 211.7 62.0917 212.52 62.2708 213.405C61.2371 213.409 60.3521 209.458 60.3048 209.095C61.1932 210.245 62.3518 209.522 62.639 210.597C62.1863 210.713 61.7303 210.828 61.2776 210.947L61.2743 210.943ZM65.9156 205.266C64.9495 204.9 63.98 204.533 62.7842 204.079C64.3077 203.57 65.8717 204.306 65.9156 205.266ZM63.4159 206.219C63.6388 205.792 63.8618 205.364 64.0814 204.937C66.1689 207.871 63.5949 206.975 63.4159 206.219ZM64.2671 210.953C65.0745 209.878 64.2063 208.342 64.9123 208.04C65.0475 208.345 65.9426 212.168 64.2671 210.953ZM66.983 215.118C66.6419 213.273 65.1589 214.192 65.2704 212.3C66.0271 213.565 67.108 213.965 68.5166 213.497C68.0065 214.04 67.4931 214.579 66.983 215.121V215.118ZM67.0844 211.686C66.9492 210.373 66.8378 209.288 66.7027 207.986C69.1415 208.912 69.172 209.519 67.0844 211.686ZM70.2901 208.834C69.6888 208.718 69.0875 208.603 68.4862 208.491C70.8542 207.365 69.5368 208.071 69.0909 206.626C69.6888 206.833 70.1887 206.924 70.5873 206.904C70.2225 207.121 70.1212 207.759 70.2901 208.834ZM70.6718 222.728C71.5433 219.615 70.9015 220.066 73.0465 219.802C73.1546 220.639 71.1345 222.243 70.6718 222.728ZM75.107 221.195C75.08 220.517 75.759 221.009 76.1339 220.7C76.2792 220.86 76.4481 221.023 76.6609 221.195H75.107ZM76.1711 218.933C75.6205 219.283 75.4955 219.72 75.7826 220.243C74.7963 219.747 73.8065 219.256 72.8202 218.76C74.9753 218.76 76.8399 218.75 78.9309 219.296C78.279 220.829 77.3601 220.711 76.1711 218.933ZM78.6742 225.001C78.2756 224.522 77.877 224.044 77.475 223.566C79.8632 223.525 78.5897 225.214 81.1502 224.987C80.3226 225.716 79.4984 225.723 78.6708 225.004L78.6742 225.001ZM82.5149 214.016C81.2347 214.755 81.032 215.444 79.2484 215.081C80.2179 214.589 83.7445 213.507 83.1601 212.235C83.9809 213.188 83.7648 213.782 82.5149 214.016ZM82.9574 223.095C83.0115 221.976 83.0689 220.856 83.123 219.737C83.4878 220.883 83.8526 222.026 84.2174 223.173C83.7952 223.146 83.3763 223.118 82.9541 223.095H82.9574ZM85.9875 216.509C85.4841 215.484 84.9775 214.464 84.4741 213.439C86.403 212.415 86.0989 215.996 85.9875 216.509ZM83.3155 198.151C84.6566 196.557 82.9203 195.834 82.0454 194.814C85.2544 193.504 82.5723 199.687 86.2611 196.224C86.9434 196.73 86.636 197.283 85.3355 197.89C85.7611 197.774 86.1901 197.659 86.6158 197.544C86.0246 198.008 84.92 198.497 83.3155 198.154V198.151ZM86.832 212.3C87.1394 214.379 87.9163 214.45 89.1695 212.51C88.9634 213.253 88.7574 213.995 88.5513 214.738C86.2037 214.684 85.6294 213.87 86.832 212.3ZM88.8621 225.011C88.825 225.479 87.6359 226.771 88.4703 222.494C89.5174 222.644 89.6458 223.481 88.8621 225.011ZM91.274 211.689C90.6119 211.13 89.9532 210.57 89.2911 210.011C90.0714 209.851 91.3956 209.902 92.1827 210.011C91.8786 210.57 91.5746 211.13 91.2706 211.689H91.274ZM93.4156 198.531C92.1455 198.89 92.1691 199.507 93.4663 200.386C92.9495 200.08 88.9229 198.137 93.4156 198.531ZM92.838 216.526C95.0201 216.817 94.912 216.746 92.8312 214.925C96.8409 215.505 94.804 217.312 92.838 216.526ZM95.5066 212.578C92.99 212.371 92.132 211.693 92.9292 210.543C95.3242 210.655 96.1822 211.333 95.5066 212.578ZM94.5776 201.953C95.9592 201.966 96.9692 202.766 97.3172 201.01C98.4184 201.179 98.6548 202.149 98.0265 203.916C97.611 203.608 97.1956 203.299 96.7801 202.99C95.4154 203.93 94.6823 203.584 94.5776 201.953ZM98.5434 208.274C98.4994 209.251 98.4522 210.221 98.4082 211.187C97.5097 209.251 97.6381 208.362 98.5434 208.274ZM100.31 219.276C100.165 219.432 97.9353 220.399 98.3812 220.924C96.5132 218.72 98.621 220.276 99.4115 219.69C99.6344 219.062 99.6648 218.425 99.4959 217.774C99.9857 217.716 100.837 218.706 100.31 219.276ZM99.1818 196.682C99.9418 194.624 104.58 196.221 102.259 197.927C101.766 196.404 100.742 195.99 99.1818 196.682ZM101.533 202.872C100.722 200.844 105.039 203.153 101.202 200.606C102.408 198.812 103.293 201.135 102.985 202.38C103.931 202.739 103.445 202.906 101.533 202.872ZM103.762 197.523H105.032C104.857 198.449 104.681 199.372 104.505 200.298C103.347 200.647 103.1 199.724 103.762 197.523ZM106.252 199.443C107.535 200.935 107.036 201.61 104.749 201.464C105.249 200.789 105.752 200.118 106.252 199.443ZM106.644 214.192C105.478 214.494 104.975 214.263 105.134 213.507C106.137 213.327 107.289 214.341 107.039 212.378C107.968 212.985 107.836 213.589 106.644 214.192ZM107.025 202.543C107.306 201.671 107.586 200.806 107.863 199.941C108.079 201.897 107.8 202.764 107.025 202.543ZM108.258 203.418C109.417 201.986 109.62 201.654 110.4 201.6C109.883 202.688 109.576 203.492 108.258 203.418ZM111.775 206.365C110.961 205.595 110.147 204.825 109.333 204.059C110.214 204.042 112.545 205.327 111.775 206.365ZM111.038 202.739C110.9 202.356 110.758 201.973 110.62 201.59C110.883 201.586 111.194 201.596 111.623 201.61C114.281 201.691 109.235 202.668 113.042 204.052C111.599 204.662 110.93 204.225 111.038 202.739ZM114.268 202.085C116.916 202.366 117.74 203.15 116.747 204.435C114.193 203.981 113.366 203.197 114.268 202.085ZM114.538 206.89C115.119 206.389 117.139 208.776 117.45 209.064C114.055 208.871 115.994 209.285 114.538 206.89ZM115.437 215.915C116.051 215.013 118.335 215.257 118.419 214.857C118.612 215.42 118.754 215.935 118.808 216.115C117.686 216.047 116.561 215.983 115.44 215.915H115.437ZM120.537 203.241C119.919 204.761 117.845 200.22 119.801 200.182C119.031 201.803 119.331 202.38 120.699 201.908C120.645 202.353 120.591 202.797 120.537 203.241ZM120.723 195.505C118.95 195.889 119.47 195.207 118.656 197.035C118.47 195.566 118.673 192.853 117.467 195.848C115.156 191.609 116.842 195.261 118.19 192.762C118.99 194.658 119.227 195.563 121.426 194.953C121.267 194.532 121.108 194.112 120.949 193.691C121.936 193.281 122.551 195.112 120.72 195.505H120.723ZM124.513 216.403C124.037 215.057 121.682 215.118 121.639 214.548C121.537 213.263 125.496 214.124 124.513 216.403ZM122.209 209.617C122.524 208.01 124.885 209.627 125.26 210.326C124.243 210.089 123.226 209.855 122.209 209.617ZM127.249 213.524C127.536 213.87 127.82 214.213 128.107 214.558C126.607 213.918 126.729 212.449 128.168 211.655C128.915 213.063 129.013 213.219 127.249 213.524ZM127.496 198.805C127.428 198.775 123.503 197.564 124.615 196.96C125.378 197.103 126.033 197.476 126.58 198.086C127.131 196.838 127.205 195.153 129.09 195.394C127.702 196.123 127.172 197.262 127.496 198.809V198.805ZM128.614 184.446C128.536 183.947 128.459 183.452 128.381 182.954C129.438 184.076 130.34 185.002 130.455 185.039C131.306 184.28 133.059 182.523 134.471 182.649C133.33 183.167 132.387 185.097 130.911 185.843C131.33 186.064 134.441 187.376 133.83 188.37C132.276 187.6 131.07 186.461 129.442 187.183C129.749 186.457 130.07 185.738 130.404 185.023C129.81 184.829 129.212 184.639 128.617 184.446H128.614ZM134.634 184.266C134.684 185.267 134.634 186.284 134.634 187.288C133.762 187.261 133.752 184.236 134.634 184.266ZM129.553 190.31C130.313 189.747 131.073 189.187 131.833 188.624C131.945 190.74 134.661 189.56 133.786 192.694C134.968 191.297 135.762 191.51 136.167 193.338C135.742 193.294 132.793 193.318 132.343 192.88C132.242 192.782 133.958 190.357 131.688 190.262C129.654 190.178 130.962 191.225 129.553 192.45V190.31ZM131.607 199.958C131.043 200.983 130.587 201.817 130.144 202.621C129.259 201.512 129.698 200.433 131.607 199.958ZM132.911 205.419C133.874 204.7 135.674 205.222 134.809 206.229C131.891 203.709 134.951 207.949 131.212 204.9C131.776 205.073 132.343 205.246 132.907 205.419H132.911ZM133.647 215.756C132.657 215.162 132.58 214.457 133.421 213.639C132.948 213.67 132.634 213.534 132.424 213.304C132.833 213.165 133.242 213.026 133.651 212.883C133.6 213.833 133.651 214.803 133.651 215.752L133.647 215.756ZM132.391 213.273C131.397 212.073 133.208 208.308 133.661 208.311C133.566 209.834 133.046 211.93 132.391 213.273ZM134.039 212.714C134.09 212.012 134.478 212.025 135.208 212.758C136.566 211.008 135.09 209.814 134.181 208.444C136.826 209.298 136.387 210.624 136.522 213.344C135.694 213.134 134.867 212.924 134.039 212.717V212.714ZM136.434 198.351C136.035 198.531 135.637 198.71 135.238 198.89C134.671 196.675 138.802 197.327 136.434 198.351ZM136.268 183.11C135.59 182.482 135.025 182.408 134.502 182.635C133.863 180.61 132.887 180.478 131.566 182.242C132.728 180.051 133.292 179.067 133.485 178.731C133.62 179.545 133.593 180.047 134.569 181.323C134.654 179.406 134.248 179.274 136.556 179.99C134.779 178.352 134.796 177.324 136.603 176.91C137.897 180.41 136.664 179.603 136.272 183.117L136.268 183.11ZM137.208 185.307C138.447 185.09 138.812 189.913 138.413 190.646C138.322 190.601 137.258 187.82 137.218 187.132C137.214 186.525 137.211 185.918 137.208 185.311V185.307ZM139.251 203.536C138.65 204.886 138.322 201.027 139.045 202.536C139.923 201.539 139.778 201.223 138.609 201.59C137.951 201.963 137.613 201.905 137.596 201.417C138.836 201.183 139.403 201.047 139.589 200.949C139.944 201.539 139.9 202.085 139.251 203.536ZM138.586 199.667C138.954 200.138 139.244 200.464 139.454 200.759C138.937 200.603 137.684 200.426 138.586 199.667ZM138.677 196.119C138.288 195.648 137.897 195.176 137.508 194.705C138.4 194.301 139.288 193.898 140.18 193.491C139.68 194.366 139.177 195.244 138.677 196.119ZM145.97 186.834C146.054 189.089 143.96 187.787 143.203 189.174C143.538 187.919 144.369 187.369 145.693 187.529C144.494 187.207 144.588 186.976 145.97 186.834ZM145.115 181.923C145.305 184.548 146.004 185.463 143.203 186.454C143.268 185.728 144.815 182.954 145.115 181.923ZM146.132 175.12C147.243 176.134 143.957 176.775 146.51 178.172C142.72 178.789 145.223 175.893 146.132 175.12ZM143.109 171.206C144.136 171.084 145.261 171.206 146.294 171.206C145.102 171.365 144.632 171.854 144.879 172.674C146.125 172.942 146.152 172.04 146.44 173.719C144.794 174.075 144.173 172.79 144.457 175.079C141.974 175.279 142.541 173.034 144.382 172.003C143.957 171.738 143.535 171.474 143.109 171.206ZM143.511 184.059C143.683 185.514 143.078 185.843 141.704 185.046C141.514 183.71 142.119 183.384 143.511 184.059ZM142.241 205.802C140.501 204.561 140.552 203.781 142.393 203.455C143.112 204.656 143.065 205.436 142.241 205.802ZM141.332 188.787C142.974 189.36 142.93 190.798 144.045 191.843C143.339 192.392 141.633 189.211 141.332 188.787ZM144.038 197.049C144.237 195.957 144.44 194.864 144.639 193.772C146.088 195.037 145.889 196.129 144.038 197.049ZM144.558 193.176C143.805 192.521 145.321 190.222 146.325 191.066C145.737 191.768 145.149 192.473 144.558 193.176Z" fill="#009444"/>
</g>
</g>
<defs>
<linearGradient id="paint0_linear_114_3790" x1="94.2601" y1="249.972" x2="94.2601" y2="220.134" gradientUnits="userSpaceOnUse">
<stop stop-color="#8CC540"/>
<stop offset="0.4" stop-color="#89C13E"/>
<stop offset="0.7" stop-color="#81B83B"/>
<stop offset="0.97" stop-color="#74A835"/>
<stop offset="1" stop-color="#73A635"/>
</linearGradient>
<linearGradient id="paint1_linear_114_3790" x1="69.8578" y1="-3.05212" x2="69.8578" y2="-3.05212" gradientUnits="userSpaceOnUse">
<stop stop-color="#8CC540"/>
<stop offset="0.4" stop-color="#89C13E"/>
<stop offset="0.7" stop-color="#81B83B"/>
<stop offset="0.97" stop-color="#74A835"/>
<stop offset="1" stop-color="#73A635"/>
</linearGradient>
<linearGradient id="paint2_linear_114_3790" x1="157.938" y1="192.653" x2="117.271" y2="192.653" gradientUnits="userSpaceOnUse">
<stop stop-color="#8CC540"/>
<stop offset="0.4" stop-color="#89C13E"/>
<stop offset="0.7" stop-color="#81B83B"/>
<stop offset="0.97" stop-color="#74A835"/>
<stop offset="1" stop-color="#73A635"/>
</linearGradient>
</defs>
</svg>
