<svg width="250" height="227" viewBox="0 0 250 227" fill="none" xmlns="http://www.w3.org/2000/svg">
<path d="M35.1192 32.4935C23.1497 42.3508 49.7486 110.96 49.7486 110.96L104.941 67.0721C104.941 67.0721 46.4238 23.1838 35.1192 32.4935Z" fill="#C4C4C4"/>
<path d="M35.1192 32.4935C23.1497 42.3508 49.7486 110.96 49.7486 110.96L104.941 67.0721C104.941 67.0721 46.4238 23.1838 35.1192 32.4935Z" fill="#EF8F35"/>
<path fill-rule="evenodd" clip-rule="evenodd" d="M40.0473 82.6081C33.9264 62.478 28.3439 38.0733 35.1193 32.4935C41.1929 27.4917 60.8951 37.8461 77.8281 48.4995C62.5985 42.2995 47.3116 37.8979 41.9437 42.3186C35.9517 47.2531 37.1026 65.018 40.0473 82.6081Z" fill="#C4C4C4"/>
<path fill-rule="evenodd" clip-rule="evenodd" d="M40.0473 82.6081C33.9264 62.478 28.3439 38.0733 35.1193 32.4935C41.1929 27.4917 60.8951 37.8461 77.8281 48.4995C62.5985 42.2995 47.3116 37.8979 41.9437 42.3186C35.9517 47.2531 37.1026 65.018 40.0473 82.6081Z" fill="#542016"/>
<path d="M204.227 32.4935C216.197 42.3508 189.598 110.96 189.598 110.96L134.405 67.0721C134.405 67.0721 192.923 23.1838 204.227 32.4935Z" fill="#C4C4C4"/>
<path d="M204.227 32.4935C216.197 42.3508 189.598 110.96 189.598 110.96L134.405 67.0721C134.405 67.0721 192.923 23.1838 204.227 32.4935Z" fill="#EF8F35"/>
<path fill-rule="evenodd" clip-rule="evenodd" d="M199.3 82.6097C205.421 62.4793 211.004 38.0734 204.228 32.4935C198.155 27.4917 178.453 37.8459 161.52 48.4993C176.749 42.2994 192.036 37.898 197.404 42.3186C203.396 47.2532 202.245 65.019 199.3 82.6097Z" fill="#C4C4C4"/>
<path fill-rule="evenodd" clip-rule="evenodd" d="M199.3 82.6097C205.421 62.4793 211.004 38.0734 204.228 32.4935C198.155 27.4917 178.453 37.8459 161.52 48.4993C176.749 42.2994 192.036 37.898 197.404 42.3186C203.396 47.2532 202.245 65.019 199.3 82.6097Z" fill="#542016"/>
<path d="M134.464 24.5586C137.904 26.1179 139.792 30.4634 138.682 34.2644L133.182 53.0804C132.122 56.7072 128.715 58.528 125.416 57.3326C124.627 58.686 123.474 59.7996 122.058 60.4414C118.618 62.0008 114.929 60.1835 113.818 56.3824L108.318 37.5665C107.208 33.7654 109.096 29.42 112.536 27.8607C115.976 26.3013 119.666 28.1186 120.776 31.9196L123.017 39.5875L126.224 28.6176C127.334 24.8165 131.024 22.9992 134.464 24.5586Z" fill="#EF8F35"/>
<path d="M36.1016 151.383C36.0147 151.165 35.8473 150.99 35.6355 150.895C20.6417 144.181 8.2153 129.901 6.044 123.681C5.86145 123.158 6.27165 122.661 6.81791 122.66C15.9317 122.656 18.1158 122.534 25.3539 119.148C25.9187 118.884 26.0382 118.119 25.581 117.691L18.531 111.091C17.9224 110.521 18.362 109.416 19.1877 109.358C22.5136 109.122 26.6255 108.11 31.092 106.619C31.3959 106.518 31.6199 106.253 31.679 105.934C38.6298 68.3982 71.0707 40 110.041 40H132.824C170.953 40 202.832 67.1863 210.701 103.518C210.763 103.809 210.964 104.051 211.236 104.16C218.219 106.951 224.879 109.008 229.811 109.358C230.637 109.416 231.076 110.521 230.467 111.091L223.417 117.691C222.96 118.119 223.08 118.884 223.645 119.148C230.883 122.534 233.067 122.656 242.18 122.66C242.727 122.661 243.138 123.152 242.956 123.675C240.458 130.848 224.304 148.754 206.304 153.395C206.039 153.464 205.819 153.651 205.708 153.905C193.291 182.243 165.329 202 132.824 202H110.041C76.5799 202 47.9325 181.063 36.1016 151.383Z" fill="#EF8F35"/>
<path fill-rule="evenodd" clip-rule="evenodd" d="M205.394 153.432C205.221 153.526 205.081 153.677 204.999 153.864C192.627 182.226 164.763 202 132.373 202H109.672C76.341 202 47.8036 181.06 36.0071 151.371C53.3256 131.797 87.5893 119.168 120.554 119.168C154.662 119.168 189.221 132.688 205.394 153.432Z" fill="#FFCEB9"/>
<ellipse cx="11.2792" cy="14.099" rx="11.2792" ry="14.099" transform="matrix(-1 0 0 1 79.6675 96.2578)" fill="#542016"/>
<ellipse cx="4.22971" cy="4.93466" rx="4.22971" ry="4.93466" transform="matrix(-1 0 0 1 75.4377 100.487)" fill="white"/>
<ellipse cx="2.11485" cy="2.11485" rx="2.11485" ry="2.11485" transform="matrix(-1 0 0 1 66.9788 110.356)" fill="white"/>
<ellipse cx="11.2792" cy="14.099" rx="11.2792" ry="14.099" transform="matrix(-1 0 0 1 188.934 96.2578)" fill="#542016"/>
<ellipse cx="4.22971" cy="4.93466" rx="4.22971" ry="4.93466" transform="matrix(-1 0 0 1 184.705 100.487)" fill="white"/>
<ellipse cx="2.11485" cy="2.11485" rx="2.11485" ry="2.11485" transform="matrix(-1 0 0 1 176.246 110.356)" fill="white"/>
<rect x="120.991" y="123.473" width="3.94216" height="17.0301" rx="1.97108" fill="#542016"/>
<ellipse cx="122.883" cy="120.931" rx="13.4034" ry="8.81189" fill="#542016"/>
<ellipse cx="116.023" cy="117.086" rx="2.12877" ry="2.12877" fill="white"/>
<path d="M108.217 135.878C115.313 142.265 131.082 142.265 138.178 135.878" stroke="#542016" stroke-width="0.671053" stroke-linecap="round"/>
</svg>
