<svg width="64" height="65" viewBox="0 0 64 65" fill="none" xmlns="http://www.w3.org/2000/svg">
<path d="M14.2054 64.3788C13.5099 64.3788 12.8143 64.1364 12.2346 63.6515C11.0753 62.6818 10.4956 61.2273 10.9594 59.6515L15.2488 41.2273C15.3648 40.6212 15.2488 40.1364 14.901 39.894L1.33702 28.5C0.177702 27.6515 -0.286025 26.0758 0.177702 24.6212C0.641429 23.1667 1.91668 22.197 3.42379 22.197L21.8569 20.6212C22.4366 20.6212 22.7844 20.2576 23.0163 19.8939L28.8128 2.92424C29.2766 1.4697 30.5518 0.5 32.0589 0.5C33.5661 0.5 34.8413 1.4697 35.305 2.92424L40.9857 19.7727C41.1016 20.2576 41.5653 20.6212 42.0291 20.6212L60.6941 22.197C62.0853 22.197 63.3605 23.1667 63.8242 24.6212C64.288 26.0758 63.8242 27.6515 62.549 28.6212L49.1009 40.0151C48.6372 40.3788 48.5212 40.8636 48.6372 41.3485L52.9267 59.894C53.3904 61.3485 52.9267 62.803 51.6514 63.7727C50.4921 64.7424 48.869 64.7424 47.7097 63.7727L32.7545 53.9545C32.2908 53.5909 31.8271 53.5909 31.4793 53.9545L16.4081 63.8939C15.4807 64.1364 14.7851 64.3788 14.2054 64.3788ZM31.8271 2.92424C31.5952 2.92424 31.0156 2.92421 30.7837 3.65149L24.9871 20.6212C24.5234 22.0757 23.2481 23.0454 21.741 23.0454L3.30786 24.6212C2.49634 24.6212 2.26447 25.2273 2.14854 25.3485C2.14854 25.4697 1.91668 26.197 2.49634 26.5606L16.0604 37.9546C17.2197 38.803 17.6834 40.3788 17.2197 41.8333L12.9302 60.2576C12.6983 61.1061 13.1621 61.4697 13.278 61.5909C13.3939 61.7121 13.9736 62.0758 14.5532 61.5909L29.6244 51.6515C30.7837 50.803 32.4067 50.803 33.5661 51.6515L48.5212 61.4697C49.2168 61.9546 49.6806 61.5909 49.7965 61.4697C49.9124 61.3485 50.3762 60.9849 50.1443 60.2576L46.2026 41.9545C45.7389 40.6212 46.3185 39.0455 47.4779 38.0758L60.9259 26.6818C61.5056 26.1969 61.3897 25.5909 61.3897 25.3485C61.3897 25.1061 61.0419 24.6212 60.3463 24.6212L41.6813 23.0454C40.2901 23.0454 39.0148 22.0757 38.5511 20.6212L32.8705 3.77271C32.6386 2.92422 31.943 2.92424 31.8271 2.92424Z" fill="#1D1D1B"/>
<path d="M31.8271 2.92424C31.5952 2.92424 31.0156 2.92421 30.7837 3.65149L24.9871 20.6212C24.5234 22.0757 23.2481 23.0454 21.741 23.0454L3.30786 24.6212C2.49634 24.6212 2.26447 25.2273 2.14854 25.3485C2.14854 25.4697 1.91668 26.197 2.49634 26.5606L16.0604 37.9546C17.2197 38.803 17.6834 40.3788 17.2197 41.8333L12.9302 60.2576C12.6983 61.1061 13.1621 61.4697 13.278 61.5909C13.3939 61.7121 13.9736 62.0758 14.5532 61.5909L29.6244 51.6515C30.7837 50.803 32.4067 50.803 33.5661 51.6515L48.5212 61.4697C49.2168 61.9546 49.6806 61.5909 49.7965 61.4697C49.9124 61.3485 50.3762 60.9849 50.1443 60.2576L46.2026 41.9545C45.7389 40.6212 46.3185 39.0455 47.4779 38.0758L60.9259 26.6818C61.5056 26.1969 61.3897 25.5909 61.3897 25.3485C61.3897 25.1061 61.0419 24.6212 60.3463 24.6212L41.6813 23.0454C40.2901 23.0454 39.0148 22.0757 38.5511 20.6212L32.8705 3.77271C32.6386 2.92422 31.943 2.92424 31.8271 2.92424Z" fill="#FEEA0A"/>
</svg>
