<svg width="31" height="85" viewBox="0 0 31 85" fill="none" xmlns="http://www.w3.org/2000/svg">
<path d="M-19.569 17.1634C-29.4021 21.422 -55.0879 38.4843 -32.4033 62.1775C-10.8693 84.6823 0.751379 95.4348 13.5766 89.8784C26.3999 84.3397 26.0103 68.7398 23.3169 38.1047C20.4893 5.827 -9.73597 12.9047 -19.569 17.1634Z" fill="#FF616C"/>
<g style="mix-blend-mode:multiply" opacity="0.1">
<path d="M12.9583 32.8801C12.788 33.8974 12.7681 40.1884 13.9552 40.5228C15.1423 40.8572 17.0844 35.0752 17.2528 34.0756C17.423 33.0584 16.7025 31.2584 15.5136 30.9417C14.3247 30.625 13.1101 31.8787 12.9417 32.8782L12.9583 32.8801Z" fill="black"/>
</g>
<path d="M13.8647 33.3429C13.7433 34.044 13.5381 38.8654 14.2033 39.0677C14.8704 39.2524 16.1837 34.7205 16.3033 34.0371C16.4246 33.336 15.962 32.6208 15.2949 32.4361C14.6279 32.2515 13.9843 32.6595 13.8629 33.3606L13.8647 33.3429Z" fill="#FFEDBD"/>
<g style="mix-blend-mode:multiply" opacity="0.1">
<path d="M9.09052 46.7523C9.49139 47.7464 12.7698 53.3474 13.8652 52.9381C14.9606 52.5288 13.4711 46.2772 13.0702 45.2831C12.6693 44.289 11.1662 43.1134 10.0708 43.5227C8.97547 43.932 8.68966 45.7582 9.07399 46.7504L9.09052 46.7523Z" fill="black"/>
</g>
<path d="M10.0231 46.6283C10.3039 47.3224 12.6502 51.7247 13.2759 51.4933C13.9016 51.262 12.5625 46.4939 12.2817 45.7998C12.001 45.1057 11.2692 44.7347 10.6435 44.9661C10.0179 45.1974 9.7423 45.9342 10.0066 46.6264L10.0231 46.6283Z" fill="#FFEDBD"/>
<g style="mix-blend-mode:multiply" opacity="0.1">
<path d="M5.99945 79.0052C6.40032 79.9993 9.67877 85.6003 10.7741 85.191C11.8695 84.7817 10.38 78.5301 9.97915 77.536C9.57828 76.5419 8.07514 75.3663 6.97978 75.7756C5.88441 76.1849 5.59859 78.0111 5.98292 79.0033L5.99945 79.0052Z" fill="black"/>
</g>
<path d="M6.93202 78.8808C7.21281 79.5749 9.55918 83.9771 10.1849 83.7458C10.8105 83.5144 9.47147 78.7463 9.19068 78.0522C8.9099 77.3581 8.17812 76.9872 7.55245 77.2185C6.92678 77.4499 6.65124 78.1867 6.91549 78.8789L6.93202 78.8808Z" fill="#FFEDBD"/>
<g style="mix-blend-mode:multiply" opacity="0.1">
<path d="M4.10042 28.0268C4.39774 28.7228 6.93201 32.5926 7.84014 32.2152C8.74647 31.8555 7.67808 27.387 7.36423 26.689C7.06692 25.993 5.87327 25.2288 4.96514 25.6062C4.05701 25.9835 3.78658 27.3288 4.08389 28.0249L4.10042 28.0268Z" fill="black"/>
</g>
<path d="M4.86803 27.8832C5.06936 28.3714 6.88365 31.4247 7.40653 31.2171C7.91288 31.0077 6.93522 27.6224 6.73389 27.1342C6.53256 26.646 5.93522 26.4337 5.42887 26.6431C4.92252 26.8526 4.66491 27.4127 4.88277 27.9028L4.86803 27.8832Z" fill="#FFEDBD"/>
<g style="mix-blend-mode:multiply" opacity="0.1">
<path d="M-0.230384 47.7807C0.0669324 48.4767 2.6012 52.3465 3.50932 51.9691C4.41566 51.6094 3.34727 47.1409 3.03342 46.4429C2.73611 45.7469 1.54246 44.9827 0.634328 45.3601C-0.273801 45.7374 -0.544233 47.0827 -0.246917 47.7788L-0.230384 47.7807Z" fill="black"/>
</g>
<path d="M0.53698 47.6376C0.738309 48.1258 2.55259 51.1791 3.07548 50.9715C3.58183 50.7621 2.60416 47.3768 2.40283 46.8886C2.2015 46.4004 1.60417 46.1881 1.09781 46.3975C0.59146 46.607 0.333856 47.1671 0.551718 47.6572L0.53698 47.6376Z" fill="#FFEDBD"/>
<g style="mix-blend-mode:multiply" opacity="0.1">
<path d="M3.42413 59.3969C3.75631 60.079 6.47025 63.8267 7.3489 63.4101C8.22755 62.9935 6.9536 58.5727 6.62142 57.8905C6.28925 57.2083 5.07189 56.5128 4.19324 56.9294C3.31459 57.3459 3.10849 58.7166 3.44067 59.3988L3.42413 59.3969Z" fill="black"/>
</g>
<path d="M4.18015 59.1985C4.41633 59.6729 6.35711 62.6335 6.86526 62.4064C7.35867 62.1597 6.22683 58.8102 5.99064 58.3358C5.75445 57.8614 5.17185 57.6687 4.66191 57.9135C4.15197 58.1583 3.94396 58.7241 4.18015 59.1985Z" fill="#FFEDBD"/>
<g style="mix-blend-mode:multiply" opacity="0.1">
<path d="M16.3119 58.4964C16.1079 59.1879 15.6593 63.6056 16.6207 64.0211C17.5839 64.4189 19.5877 60.6643 19.7917 59.9729C19.9958 59.2814 19.5316 57.9224 18.5702 57.5069C17.6069 57.1091 16.5159 57.8049 16.3119 58.4964Z" fill="black"/>
</g>
<path d="M17.0198 58.936C16.8704 59.4192 16.3623 62.7752 16.9083 62.9994C17.4542 63.2237 18.8446 60.2383 18.9923 59.7727C19.1417 59.2894 18.8135 58.7328 18.2694 58.4909C17.7234 58.2667 17.1693 58.4527 17.0198 58.936Z" fill="#FFEDBD"/>
<g style="mix-blend-mode:multiply" opacity="0.1">
<path d="M13.9384 72.1487C14.0815 72.8805 15.6822 77.2141 16.6644 77.0956C17.6448 76.9948 17.6506 72.49 17.5075 71.7582C17.3643 71.0265 16.3665 69.981 15.3843 70.0995C14.4039 70.2003 13.8118 71.4189 13.9384 72.1487Z" fill="black"/>
</g>
<path d="M14.7357 72.2056C14.8342 72.7176 15.8981 76.0771 16.4728 76.0186C17.0475 75.9602 16.8648 72.4883 16.7662 71.9763C16.6677 71.4642 16.1361 71.0986 15.5779 71.159C15.0198 71.2194 14.6389 71.6759 14.7375 72.1879L14.7357 72.2056Z" fill="#FFEDBD"/>
<g style="mix-blend-mode:multiply" opacity="0.1">
<path d="M-2.38376 68.9859C-2.08644 69.6819 0.412962 73.5656 1.33583 73.2078C2.24216 72.8481 1.20684 68.3834 0.909521 67.6874C0.612205 66.9914 -0.581444 66.2271 -1.48778 66.5868C-2.39411 66.9465 -2.68107 68.2899 -2.38376 68.9859Z" fill="black"/>
</g>
<path d="M-1.61652 68.8422C-1.41519 69.3305 0.380765 72.3994 0.887119 72.19C1.41 71.9825 0.450663 68.5815 0.247539 68.1109C0.0462098 67.6227 -0.549334 67.3927 -1.05569 67.6021C-1.57857 67.8097 -1.81964 68.3717 -1.61652 68.8422Z" fill="#FFEDBD"/>
<g style="mix-blend-mode:multiply" opacity="0.1">
<path d="M-0.244184 37.3738C0.249343 37.9495 3.7912 40.792 4.49658 40.105C5.20197 39.4181 2.80894 35.4753 2.29888 34.8976C1.80535 34.3218 0.480591 34.0251 -0.223002 34.6944C-0.92839 35.3814 -0.754243 36.7961 -0.242389 37.3561L-0.244184 37.3738Z" fill="black"/>
</g>
<path d="M0.40137 36.9477C0.745724 37.3452 3.36997 39.67 3.77855 39.2704C4.18532 38.8885 2.19315 35.9398 1.8488 35.5423C1.50444 35.1448 0.902103 35.1464 0.495326 35.5283C0.0885495 35.9102 0.0570154 36.5502 0.40137 36.9477Z" fill="#FFEDBD"/>
<g style="mix-blend-mode:multiply" opacity="0.15">
<path d="M10.8223 90.8103C10.2735 90.9433 9.72653 91.0587 9.18314 91.1387C8.9959 91.1706 8.80866 91.2025 8.63974 91.2187C7.9623 91.301 7.29025 91.3303 6.60704 91.3047C6.3738 91.2955 6.14235 91.2686 5.9091 91.2594C5.4444 91.2234 4.96317 91.1855 4.48732 91.0945C4.20627 91.0619 3.92702 91.0116 3.63123 90.9594C3.12232 90.8646 2.60226 90.7149 2.08219 90.5652C1.65954 90.4446 1.23867 90.3064 0.819596 90.1505C0.400522 89.9946 -0.0350852 89.8368 -0.468894 89.6613C-0.83837 89.5112 -1.22079 89.3238 -1.60501 89.154C-1.95615 88.9881 -2.28897 88.8065 -2.63833 88.6229C-3.46392 88.1875 -4.31718 87.6951 -5.16686 87.1675C-5.35627 87.0561 -5.52916 86.9466 -5.71678 86.8176C-6.21889 86.4912 -6.71922 86.1471 -7.23428 85.7834C-7.48444 85.6113 -7.71807 85.4412 -7.96823 85.2691C-8.51277 84.8662 -9.0591 84.481 -9.60004 84.0428C-9.64605 84.0017 -9.69385 83.9783 -9.72333 83.9391C-11.0094 82.9317 -12.3213 81.8498 -13.6886 80.6542C-13.7346 80.6131 -13.7806 80.572 -13.8266 80.5309C-14.5333 79.9126 -15.2547 79.2746 -15.9725 78.6014C-6.11249 84.1256 1.27641 85.3225 8.26054 80.787C20.1129 73.1153 17.5439 57.7274 10.5772 27.8302C10.3118 26.6551 9.9878 25.5627 9.66024 24.5056C7.02237 24.9505 4.22238 25.1799 1.31706 25.1289C-4.91409 25.0496 -10.8083 23.7937 -15.7991 21.7128L-16.0963 21.8392C-12.933 23.7975 -9.74732 26.688 -6.95827 30.3549C-3.9629 34.2961 -1.88142 38.5067 -0.836474 42.3825C-4.50649 40.4728 -8.29171 37.2266 -11.5394 32.9701C-14.1811 29.4991 -16.0997 25.8259 -17.2355 22.3507C-16.6186 26.159 -16.7607 30.5228 -17.7915 34.9087C-18.8751 39.4852 -20.7775 43.3945 -23.0902 46.2371C-24.0072 42.0901 -23.9767 37.177 -22.8039 32.2175C-22.693 31.7834 -22.5838 31.367 -22.4746 30.9506C-24.1767 33.3813 -26.1709 35.7245 -28.4833 37.9056C-32.4979 41.6951 -36.8968 44.4923 -41.2395 46.2413C-41.5305 44.3302 -41.5275 42.489 -41.2801 40.712C-39.2282 37.1418 -36.5149 33.6484 -33.1856 30.5125C-30.8549 28.3156 -28.4095 26.4717 -25.9137 24.9555C-23.6265 23.0217 -21.0212 20.4276 -21.3133 18.8561C-21.3579 18.6364 -21.4485 18.3756 -21.5373 18.0971C-20.8146 17.7339 -20.1469 17.4181 -19.5342 17.1494C-18.9398 16.8966 -18.2591 16.618 -17.5307 16.3628C-17.3905 16.6294 -17.2467 16.8606 -17.0975 17.0388C-15.8819 18.5744 -10.7265 18.0461 -7.60197 17.5862C-6.88428 17.437 -6.15186 17.3074 -5.42303 17.2132C-5.26886 17.1775 -5.16787 17.1713 -5.16787 17.1713L-5.22106 17.2009C-2.92998 16.8767 -0.521001 16.7092 1.96923 16.7299C3.45675 16.7416 4.90045 16.8554 6.34234 16.987C5.62339 15.8308 4.84408 14.7749 4.03388 13.8585C5.00391 14.0247 5.95201 14.2419 6.89473 14.5122C9.7229 15.3231 12.398 16.6525 14.757 18.6247C15.9439 19.6206 17.065 20.7698 18.0636 22.1371C18.666 22.9579 19.2264 23.8633 19.7466 24.8354C19.8297 25.006 19.931 25.1608 20.0141 25.3313C20.2114 25.6939 20.3721 26.088 20.5494 26.484C20.6565 26.7468 20.782 26.9938 20.8873 27.2742C21.0351 27.631 21.1792 28.0232 21.3252 28.3977C21.4417 28.733 21.5582 29.0684 21.6747 29.4037C21.7894 29.7567 21.9023 30.1274 22.0134 30.5157C22.1227 30.9218 22.2302 31.3455 22.3359 31.7868C22.4176 32.136 22.5157 32.4871 22.579 32.852C22.6941 33.366 22.7891 33.9133 22.884 34.4607C22.9362 34.7707 22.9901 35.063 23.0423 35.373C23.1711 36.2462 23.278 37.1704 23.3665 38.1104C26.0581 68.7632 26.433 84.3435 13.6261 89.8841C12.9088 90.1942 12.1987 90.4337 11.4922 90.6378C11.2848 90.7031 11.0792 90.7508 10.8737 90.7984L10.8223 90.8103Z" fill="black"/>
</g>
<path d="M-35.2677 26.8025C-32.937 24.6056 -30.4916 22.7617 -27.9958 21.2455C-25.7086 19.3117 -23.1034 16.7176 -23.3954 15.1461C-23.8979 12.3523 -29.5758 5.5075 -29.5758 5.5075C-29.5758 5.5075 -29.5655 4.41808 -26.7312 3.19144L-26.0836 2.90899C-23.2493 1.68235 -22.4028 2.40632 -22.4028 2.40632C-22.4028 2.40632 -20.9773 11.0999 -19.1962 13.3269C-17.9805 14.8625 -12.8251 14.3342 -9.70061 13.8743C-8.98293 13.7251 -8.25051 13.5955 -7.52167 13.5013C-7.3675 13.4656 -7.26651 13.4594 -7.26651 13.4594L-7.3197 13.489C-5.02862 13.1648 -2.61964 12.9973 -0.129416 13.018C6.81979 13.1091 13.3372 14.6519 18.6688 17.1656C13.5536 19.9334 6.79943 21.5456 -0.717255 21.4423C-6.9484 21.363 -12.8426 20.1071 -17.8334 18.0263L-18.1306 18.1527C-14.9673 20.1109 -11.7816 23.0014 -8.99258 26.6684C-5.99721 30.6095 -3.91573 34.8201 -2.87078 38.6959C-6.5408 36.7862 -10.326 33.5401 -13.5737 29.2836C-16.2154 25.8125 -18.134 22.1393 -19.2698 18.6642C-18.6529 22.4724 -18.795 26.8363 -19.8258 31.2222C-20.9094 35.7986 -22.8118 39.708 -25.1245 42.5506C-26.0415 38.4036 -26.011 33.4904 -24.8383 28.531C-24.7273 28.0969 -24.6181 27.6804 -24.5089 27.264C-26.211 29.6947 -28.2052 32.0379 -30.5176 34.2191C-35.4758 38.9003 -41.0179 42.0834 -46.3123 43.6504C-44.3867 37.8665 -40.6032 31.9047 -35.2382 26.8417L-35.2677 26.8025Z" fill="#007D70"/>
</svg>
