<svg width="25" height="24" viewBox="0 0 25 24" fill="none" xmlns="http://www.w3.org/2000/svg">
<g clip-path="url(#clip0_358_1227)">
<path d="M24.0957 4.53977C23.9873 4.07613 23.583 3.75 23.1204 3.75H18.9189C18.929 3.21504 18.9234 2.73164 18.9124 2.33117C18.8939 1.58566 18.3062 1 17.5809 1H6.92726C6.20201 1 5.61431 1.58566 5.59347 2.33117C5.54762 2.73164 5.5768 3.21504 5.5893 3.75H1.38618C0.92352 3.75 0.522423 4.07613 0.41301 4.53977C0.379165 4.68586 -0.404857 8.18437 1.79507 11.566C3.35561 13.9645 5.98819 15.6493 9.61028 16.6105C10.3897 16.817 10.9195 17.5584 10.9195 18.3882C10.9203 19.4121 10.1075 20.25 9.11135 20.25H8.91962C7.81465 20.25 6.91934 21.1734 6.91934 22.3125C6.91934 22.6922 7.21791 23 7.54873 23H16.8478C17.2161 23 17.4772 22.6922 17.4772 22.3125C17.4772 21.1734 16.5819 20.25 15.4769 20.25H15.2833C14.2888 20.25 13.476 19.4121 13.476 18.3873C13.476 17.5576 14.0058 16.8159 14.7852 16.6097C18.4098 15.6498 21.0416 13.965 22.6004 11.5652C24.9127 8.18438 24.129 4.68586 24.0957 4.53977ZM3.47649 10.4445C2.31192 8.67422 2.20938 6.83086 2.26648 5.8125H5.61723C5.8406 8.3743 6.46544 11.4457 8.02098 13.9379C5.97694 13.1 4.45557 11.9312 3.47649 10.4445ZM21.0321 10.4445C20.0551 11.9312 18.5338 13.0979 16.4889 13.9345C18.0436 11.4457 18.6688 8.37344 18.8897 5.8125H22.2405C22.2617 6.83086 22.195 8.67852 21.0321 10.4445Z" fill="#1D1D1B"/>
</g>
<defs>
<clipPath id="clip0_358_1227">
<rect width="24" height="24" fill="white" transform="translate(0.25)"/>
</clipPath>
</defs>
</svg>
