<svg width="16" height="18" viewBox="0 0 16 18" fill="none" xmlns="http://www.w3.org/2000/svg">
<path d="M8.25 0.75C6.17893 0.75 4.5 2.42893 4.5 4.5C4.5 6.57107 6.17893 8.25 8.25 8.25C10.3211 8.25 12 6.57107 12 4.5C12 2.42893 10.3211 0.75 8.25 0.75Z" fill="#1D1D1B"/>
<path d="M4.25 10.25C2.17893 10.25 0.5 11.9289 0.5 14V15.1883C0.5 15.9415 1.04588 16.5837 1.78927 16.7051C6.0681 17.4037 10.4319 17.4037 14.7107 16.7051C15.4541 16.5837 16 15.9415 16 15.1883V14C16 11.9289 14.3211 10.25 12.25 10.25H11.9091C11.7246 10.25 11.5413 10.2792 11.3659 10.3364L10.5004 10.6191C9.03813 11.0965 7.46187 11.0965 5.99959 10.6191L5.13407 10.3364C4.95869 10.2792 4.77536 10.25 4.59087 10.25H4.25Z" fill="#1D1D1B"/>
</svg>
